<?xml version="1.0" encoding="UTF-8" standalone="no"?>
<svg
   width="67.125954"
   height="99.235825"
   viewBox="0 0 67.125953 99.235825"
   fill="none"
   version="1.1"
   id="svg4"
   sodipodi:docname="original.svg"
   inkscape:version="1.2 (dc2aedaf03, 2022-05-15)"
   inkscape:export-filename="nuevo.png"
   inkscape:export-xdpi="715.07367"
   inkscape:export-ydpi="715.07367"
   xmlns:inkscape="http://www.inkscape.org/namespaces/inkscape"
   xmlns:sodipodi="http://sodipodi.sourceforge.net/DTD/sodipodi-0.dtd"
   xmlns="http://www.w3.org/2000/svg"
   xmlns:svg="http://www.w3.org/2000/svg">
  <defs
     id="defs8" />
  <sodipodi:namedview
     id="namedview6"
     pagecolor="#ffffff"
     bordercolor="#666666"
     borderopacity="1.0"
     inkscape:pageshadow="2"
     inkscape:pageopacity="0.0"
     inkscape:pagecheckerboard="0"
     showgrid="false"
     inkscape:zoom="3.0052038"
     inkscape:cx="-9.816306"
     inkscape:cy="74.87013"
     inkscape:window-width="1920"
     inkscape:window-height="1047"
     inkscape:window-x="0"
     inkscape:window-y="0"
     inkscape:window-maximized="1"
     inkscape:current-layer="svg4"
     inkscape:showpageshadow="2"
     inkscape:deskcolor="#d1d1d1" />
  <path
     style="fill:#ffffff;fill-opacity:1;stroke:none;stroke-width:1px;stroke-linecap:butt;stroke-linejoin:miter;stroke-opacity:1"
     d="m 38.718176,5.8359232 c -0.337018,2.1567283 0.0027,-0.340497 -0.149802,2.1188911 -0.04283,0.6908227 -0.166978,1.3754289 -0.200059,2.0667867 -0.03368,0.703961 0,1.409533 0,2.114299 0,0.622643 0,1.245285 0,1.867927 0,0.545658 0,1.091315 0,1.636972 0,0.43797 -0.02693,0.876768 0,1.313909 0.01582,0.256799 0.103586,0.505057 0.127815,0.761199 0.01852,0.195807 -0.02574,0.395053 0,0.590043 0.02873,0.217677 0.11287,0.424463 0.16216,0.638426 0.126187,0.547766 0.22471,1.104532 0.362074,1.649735 0.04511,0.179028 0.112355,0.352044 0.156222,0.531379 0.04751,0.194236 0.06544,0.395211 0.117647,0.588237 0.226125,0.836037 0.555139,1.621835 0.905252,2.410688 0.08253,0.185946 0.152473,0.377822 0.245318,0.558838 0.707786,1.150558 -0.121768,-0.271598 0.366189,0.777803 0.07738,0.166412 0.208758,0.30539 0.277315,0.475626 0.103696,0.25749 0.106248,0.553191 0.235862,0.798659 0.183948,0.348367 0.465909,0.635463 0.691815,0.958205 0.08631,0.123311 0.147931,0.264189 0.244579,0.379578 0.07871,0.09397 0.205254,0.142707 0.276453,0.242485 0.489762,0.686349 -0.487467,-0.131982 0.394338,0.858862 0.177263,0.199182 0.423318,0.324443 0.63954,0.480469 0.119847,0.08648 0.232766,0.187946 0.36833,0.246808 0.149049,0.06472 0.318691,0.06713 0.472871,0.11844 0.460926,0.153381 0.01291,0.171751 0.727087,0.235848 0.273547,0.02455 0.550332,-0.02388 0.823939,0 0.204349,0.01783 0.398636,0.103198 0.602654,0.124486 0.195724,0.02042 0.393574,0 0.59036,0 0.470775,0 0.94155,0 1.412325,0 0.392157,0 0.784314,0 1.176471,0 0.27451,0 0.550022,0.02343 0.823529,0 0.185208,-0.01587 1.007937,-0.226693 1.192412,-0.245799 0.199785,-0.02069 0.401707,0 0.60256,0 0.552991,0 1.105981,0 1.658972,0 0.235294,0 0.470588,0 0.705882,0 0.117647,0 0.236288,0.01526 0.352941,0 0.185779,-0.0243 0.363427,-0.09652 0.549547,-0.118064 0.311645,-0.03607 0.629873,0.03891 0.941176,0 0.160442,-0.02005 0.313824,-0.07804 0.470588,-0.117647 0.30951,-0.0782 0.631897,-0.117053 0.92823,-0.235789 0.105658,-0.04234 0.159179,-0.163452 0.247465,-0.235295 0.111889,-0.09105 0.559013,-0.353945 0.628167,-0.392843 0.228127,-0.128321 0.471775,-0.237049 0.706285,-0.35334 0.0796,-0.03947 0.168043,-0.06442 0.239193,-0.117647 0.05199,-0.03889 0.06803,-0.115449 0.121553,-0.152207 0.08127,-0.05581 0.198347,-0.0514 0.271362,-0.117647 0.06494,-0.05892 0.0553,-0.173634 0.117647,-0.235295 0.06328,-0.06258 0.1766,-0.05502 0.239531,-0.117948 0.02866,-0.02866 -0.01788,-0.08522 0,-0.121582 0.02447,-0.04977 0.09285,-0.06804 0.117647,-0.117647 0.01754,-0.03508 0,-0.07843 0,-0.117647 0,-0.07843 0,-0.156863 0,-0.235295 0,-0.3045 0.04168,-0.392636 -0.117647,-0.663459 -0.07538,-0.128137 -0.193482,-0.227122 -0.272676,-0.352941 -0.531133,-1.021272 0.03826,-0.03233 -0.48067,-0.712435 -0.105112,-0.137758 -0.18851,-0.290806 -0.283275,-0.435877 -0.239209,-0.36619 -0.474444,-0.737064 -0.723755,-1.096482 -0.116639,-0.168153 -0.231289,-0.337987 -0.356969,-0.499494 -0.129215,-0.16605 -0.297817,-0.302586 -0.407098,-0.482382 -0.120635,-0.198478 -0.153409,-0.442369 -0.275182,-0.640151 -0.239204,-0.388512 -0.558048,-0.723621 -0.801902,-1.109232 -0.165871,-0.262295 -0.256628,-0.567506 -0.423792,-0.828979 -0.177004,-0.276866 -0.403903,-0.518467 -0.604198,-0.778979 -0.14788,-0.192341 -0.28966,-0.389388 -0.440314,-0.579563 C 55.269897,18.91356 55.035425,18.682647 54.853925,18.412212 54.688231,18.165327 54.579827,17.8844 54.43559,17.624395 54.30188,17.383367 54.170721,17.140313 54.020235,16.909386 53.29191,15.791741 53.872057,16.826454 53.000812,15.639577 52.586663,15.075391 52.336856,14.483544 51.859584,13.965995 51.707431,13.801002 51.49819,13.698741 51.330373,13.54971 50.995812,13.2526 50.699762,12.914729 50.380163,12.601581 50.254895,12.47884 50.113943,12.371032 50.000769,12.237059 49.907514,12.126667 49.853715,11.987312 49.764936,11.873289 49.609573,11.67375 49.406195,11.515206 49.248643,11.31739 49.137311,11.177605 49.063102,11.006762 48.933616,10.883602 48.809018,10.765093 48.635286,10.710416 48.499526,10.604878 48.398055,10.525996 48.33528,10.400637 48.22578,10.333342 48.052129,10.226621 47.841625,10.191765 47.664171,10.091495 47.397385,9.9407497 47.16635,9.7314898 46.898194,9.5831964 46.786077,9.5211943 46.642671,9.5305827 46.532284,9.4655493 46.434379,9.4078692 46.377419,9.2984338 46.290535,9.2251983 46.17387,9.1268606 46.05356,9.0313616 45.923168,8.9521216 45.634382,8.7766244 45.059023,8.5457193 44.77407,8.4423542 44.643101,8.394846 44.501338,8.3789488 44.373011,8.3247071 44.285416,8.2876819 44.218937,8.21093 44.13254,8.1711893 43.995867,8.108323 43.845446,8.0793346 43.707764,8.0187091 42.850307,7.6411441 44.029894,8.1174155 43.200504,7.6290984 43.090577,7.5643767 42.955076,7.5580841 42.83634,7.5114513 42.729033,7.4693074 42.206201,7.2154918 42.12485,7.1537889 42.074327,7.1154687 42.059424,7.0402664 42.007202,7.0042959 41.853182,6.8982058 41.654017,6.8718711 41.497925,6.7688527 41.404578,6.7072452 41.358104,6.5879063 41.262631,6.5296488 40.882468,6.2976746 40.95877,6.5151497 40.446871,6.2596831 40.347625,6.2101536 40.303867,6.0859156 40.211577,6.024389 c -0.03263,-0.021753 -0.08247,0.017328 -0.117647,0 C 40.04564,6.0006 40.02802,5.933975 39.979729,5.9101868 c -0.05057,-0.02491 -0.630387,0.011444 -0.739494,0 -0.174813,-0.018336 -0.34804,-0.049509 -0.522059,-0.074264 z"
     id="path1161" />
  <path
     fill-rule="evenodd"
     clip-rule="evenodd"
     d="m 66.861645,28.025085 -0.03943,-0.117631 c -0.03021,-0.09323 -0.06042,-0.184974 -0.099,-0.276728 -0.205573,-0.44471 -0.461491,-0.868443 -0.822292,-1.229244 L 40.728673,1.229244 C 40.36787,0.86844206 39.944137,0.61252441 39.499429,0.40695105 39.412581,0.36650818 39.321957,0.33797952 39.230086,0.30907327 39.18855,0.29601906 39.147014,0.28285157 39.105064,0.26850453 38.752653,0.15103339 38.39185,0.07551679 38.018462,0.05453979 37.97609,0.05068017 37.936233,0.03880714 37.896797,0.02714412 37.851066,0.01342515 37.805757,0 37.758349,0 H 8.3907441 C 3.7632487,0 0,3.7632487 0,8.3907441 V 75.516697 c 0,4.627497 3.7632487,8.390744 8.3907441,8.390744 H 58.735209 c 4.627497,0 8.390744,-3.763247 8.390744,-8.390744 V 29.367604 c 0,-0.04752 -0.01349,-0.09264 -0.02728,-0.138579 -0.01169,-0.03924 -0.0235,-0.07905 -0.02728,-0.121534 -0.02098,-0.369193 -0.0923,-0.729994 -0.209768,-1.082406 z M 40.112978,7.0778892 c 0,0 0.102214,13.6999228 0.65458,15.8643068 0.44702,1.751596 1.026632,2.175407 2.744543,2.657554 2.637117,0.740129 15.529654,0.458145 15.529654,0.458145 z"
     fill="#000000"
     id="path2"
     sodipodi:nodetypes="cccsscccccsssssssscccccsscc"
     style="fill:#434343;fill-opacity:1;stroke-width:4.19538" />
  <text
     xml:space="preserve"
     style="font-weight:bold;font-size:7.67667px;line-height:0.45;font-family:Inconsolata;-inkscape-font-specification:'Inconsolata Bold';letter-spacing:0px;word-spacing:0px;stroke-width:1.43938"
     x="4.9900589"
     y="32.725658"
     id="text3152"><tspan
       sodipodi:role="line"
       x="4.9900589"
       y="32.725658"
       style="font-style:normal;font-variant:normal;font-weight:normal;font-stretch:normal;font-size:7.67667px;font-family:Inter;-inkscape-font-specification:Inter;fill:#ffffff;stroke-width:1.43938"
       id="tspan26682" /><tspan
       sodipodi:role="line"
       x="4.9900589"
       y="36.700375"
       style="font-style:normal;font-variant:normal;font-weight:normal;font-stretch:normal;font-size:8.66667px;font-family:Inter;-inkscape-font-specification:'Inter, Normal';font-variant-ligatures:normal;font-variant-caps:normal;font-variant-numeric:normal;font-variant-east-asian:normal;fill:#ffffff;stroke-width:1.43938"
       id="tspan1731" /><tspan
       sodipodi:role="line"
       x="4.9900589"
       y="40.600376"
       style="font-style:normal;font-variant:normal;font-weight:normal;font-stretch:normal;font-size:8.66667px;font-family:Inter;-inkscape-font-specification:'Inter, Normal';font-variant-ligatures:normal;font-variant-caps:normal;font-variant-numeric:normal;font-variant-east-asian:normal;fill:#ffffff;stroke-width:1.43938"
       id="tspan1775" /><tspan
       sodipodi:role="line"
       x="4.9900589"
       y="44.500378"
       style="font-style:normal;font-variant:normal;font-weight:normal;font-stretch:normal;font-size:8.66667px;font-family:Inter;-inkscape-font-specification:'Inter, Normal';font-variant-ligatures:normal;font-variant-caps:normal;font-variant-numeric:normal;font-variant-east-asian:normal;fill:#ffffff;stroke-width:1.43938"
       id="tspan1777" /><tspan
       sodipodi:role="line"
       x="4.9900589"
       y="48.400379"
       style="font-style:normal;font-variant:normal;font-weight:normal;font-stretch:normal;font-size:8.66667px;font-family:Inter;-inkscape-font-specification:'Inter, Normal';font-variant-ligatures:normal;font-variant-caps:normal;font-variant-numeric:normal;font-variant-east-asian:normal;fill:#ffffff;stroke-width:1.43938"
       id="tspan1779">Pipeline</tspan><tspan
       sodipodi:role="line"
       x="4.9900589"
       y="52.300381"
       style="font-style:normal;font-variant:normal;font-weight:normal;font-stretch:normal;font-size:8.66667px;font-family:Inter;-inkscape-font-specification:'Inter, Normal';font-variant-ligatures:normal;font-variant-caps:normal;font-variant-numeric:normal;font-variant-east-asian:normal;fill:#ffffff;stroke-width:1.43938"
       id="tspan1781" /><tspan
       sodipodi:role="line"
       x="4.9900589"
       y="56.200382"
       style="font-style:normal;font-variant:normal;font-weight:normal;font-stretch:normal;font-size:8.66667px;font-family:Inter;-inkscape-font-specification:'Inter, Normal';font-variant-ligatures:normal;font-variant-caps:normal;font-variant-numeric:normal;font-variant-east-asian:normal;fill:#ffffff;stroke-width:1.43938"
       id="tspan1783">Configuración</tspan><tspan
       sodipodi:role="line"
       x="4.9900589"
       y="59.721664"
       style="font-style:normal;font-variant:normal;font-weight:normal;font-stretch:normal;font-size:8.66667px;font-family:Inter;-inkscape-font-specification:'Inter, Normal';font-variant-ligatures:normal;font-variant-caps:normal;font-variant-numeric:normal;font-variant-east-asian:normal;fill:#ffffff;stroke-width:1.43938"
       id="tspan1741" /></text>
  <text
     xml:space="preserve"
     style="font-style:normal;font-variant:normal;font-weight:normal;font-stretch:normal;font-size:14.6667px;line-height:1.25;font-family:'SF Mono';-inkscape-font-specification:'SF Mono, Normal';font-variant-ligatures:normal;font-variant-caps:normal;font-variant-numeric:normal;font-variant-east-asian:normal;letter-spacing:0px;word-spacing:0px;fill:#333333;stroke-width:0.238151"
     x="0.59412104"
     y="97.522278"
     id="text28309"><tspan
       sodipodi:role="line"
       id="tspan28307"
       x="0.59412104"
       y="97.522278"
       style="font-style:normal;font-variant:normal;font-weight:normal;font-stretch:normal;font-size:10.6667px;font-family:'SF Mono';-inkscape-font-specification:'SF Mono, Normal';font-variant-ligatures:normal;font-variant-caps:normal;font-variant-numeric:normal;font-variant-east-asian:normal;fill:#3f3f3f;fill-opacity:1;stroke-width:0.238151">tremor.exe</tspan></text>
</svg>
