<?xml version='1.0' encoding='utf-8'?>
<mlt LC_NUMERIC="C" producer="main_bin" version="7.12.0" root="/home/mario/Downloads/Concurso TFG">
 <profile frame_rate_num="30000" sample_aspect_num="1" display_aspect_den="9" colorspace="709" progressive="1" description="HD 1080p 29.97 fps" display_aspect_num="16" frame_rate_den="1001" width="1920" height="1080" sample_aspect_den="1"/>
 <producer id="producer0" in="00:00:00.000" out="00:00:59.059">
  <property name="length">1771</property>
  <property name="eof">pause</property>
  <property name="resource">GX010108_lowres.mp4</property>
  <property name="audio_index">1</property>
  <property name="video_index">0</property>
  <property name="mute_on_pause">0</property>
  <property name="mlt_service">avformat-novalidate</property>
  <property name="meta.media.nb_streams">3</property>
  <property name="meta.media.0.stream.type">video</property>
  <property name="meta.media.0.stream.frame_rate">29.97</property>
  <property name="meta.media.0.stream.sample_aspect_ratio">1</property>
  <property name="meta.media.0.codec.width">1920</property>
  <property name="meta.media.0.codec.height">1080</property>
  <property name="meta.media.0.codec.rotate">0</property>
  <property name="meta.media.0.codec.pix_fmt">yuvj420p</property>
  <property name="meta.media.0.codec.sample_aspect_ratio">1</property>
  <property name="meta.media.0.codec.colorspace">709</property>
  <property name="meta.media.0.codec.color_trc">1</property>
  <property name="meta.media.0.codec.name">hevc</property>
  <property name="meta.media.0.codec.long_name">HEVC (High Efficiency Video Coding)</property>
  <property name="meta.media.0.codec.bit_rate">1599167</property>
  <property name="meta.attr.0.stream.language.markup">eng</property>
  <property name="meta.attr.0.stream.handler_name.markup">GoPro H.265</property>
  <property name="meta.attr.0.stream.vendor_id.markup">[0][0][0][0]</property>
  <property name="meta.attr.0.stream.encoder.markup">Lavc59.37.100 libx265</property>
  <property name="meta.attr.0.stream.timecode.markup">17:43:32:15</property>
  <property name="meta.media.1.stream.type">audio</property>
  <property name="meta.media.1.codec.sample_fmt">fltp</property>
  <property name="meta.media.1.codec.sample_rate">48000</property>
  <property name="meta.media.1.codec.channels">2</property>
  <property name="meta.media.1.codec.name">aac</property>
  <property name="meta.media.1.codec.long_name">AAC (Advanced Audio Coding)</property>
  <property name="meta.media.1.codec.bit_rate">134538</property>
  <property name="meta.attr.1.stream.language.markup">eng</property>
  <property name="meta.attr.1.stream.handler_name.markup">GoPro AAC  </property>
  <property name="meta.attr.1.stream.vendor_id.markup">[0][0][0][0]</property>
  <property name="meta.attr.major_brand.markup">isom</property>
  <property name="meta.attr.minor_version.markup">512</property>
  <property name="meta.attr.compatible_brands.markup">isomiso2mp41</property>
  <property name="meta.attr.encoder.markup">Lavf59.27.100</property>
  <property name="meta.attr.location-eng.markup">+48.1703+011.5512/</property>
  <property name="meta.attr.location.markup">+48.1703+011.5512/</property>
  <property name="seekable">1</property>
  <property name="meta.media.sample_aspect_num">1</property>
  <property name="meta.media.sample_aspect_den">1</property>
  <property name="aspect_ratio">1</property>
  <property name="format">3</property>
  <property name="kdenlive:clipname"/>
  <property name="kdenlive:clip_type">0</property>
  <property name="kdenlive:folderid">-1</property>
  <property name="kdenlive:id">2</property>
  <property name="kdenlive:file_size">12874461</property>
  <property name="kdenlive:file_hash">649a2172546b33a7edeeba72e4c499c9</property>
  <property name="kdenlive:audio_max1">174</property>
  <property name="meta.media.frame_rate_num">30000</property>
  <property name="meta.media.frame_rate_den">1001</property>
  <property name="meta.media.colorspace">709</property>
  <property name="meta.media.color_trc">1</property>
  <property name="meta.media.has_b_frames">2</property>
  <property name="meta.media.width">1920</property>
  <property name="meta.media.height">1080</property>
  <property name="meta.media.color_range">full</property>
  <property name="meta.media.top_field_first">0</property>
  <property name="meta.media.progressive">1</property>
 </producer>
 <producer id="producer1" in="00:00:00.000" out="00:01:08.742">
  <property name="length">2061</property>
  <property name="eof">pause</property>
  <property name="resource">GX010109_lowres.mp4</property>
  <property name="audio_index">1</property>
  <property name="video_index">0</property>
  <property name="mute_on_pause">0</property>
  <property name="mlt_service">avformat-novalidate</property>
  <property name="meta.media.nb_streams">3</property>
  <property name="meta.media.0.stream.type">video</property>
  <property name="meta.media.0.stream.frame_rate">29.97</property>
  <property name="meta.media.0.stream.sample_aspect_ratio">1</property>
  <property name="meta.media.0.codec.width">1920</property>
  <property name="meta.media.0.codec.height">1080</property>
  <property name="meta.media.0.codec.rotate">0</property>
  <property name="meta.media.0.codec.pix_fmt">yuvj420p</property>
  <property name="meta.media.0.codec.sample_aspect_ratio">1</property>
  <property name="meta.media.0.codec.colorspace">709</property>
  <property name="meta.media.0.codec.color_trc">1</property>
  <property name="meta.media.0.codec.name">hevc</property>
  <property name="meta.media.0.codec.long_name">HEVC (High Efficiency Video Coding)</property>
  <property name="meta.media.0.codec.bit_rate">1344963</property>
  <property name="meta.attr.0.stream.language.markup">eng</property>
  <property name="meta.attr.0.stream.handler_name.markup">GoPro H.265</property>
  <property name="meta.attr.0.stream.vendor_id.markup">[0][0][0][0]</property>
  <property name="meta.attr.0.stream.encoder.markup">Lavc59.37.100 libx265</property>
  <property name="meta.attr.0.stream.timecode.markup">17:44:59:16</property>
  <property name="meta.media.1.stream.type">audio</property>
  <property name="meta.media.1.codec.sample_fmt">fltp</property>
  <property name="meta.media.1.codec.sample_rate">48000</property>
  <property name="meta.media.1.codec.channels">2</property>
  <property name="meta.media.1.codec.name">aac</property>
  <property name="meta.media.1.codec.long_name">AAC (Advanced Audio Coding)</property>
  <property name="meta.media.1.codec.bit_rate">133312</property>
  <property name="meta.attr.1.stream.language.markup">eng</property>
  <property name="meta.attr.1.stream.handler_name.markup">GoPro AAC  </property>
  <property name="meta.attr.1.stream.vendor_id.markup">[0][0][0][0]</property>
  <property name="meta.attr.major_brand.markup">isom</property>
  <property name="meta.attr.minor_version.markup">512</property>
  <property name="meta.attr.compatible_brands.markup">isomiso2mp41</property>
  <property name="meta.attr.encoder.markup">Lavf59.27.100</property>
  <property name="meta.attr.location-eng.markup">+48.1703+011.5512/</property>
  <property name="meta.attr.location.markup">+48.1703+011.5512/</property>
  <property name="seekable">1</property>
  <property name="meta.media.sample_aspect_num">1</property>
  <property name="meta.media.sample_aspect_den">1</property>
  <property name="aspect_ratio">1</property>
  <property name="format">3</property>
  <property name="kdenlive:clipname"/>
  <property name="meta.media.frame_rate_num">30000</property>
  <property name="meta.media.frame_rate_den">1001</property>
  <property name="meta.media.colorspace">709</property>
  <property name="meta.media.color_trc">1</property>
  <property name="meta.media.has_b_frames">2</property>
  <property name="meta.media.width">1920</property>
  <property name="meta.media.height">1080</property>
  <property name="meta.media.color_range">full</property>
  <property name="meta.media.top_field_first">0</property>
  <property name="meta.media.progressive">1</property>
  <property name="kdenlive:clip_type">0</property>
  <property name="kdenlive:folderid">-1</property>
  <property name="kdenlive:id">3</property>
  <property name="kdenlive:file_size">12786005</property>
  <property name="kdenlive:file_hash">d0c0e3074067448864d11576c8457ca1</property>
  <property name="kdenlive:audio_max1">168</property>
 </producer>
 <producer id="producer2" in="00:00:00.000" out="00:01:07.741">
  <property name="length">2031</property>
  <property name="eof">pause</property>
  <property name="resource">GX010104_lowres.mp4</property>
  <property name="audio_index">1</property>
  <property name="video_index">0</property>
  <property name="mute_on_pause">0</property>
  <property name="mlt_service">avformat-novalidate</property>
  <property name="meta.media.nb_streams">3</property>
  <property name="meta.media.0.stream.type">video</property>
  <property name="meta.media.0.stream.frame_rate">29.97</property>
  <property name="meta.media.0.stream.sample_aspect_ratio">1</property>
  <property name="meta.media.0.codec.width">1920</property>
  <property name="meta.media.0.codec.height">1080</property>
  <property name="meta.media.0.codec.rotate">0</property>
  <property name="meta.media.0.codec.pix_fmt">yuvj420p</property>
  <property name="meta.media.0.codec.sample_aspect_ratio">1</property>
  <property name="meta.media.0.codec.colorspace">709</property>
  <property name="meta.media.0.codec.color_trc">1</property>
  <property name="meta.media.0.codec.name">hevc</property>
  <property name="meta.media.0.codec.long_name">HEVC (High Efficiency Video Coding)</property>
  <property name="meta.media.0.codec.bit_rate">1343877</property>
  <property name="meta.attr.0.stream.language.markup">eng</property>
  <property name="meta.attr.0.stream.handler_name.markup">GoPro H.265</property>
  <property name="meta.attr.0.stream.vendor_id.markup">[0][0][0][0]</property>
  <property name="meta.attr.0.stream.encoder.markup">Lavc59.37.100 libx265</property>
  <property name="meta.attr.0.stream.timecode.markup">17:38:13:01</property>
  <property name="meta.media.1.stream.type">audio</property>
  <property name="meta.media.1.codec.sample_fmt">fltp</property>
  <property name="meta.media.1.codec.sample_rate">48000</property>
  <property name="meta.media.1.codec.channels">2</property>
  <property name="meta.media.1.codec.name">aac</property>
  <property name="meta.media.1.codec.long_name">AAC (Advanced Audio Coding)</property>
  <property name="meta.media.1.codec.bit_rate">134070</property>
  <property name="meta.attr.1.stream.language.markup">eng</property>
  <property name="meta.attr.1.stream.handler_name.markup">GoPro AAC  </property>
  <property name="meta.attr.1.stream.vendor_id.markup">[0][0][0][0]</property>
  <property name="meta.attr.major_brand.markup">isom</property>
  <property name="meta.attr.minor_version.markup">512</property>
  <property name="meta.attr.compatible_brands.markup">isomiso2mp41</property>
  <property name="meta.attr.encoder.markup">Lavf59.27.100</property>
  <property name="meta.attr.location-eng.markup">+48.1703+011.5512/</property>
  <property name="meta.attr.location.markup">+48.1703+011.5512/</property>
  <property name="seekable">1</property>
  <property name="meta.media.sample_aspect_num">1</property>
  <property name="meta.media.sample_aspect_den">1</property>
  <property name="aspect_ratio">1</property>
  <property name="format">3</property>
  <property name="kdenlive:clipname"/>
  <property name="meta.media.frame_rate_num">30000</property>
  <property name="meta.media.frame_rate_den">1001</property>
  <property name="meta.media.colorspace">709</property>
  <property name="meta.media.color_trc">1</property>
  <property name="meta.media.has_b_frames">2</property>
  <property name="meta.media.width">1920</property>
  <property name="meta.media.height">1080</property>
  <property name="meta.media.color_range">full</property>
  <property name="meta.media.top_field_first">0</property>
  <property name="meta.media.progressive">1</property>
  <property name="kdenlive:clip_type">0</property>
  <property name="kdenlive:folderid">-1</property>
  <property name="kdenlive:id">4</property>
  <property name="kdenlive:file_size">12597506</property>
  <property name="kdenlive:file_hash">40e214fb8e4c6ae859dedf5aa8372cc6</property>
  <property name="kdenlive:audio_max1">182</property>
 </producer>
 <producer id="producer3" in="00:00:00.000" out="00:02:40.107">
  <property name="length">4799</property>
  <property name="eof">pause</property>
  <property name="resource">GX010090_lowres.mp4</property>
  <property name="audio_index">1</property>
  <property name="video_index">0</property>
  <property name="mute_on_pause">0</property>
  <property name="mlt_service">avformat-novalidate</property>
  <property name="meta.media.nb_streams">3</property>
  <property name="meta.media.0.stream.type">video</property>
  <property name="meta.media.0.stream.frame_rate">29.97</property>
  <property name="meta.media.0.stream.sample_aspect_ratio">1</property>
  <property name="meta.media.0.codec.width">1920</property>
  <property name="meta.media.0.codec.height">1080</property>
  <property name="meta.media.0.codec.rotate">0</property>
  <property name="meta.media.0.codec.pix_fmt">yuvj420p</property>
  <property name="meta.media.0.codec.sample_aspect_ratio">1</property>
  <property name="meta.media.0.codec.colorspace">709</property>
  <property name="meta.media.0.codec.color_trc">1</property>
  <property name="meta.media.0.codec.name">hevc</property>
  <property name="meta.media.0.codec.long_name">HEVC (High Efficiency Video Coding)</property>
  <property name="meta.media.0.codec.bit_rate">1364353</property>
  <property name="meta.attr.0.stream.language.markup">eng</property>
  <property name="meta.attr.0.stream.handler_name.markup">GoPro H.265</property>
  <property name="meta.attr.0.stream.vendor_id.markup">[0][0][0][0]</property>
  <property name="meta.attr.0.stream.encoder.markup">Lavc59.37.100 libx265</property>
  <property name="meta.attr.0.stream.timecode.markup">17:25:18:24</property>
  <property name="meta.media.1.stream.type">audio</property>
  <property name="meta.media.1.codec.sample_fmt">fltp</property>
  <property name="meta.media.1.codec.sample_rate">48000</property>
  <property name="meta.media.1.codec.channels">2</property>
  <property name="meta.media.1.codec.name">aac</property>
  <property name="meta.media.1.codec.long_name">AAC (Advanced Audio Coding)</property>
  <property name="meta.media.1.codec.bit_rate">134719</property>
  <property name="meta.attr.1.stream.language.markup">eng</property>
  <property name="meta.attr.1.stream.handler_name.markup">GoPro AAC  </property>
  <property name="meta.attr.1.stream.vendor_id.markup">[0][0][0][0]</property>
  <property name="meta.attr.major_brand.markup">isom</property>
  <property name="meta.attr.minor_version.markup">512</property>
  <property name="meta.attr.compatible_brands.markup">isomiso2mp41</property>
  <property name="meta.attr.encoder.markup">Lavf59.27.100</property>
  <property name="meta.attr.location-eng.markup">+48.1703+011.5512/</property>
  <property name="meta.attr.location.markup">+48.1703+011.5512/</property>
  <property name="seekable">1</property>
  <property name="meta.media.sample_aspect_num">1</property>
  <property name="meta.media.sample_aspect_den">1</property>
  <property name="aspect_ratio">1</property>
  <property name="format">3</property>
  <property name="kdenlive:clipname"/>
  <property name="meta.media.frame_rate_num">30000</property>
  <property name="meta.media.frame_rate_den">1001</property>
  <property name="meta.media.colorspace">709</property>
  <property name="meta.media.color_trc">1</property>
  <property name="meta.media.has_b_frames">2</property>
  <property name="meta.media.width">1920</property>
  <property name="meta.media.height">1080</property>
  <property name="meta.media.color_range">full</property>
  <property name="meta.media.top_field_first">0</property>
  <property name="meta.media.progressive">1</property>
  <property name="kdenlive:clip_type">0</property>
  <property name="kdenlive:folderid">-1</property>
  <property name="kdenlive:id">5</property>
  <property name="kdenlive:file_size">30183144</property>
  <property name="kdenlive:file_hash">07cd873aa96f789abf0143f0ad128844</property>
  <property name="kdenlive:audio_max1">180</property>
 </producer>
 <producer id="producer4" in="00:00:00.000" out="00:00:08.742">
  <property name="length">263</property>
  <property name="eof">pause</property>
  <property name="resource">SE100160_logo_orig.png</property>
  <property name="ttl">25</property>
  <property name="aspect_ratio">1</property>
  <property name="progressive">1</property>
  <property name="seekable">1</property>
  <property name="format">2</property>
  <property name="meta.media.width">6009</property>
  <property name="meta.media.height">1853</property>
  <property name="mlt_service">qimage</property>
  <property name="kdenlive:clipname"/>
  <property name="kdenlive:duration">00:00:05.005</property>
  <property name="kdenlive:folderid">-1</property>
  <property name="kdenlive:clip_type">2</property>
  <property name="kdenlive:id">6</property>
  <property name="kdenlive:file_size">1056754</property>
  <property name="kdenlive:file_hash">92e6bcfe013de2abaa3b9b5219fdf699</property>
 </producer>
 <producer id="producer5" in="00:00:00.000" out="00:00:04.972">
  <property name="length">150</property>
  <property name="eof">pause</property>
  <property name="resource"/>
  <property name="progressive">1</property>
  <property name="aspect_ratio">1</property>
  <property name="seekable">1</property>
  <property name="mlt_service">kdenlivetitle</property>
  <property name="kdenlive:duration">150</property>
  <property name="kdenlive:clipname">Recolección</property>
  <property name="xmldata">&lt;kdenlivetitle duration="150" LC_NUMERIC="C" width="1920" height="1080" out="149">
 &lt;item type="QGraphicsTextItem" z-index="0">
  &lt;position x="535" y="423">
   &lt;transform>1,0,0,0,1,0,0,0,1&lt;/transform>
  &lt;/position>
  &lt;content line-spacing="0" shadow="0;#64000000;3;3;3" font-underline="0" box-height="105" font-outline-color="255,255,255,255" font="Azo Sans Bk" letter-spacing="0" font-pixel-size="87" font-italic="0" typewriter="0;2;1;0;0" alignment="1" font-weight="87" font-outline="4" box-width="500.141" font-color="125,30,30,255">Recolección&lt;/content>
 &lt;/item>
 &lt;startviewport rect="0,0,1920,1080"/>
 &lt;endviewport rect="0,0,1920,1080"/>
 &lt;background color="0,0,0,0"/>
&lt;/kdenlivetitle>
</property>
  <property name="kdenlive:folderid">-1</property>
  <property name="kdenlive:clip_type">2</property>
  <property name="kdenlive:id">7</property>
  <property name="kdenlive:file_hash">eae37fc3c412a18abd18ed945a9fdf9a</property>
  <property name="force_reload">0</property>
  <property name="meta.media.width">1920</property>
  <property name="meta.media.height">1080</property>
 </producer>
 <producer id="producer6" in="00:00:00.000" out="00:00:04.972">
  <property name="length">150</property>
  <property name="eof">pause</property>
  <property name="progressive">1</property>
  <property name="aspect_ratio">1</property>
  <property name="seekable">1</property>
  <property name="mlt_service">kdenlivetitle</property>
  <property name="kdenlive:duration">150</property>
  <property name="kdenlive:clipname">Procesado</property>
  <property name="xmldata">&lt;kdenlivetitle duration="150" LC_NUMERIC="C" width="1920" height="1080" out="149">
 &lt;item type="QGraphicsTextItem" z-index="0">
  &lt;position x="535" y="423">
   &lt;transform>1,0,0,0,1,0,0,0,1&lt;/transform>
  &lt;/position>
  &lt;content line-spacing="0" shadow="0;#64000000;3;3;3" font-underline="0" box-height="105" font-outline-color="255,255,255,255" font="Azo Sans Bk" letter-spacing="0" font-pixel-size="87" font-italic="0" typewriter="0;2;1;0;0" alignment="1" font-weight="87" font-outline="4" box-width="440.484" font-color="101,145,44,255">Procesado&lt;/content>
 &lt;/item>
 &lt;startviewport rect="0,0,1920,1080"/>
 &lt;endviewport rect="0,0,1920,1080"/>
 &lt;background color="0,0,0,0"/>
&lt;/kdenlivetitle>
</property>
  <property name="kdenlive:folderid">-1</property>
  <property name="kdenlive:clip_type">2</property>
  <property name="kdenlive:id">8</property>
  <property name="force_reload">0</property>
  <property name="meta.media.width">1920</property>
  <property name="meta.media.height">1080</property>
  <property name="kdenlive:file_hash">7d96baa21ec060eca3fc94055d18a8ad</property>
 </producer>
 <producer id="producer7" in="00:00:00.000" out="00:00:04.972">
  <property name="length">150</property>
  <property name="eof">pause</property>
  <property name="progressive">1</property>
  <property name="aspect_ratio">1</property>
  <property name="seekable">1</property>
  <property name="mlt_service">kdenlivetitle</property>
  <property name="kdenlive:duration">150</property>
  <property name="kdenlive:clipname">Análisis</property>
  <property name="xmldata">&lt;kdenlivetitle duration="150" LC_NUMERIC="C" width="1920" height="1080" out="149">
 &lt;item type="QGraphicsTextItem" z-index="0">
  &lt;position x="535" y="423">
   &lt;transform>1,0,0,0,1,0,0,0,1&lt;/transform>
  &lt;/position>
  &lt;content line-spacing="0" shadow="0;#64000000;3;3;3" font-underline="0" box-height="105" font-outline-color="255,255,255,255" font="Azo Sans" letter-spacing="0" font-pixel-size="87" font-italic="0" typewriter="0;2;1;0;0" alignment="1" font-weight="87" font-outline="4" box-width="337.844" font-color="42,143,136,255">Análisis&lt;/content>
 &lt;/item>
 &lt;startviewport rect="0,0,1920,1080"/>
 &lt;endviewport rect="0,0,1920,1080"/>
 &lt;background color="0,0,0,0"/>
&lt;/kdenlivetitle>
</property>
  <property name="kdenlive:folderid">-1</property>
  <property name="kdenlive:clip_type">2</property>
  <property name="kdenlive:id">9</property>
  <property name="force_reload">0</property>
  <property name="meta.media.width">1920</property>
  <property name="meta.media.height">1080</property>
  <property name="kdenlive:file_hash">298f5623878046e37e2cdeadfc2add79</property>
 </producer>
 <producer id="producer8" in="00:00:00.000" out="00:00:10.611">
  <property name="length">319</property>
  <property name="eof">pause</property>
  <property name="progressive">1</property>
  <property name="aspect_ratio">1</property>
  <property name="seekable">1</property>
  <property name="mlt_service">kdenlivetitle</property>
  <property name="kdenlive:duration">150</property>
  <property name="kdenlive:clipname">Cargado diná...</property>
  <property name="xmldata">&lt;kdenlivetitle duration="150" LC_NUMERIC="C" width="1920" height="1080" out="149">
 &lt;item type="QGraphicsTextItem" z-index="0">
  &lt;position x="98" y="56">
   &lt;transform>1,0,0,0,1,0,0,0,1&lt;/transform>
  &lt;/position>
  &lt;content line-spacing="0" shadow="0;#64000000;3;3;3" font-underline="0" box-height="540" font-outline-color="255,255,255,255" font="Azo Sans Bk" letter-spacing="0" font-pixel-size="75" font-italic="0" typewriter="0;2;1;0;0" alignment="1" font-weight="87" font-outline="4" box-width="761.703" font-color="0,0,0,255">Cargado dinámico de
plugins en Rust
en ausencia de
estabilidad en la
Interfaz Binaria
de Aplicación&lt;/content>
 &lt;/item>
 &lt;startviewport rect="0,0,1920,1080"/>
 &lt;endviewport rect="0,0,1920,1080"/>
 &lt;background color="0,0,0,0"/>
&lt;/kdenlivetitle>
</property>
  <property name="kdenlive:folderid">-1</property>
  <property name="kdenlive:clip_type">2</property>
  <property name="kdenlive:id">10</property>
  <property name="force_reload">0</property>
  <property name="meta.media.width">1920</property>
  <property name="meta.media.height">1080</property>
  <property name="kdenlive:file_hash">7034bf77d6ab10e191c2be1e16a36be7</property>
 </producer>
 <producer id="producer9" in="00:00:00.000" out="00:00:04.972">
  <property name="length">00:00:05.005</property>
  <property name="eof">pause</property>
  <property name="resource">eii.png</property>
  <property name="ttl">25</property>
  <property name="aspect_ratio">1</property>
  <property name="progressive">1</property>
  <property name="seekable">1</property>
  <property name="format">2</property>
  <property name="meta.media.width">926</property>
  <property name="meta.media.height">387</property>
  <property name="mlt_service">qimage</property>
  <property name="kdenlive:clipname"/>
  <property name="kdenlive:duration">00:00:05.005</property>
  <property name="kdenlive:folderid">-1</property>
  <property name="kdenlive:clip_type">2</property>
  <property name="kdenlive:id">11</property>
  <property name="kdenlive:file_size">304317</property>
  <property name="kdenlive:file_hash">afc7dc1a94af8084f63306b2eabc044a</property>
 </producer>
 <producer id="producer10" in="00:00:00.000" out="00:00:04.972">
  <property name="length">00:00:05.005</property>
  <property name="eof">pause</property>
  <property name="resource">ISS-2011.webp</property>
  <property name="audio_index">-1</property>
  <property name="video_index">0</property>
  <property name="mute_on_pause">0</property>
  <property name="mlt_service">avformat-novalidate</property>
  <property name="meta.media.nb_streams">1</property>
  <property name="meta.media.0.stream.type">video</property>
  <property name="meta.media.0.stream.frame_rate">25</property>
  <property name="meta.media.0.stream.sample_aspect_ratio">0</property>
  <property name="meta.media.0.codec.width">896</property>
  <property name="meta.media.0.codec.height">357</property>
  <property name="meta.media.0.codec.rotate">0</property>
  <property name="meta.media.0.codec.pix_fmt">yuva420p</property>
  <property name="meta.media.0.codec.sample_aspect_ratio">0</property>
  <property name="meta.media.0.codec.colorspace">601</property>
  <property name="meta.media.0.codec.name">webp</property>
  <property name="meta.media.0.codec.long_name">WebP image</property>
  <property name="meta.media.0.codec.bit_rate">0</property>
  <property name="seekable">1</property>
  <property name="meta.media.sample_aspect_num">1</property>
  <property name="meta.media.sample_aspect_den">1</property>
  <property name="aspect_ratio">1</property>
  <property name="format">3</property>
  <property name="kdenlive:clipname"/>
  <property name="kdenlive:duration">00:00:05.005</property>
  <property name="meta.media.frame_rate_num">25</property>
  <property name="meta.media.frame_rate_den">1</property>
  <property name="meta.media.colorspace">601</property>
  <property name="meta.media.color_trc">2</property>
  <property name="meta.media.has_b_frames">0</property>
  <property name="meta.media.width">896</property>
  <property name="meta.media.height">357</property>
  <property name="meta.media.color_range">mpeg</property>
  <property name="meta.media.top_field_first">0</property>
  <property name="meta.media.progressive">1</property>
  <property name="kdenlive:clip_type">2</property>
  <property name="kdenlive:folderid">-1</property>
  <property name="kdenlive:id">12</property>
  <property name="kdenlive:file_size">55124</property>
  <property name="kdenlive:file_hash">2c186ee0356a9a87f79ab4a384ad6cf6</property>
 </producer>
 <producer id="producer11" in="00:00:00.000" out="00:00:04.972">
  <property name="length">00:00:05.005</property>
  <property name="eof">pause</property>
  <property name="resource">ISS-2011.png</property>
  <property name="ttl">25</property>
  <property name="aspect_ratio">1</property>
  <property name="progressive">1</property>
  <property name="seekable">1</property>
  <property name="format">2</property>
  <property name="meta.media.width">896</property>
  <property name="meta.media.height">357</property>
  <property name="mlt_service">qimage</property>
  <property name="kdenlive:clipname"/>
  <property name="kdenlive:duration">00:00:05.005</property>
  <property name="kdenlive:folderid">-1</property>
  <property name="kdenlive:clip_type">2</property>
  <property name="kdenlive:id">13</property>
  <property name="kdenlive:file_size">291124</property>
  <property name="kdenlive:file_hash">fa23c0a96df1ba77ed46da84c8742be9</property>
 </producer>
 <producer id="producer12" in="00:00:00.000" out="00:00:12.513">
  <property name="length">376</property>
  <property name="eof">pause</property>
  <property name="resource">rust_border.png</property>
  <property name="ttl">25</property>
  <property name="aspect_ratio">1</property>
  <property name="progressive">1</property>
  <property name="seekable">1</property>
  <property name="format">2</property>
  <property name="meta.media.width">2173</property>
  <property name="meta.media.height">2173</property>
  <property name="mlt_service">qimage</property>
  <property name="kdenlive:clipname"/>
  <property name="kdenlive:duration">00:00:05.005</property>
  <property name="kdenlive:folderid">-1</property>
  <property name="kdenlive:clip_type">2</property>
  <property name="kdenlive:id">14</property>
  <property name="kdenlive:file_size">655199</property>
  <property name="kdenlive:file_hash">e8399be99b4ad5f5767e2e002ec1a3b4</property>
 </producer>
 <producer id="producer13" in="00:00:00.000" out="00:00:12.513">
  <property name="length">376</property>
  <property name="eof">pause</property>
  <property name="progressive">1</property>
  <property name="aspect_ratio">1</property>
  <property name="seekable">1</property>
  <property name="mlt_service">kdenlivetitle</property>
  <property name="kdenlive:duration">150</property>
  <property name="kdenlive:clipname">Rust</property>
  <property name="xmldata">&lt;kdenlivetitle duration="150" LC_NUMERIC="C" width="1920" height="1080" out="149">
 &lt;item type="QGraphicsTextItem" z-index="1">
  &lt;position x="453" y="516">
   &lt;transform>1,0,0,0,1,0,0,0,1&lt;/transform>
  &lt;/position>
  &lt;content line-spacing="0" shadow="0;#64000000;3;3;3" font-underline="0" box-height="130" font-outline-color="255,255,255,255" font="Azo Sans" letter-spacing="0" font-pixel-size="54" font-italic="1" typewriter="0;2;1;0;0" alignment="4" font-weight="87" font-outline="3" box-width="373.469" font-color="163,96,47,255">Lenguaje de
programación&lt;/content>
 &lt;/item>
 &lt;item type="QGraphicsTextItem" z-index="0">
  &lt;position x="535" y="423">
   &lt;transform>1,0,0,0,1,0,0,0,1&lt;/transform>
  &lt;/position>
  &lt;content line-spacing="0" shadow="0;#64000000;3;3;3" font-underline="0" box-height="105" font-outline-color="255,255,255,255" font="Azo Sans" letter-spacing="0" font-pixel-size="87" font-italic="0" typewriter="0;2;1;0;0" alignment="1" font-weight="87" font-outline="4" box-width="191.109" font-color="163,96,47,255">Rust&lt;/content>
 &lt;/item>
 &lt;startviewport rect="0,0,1920,1080"/>
 &lt;endviewport rect="0,0,1920,1080"/>
 &lt;background color="0,0,0,0"/>
&lt;/kdenlivetitle>
</property>
  <property name="kdenlive:folderid">-1</property>
  <property name="kdenlive:clip_type">2</property>
  <property name="kdenlive:id">15</property>
  <property name="force_reload">0</property>
  <property name="meta.media.width">1920</property>
  <property name="meta.media.height">1080</property>
  <property name="kdenlive:file_hash">390fd2681531c47d4bc05b04bdcb3f3d</property>
 </producer>
 <producer id="producer14" in="00:00:00.000" out="00:00:13.914">
  <property name="length">418</property>
  <property name="eof">pause</property>
  <property name="resource">my-image.png</property>
  <property name="ttl">25</property>
  <property name="aspect_ratio">1</property>
  <property name="progressive">1</property>
  <property name="seekable">1</property>
  <property name="format">2</property>
  <property name="meta.media.width">4293</property>
  <property name="meta.media.height">1862</property>
  <property name="mlt_service">qimage</property>
  <property name="kdenlive:clipname"/>
  <property name="kdenlive:duration">00:00:05.005</property>
  <property name="kdenlive:folderid">-1</property>
  <property name="kdenlive:clip_type">2</property>
  <property name="kdenlive:id">16</property>
  <property name="kdenlive:file_size">588819</property>
  <property name="kdenlive:file_hash">69eda52e87b63ba5448565297e39b0fb</property>
 </producer>
 <producer id="producer15" in="00:00:00.000" out="00:00:13.914">
  <property name="length">418</property>
  <property name="eof">pause</property>
  <property name="progressive">1</property>
  <property name="aspect_ratio">1</property>
  <property name="seekable">1</property>
  <property name="mlt_service">kdenlivetitle</property>
  <property name="kdenlive:duration">150</property>
  <property name="kdenlive:clipname">Crearon la h...</property>
  <property name="xmldata">&lt;kdenlivetitle duration="150" LC_NUMERIC="C" width="1920" height="1080" out="149">
 &lt;item type="QGraphicsTextItem" z-index="0">
  &lt;position x="680" y="423">
   &lt;transform>1,0,0,0,1,0,0,0,1&lt;/transform>
  &lt;/position>
  &lt;content line-spacing="0" shadow="0;#64000000;3;3;3" font-underline="0" box-height="312" font-outline-color="255,255,255,255" font="Azo Sans" letter-spacing="0" font-pixel-size="87" font-italic="0" typewriter="0;2;1;0;0" alignment="2" font-weight="87" font-outline="4" box-width="560.625" font-color="57,83,164,255">Crearon la
herramienta
de procesado&lt;/content>
 &lt;/item>
 &lt;startviewport rect="0,0,1920,1080"/>
 &lt;endviewport rect="0,0,1920,1080"/>
 &lt;background color="0,0,0,0"/>
&lt;/kdenlivetitle>
</property>
  <property name="kdenlive:folderid">-1</property>
  <property name="kdenlive:clip_type">2</property>
  <property name="kdenlive:id">17</property>
  <property name="force_reload">0</property>
  <property name="meta.media.width">1920</property>
  <property name="meta.media.height">1080</property>
  <property name="kdenlive:file_hash">7b55ff947bac1238f68a568a97425e89</property>
 </producer>
 <producer id="producer16" in="00:00:00.000" out="00:00:04.972">
  <property name="length">00:00:05.005</property>
  <property name="eof">pause</property>
  <property name="resource">gear.png</property>
  <property name="ttl">25</property>
  <property name="aspect_ratio">1</property>
  <property name="progressive">1</property>
  <property name="seekable">1</property>
  <property name="format">2</property>
  <property name="meta.media.width">562</property>
  <property name="meta.media.height">562</property>
  <property name="mlt_service">qimage</property>
  <property name="kdenlive:clipname"/>
  <property name="kdenlive:duration">00:00:05.005</property>
  <property name="kdenlive:folderid">-1</property>
  <property name="kdenlive:clip_type">2</property>
  <property name="kdenlive:id">18</property>
  <property name="kdenlive:file_size">65831</property>
  <property name="kdenlive:file_hash">8e29539b12714a80f0780a172444f71b</property>
 </producer>
 <producer id="producer17" in="00:00:00.000" out="00:00:04.972">
  <property name="length">00:00:05.005</property>
  <property name="eof">pause</property>
  <property name="resource">shopping.png</property>
  <property name="ttl">25</property>
  <property name="aspect_ratio">1</property>
  <property name="progressive">1</property>
  <property name="seekable">1</property>
  <property name="format">2</property>
  <property name="meta.media.width">562</property>
  <property name="meta.media.height">562</property>
  <property name="mlt_service">qimage</property>
  <property name="kdenlive:clipname"/>
  <property name="kdenlive:duration">00:00:05.005</property>
  <property name="kdenlive:folderid">-1</property>
  <property name="kdenlive:clip_type">2</property>
  <property name="kdenlive:id">19</property>
  <property name="kdenlive:file_size">55721</property>
  <property name="kdenlive:file_hash">e6c7901600685be15e376ec30fa8986d</property>
 </producer>
 <producer id="producer18" in="00:00:00.000" out="00:00:15.148">
  <property name="length">455</property>
  <property name="eof">pause</property>
  <property name="resource">yt5s.io - Airplane -Sound Effect (HD) (320 kbps).mp3</property>
  <property name="meta.media.nb_streams">1</property>
  <property name="meta.media.0.stream.type">audio</property>
  <property name="meta.media.0.codec.sample_fmt">fltp</property>
  <property name="meta.media.0.codec.sample_rate">44100</property>
  <property name="meta.media.0.codec.channels">2</property>
  <property name="meta.media.0.codec.name">mp3float</property>
  <property name="meta.media.0.codec.long_name">MP3 (MPEG audio layer 3)</property>
  <property name="meta.media.0.codec.bit_rate">320000</property>
  <property name="meta.attr.major_brand.markup">dash</property>
  <property name="meta.attr.minor_version.markup">0</property>
  <property name="meta.attr.compatible_brands.markup">iso6mp41</property>
  <property name="meta.attr.encoder.markup">Lavf58.45.100</property>
  <property name="seekable">1</property>
  <property name="audio_index">0</property>
  <property name="video_index">-1</property>
  <property name="mute_on_pause">1</property>
  <property name="mlt_service">avformat</property>
  <property name="kdenlive:clipname"/>
  <property name="kdenlive:clip_type">1</property>
  <property name="kdenlive:folderid">-1</property>
  <property name="kdenlive:id">20</property>
  <property name="kdenlive:file_size">607225</property>
  <property name="kdenlive:file_hash">473f5a63a1b77860f2f479f77697fe81</property>
  <property name="kdenlive:audio_max0">166</property>
 </producer>
 <producer id="producer19" in="00:00:00.000" out="00:00:12.980">
  <property name="length">390</property>
  <property name="eof">pause</property>
  <property name="resource">person_border.png</property>
  <property name="ttl">25</property>
  <property name="aspect_ratio">1</property>
  <property name="progressive">1</property>
  <property name="seekable">1</property>
  <property name="format">2</property>
  <property name="meta.media.width">153</property>
  <property name="meta.media.height">153</property>
  <property name="mlt_service">qimage</property>
  <property name="kdenlive:clipname"/>
  <property name="kdenlive:duration">00:00:05.005</property>
  <property name="kdenlive:folderid">-1</property>
  <property name="kdenlive:clip_type">2</property>
  <property name="kdenlive:id">21</property>
  <property name="kdenlive:file_size">24130</property>
  <property name="kdenlive:file_hash">97cd99c95e64ce70fc2338aa9c66299b</property>
 </producer>
 <producer id="producer20" in="00:00:00.000" out="00:00:06.139">
  <property name="length">185</property>
  <property name="eof">pause</property>
  <property name="resource">robot_border.png</property>
  <property name="ttl">25</property>
  <property name="aspect_ratio">1</property>
  <property name="progressive">1</property>
  <property name="seekable">1</property>
  <property name="format">2</property>
  <property name="meta.media.width">153</property>
  <property name="meta.media.height">153</property>
  <property name="mlt_service">qimage</property>
  <property name="kdenlive:clipname"/>
  <property name="kdenlive:duration">00:00:05.005</property>
  <property name="kdenlive:folderid">-1</property>
  <property name="kdenlive:clip_type">2</property>
  <property name="kdenlive:id">22</property>
  <property name="kdenlive:file_size">15810</property>
  <property name="kdenlive:file_hash">38fd1871a44933a2d88715755d8caed5</property>
 </producer>
 <producer id="producer21" in="00:00:00.000" out="00:00:08.175">
  <property name="length">246</property>
  <property name="eof">pause</property>
  <property name="resource">speaker_ok.png</property>
  <property name="ttl">25</property>
  <property name="aspect_ratio">1</property>
  <property name="progressive">1</property>
  <property name="seekable">1</property>
  <property name="format">2</property>
  <property name="meta.media.width">153</property>
  <property name="meta.media.height">153</property>
  <property name="mlt_service">qimage</property>
  <property name="kdenlive:clipname"/>
  <property name="kdenlive:duration">00:00:05.005</property>
  <property name="kdenlive:folderid">-1</property>
  <property name="kdenlive:clip_type">2</property>
  <property name="kdenlive:id">23</property>
  <property name="kdenlive:file_size">16097</property>
  <property name="kdenlive:file_hash">7b1424a3a934124db890459d919bd662</property>
 </producer>
 <producer id="producer22" in="00:00:00.000" out="00:00:04.972">
  <property name="length">00:00:05.005</property>
  <property name="eof">pause</property>
  <property name="resource">thumb_ok.png</property>
  <property name="ttl">25</property>
  <property name="aspect_ratio">1</property>
  <property name="progressive">1</property>
  <property name="seekable">1</property>
  <property name="format">2</property>
  <property name="meta.media.width">153</property>
  <property name="meta.media.height">153</property>
  <property name="mlt_service">qimage</property>
  <property name="kdenlive:clipname"/>
  <property name="kdenlive:duration">00:00:05.005</property>
  <property name="kdenlive:folderid">-1</property>
  <property name="kdenlive:clip_type">2</property>
  <property name="kdenlive:id">24</property>
  <property name="kdenlive:file_size">19960</property>
  <property name="kdenlive:file_hash">584cd0918a94fabdd9a22c19032a95d3</property>
 </producer>
 <producer id="producer23" in="00:00:00.000" out="00:00:12.312">
  <property name="length">370</property>
  <property name="eof">pause</property>
  <property name="resource">arrow_ok.png</property>
  <property name="ttl">25</property>
  <property name="aspect_ratio">1</property>
  <property name="progressive">1</property>
  <property name="seekable">1</property>
  <property name="format">2</property>
  <property name="meta.media.width">153</property>
  <property name="meta.media.height">153</property>
  <property name="mlt_service">qimage</property>
  <property name="kdenlive:clipname"/>
  <property name="kdenlive:duration">00:00:05.005</property>
  <property name="kdenlive:folderid">-1</property>
  <property name="kdenlive:clip_type">2</property>
  <property name="kdenlive:id">25</property>
  <property name="kdenlive:file_size">7694</property>
  <property name="kdenlive:file_hash">3a5db5ea76e6f965179f91eba6dcc698</property>
 </producer>
 <producer id="producer24" in="00:00:00.000" out="00:00:07.641">
  <property name="length">230</property>
  <property name="eof">pause</property>
  <property name="resource">arrow_ok.png</property>
  <property name="ttl">25</property>
  <property name="aspect_ratio">1</property>
  <property name="progressive">1</property>
  <property name="seekable">1</property>
  <property name="format">2</property>
  <property name="meta.media.width">153</property>
  <property name="meta.media.height">153</property>
  <property name="mlt_service">qimage</property>
  <property name="kdenlive:clipname"/>
  <property name="kdenlive:duration">00:00:05.005</property>
  <property name="kdenlive:folderid">-1</property>
  <property name="kdenlive:clip_type">2</property>
  <property name="kdenlive:id">26</property>
  <property name="kdenlive:file_size">7694</property>
  <property name="kdenlive:file_hash">3a5db5ea76e6f965179f91eba6dcc698</property>
 </producer>
 <producer id="producer25" in="00:00:00.000" out="00:00:30.197">
  <property name="length">906</property>
  <property name="eof">pause</property>
  <property name="resource">folder_ok.png</property>
  <property name="ttl">25</property>
  <property name="aspect_ratio">1</property>
  <property name="progressive">1</property>
  <property name="seekable">1</property>
  <property name="format">2</property>
  <property name="meta.media.width">153</property>
  <property name="meta.media.height">153</property>
  <property name="mlt_service">qimage</property>
  <property name="kdenlive:clipname"/>
  <property name="kdenlive:duration">00:00:05.005</property>
  <property name="kdenlive:folderid">-1</property>
  <property name="kdenlive:clip_type">2</property>
  <property name="kdenlive:id">27</property>
  <property name="kdenlive:file_size">11526</property>
  <property name="kdenlive:file_hash">7324b1d651a1ea8f76d7c08a2dc1c6a3</property>
 </producer>
 <producer id="producer26" in="00:00:00.000" out="00:00:20.554">
  <property name="length">617</property>
  <property name="eof">pause</property>
  <property name="progressive">1</property>
  <property name="aspect_ratio">1</property>
  <property name="seekable">1</property>
  <property name="mlt_service">kdenlivetitle</property>
  <property name="kdenlive:duration">150</property>
  <property name="kdenlive:clipname">tremor.exe</property>
  <property name="xmldata">&lt;kdenlivetitle duration="150" LC_NUMERIC="C" width="1920" height="1080" out="149">
 &lt;item type="QGraphicsTextItem" z-index="0">
  &lt;position x="535" y="423">
   &lt;transform>1,0,0,0,1,0,0,0,1&lt;/transform>
  &lt;/position>
  &lt;content line-spacing="0" shadow="0;#64000000;3;3;3" font-underline="0" box-height="105" font-outline-color="255,255,255,255" font="Azo Sans" letter-spacing="0" font-pixel-size="87" font-italic="0" typewriter="0;2;1;0;0" alignment="1" font-weight="87" font-outline="4" box-width="693.297" font-color="0,0,0,255">tremor_core.exe&lt;/content>
 &lt;/item>
 &lt;startviewport rect="0,0,1920,1080"/>
 &lt;endviewport rect="0,0,1920,1080"/>
 &lt;background color="0,0,0,0"/>
&lt;/kdenlivetitle>
</property>
  <property name="kdenlive:folderid">-1</property>
  <property name="kdenlive:clip_type">2</property>
  <property name="kdenlive:id">28</property>
  <property name="force_reload">0</property>
  <property name="meta.media.width">1920</property>
  <property name="meta.media.height">1080</property>
  <property name="kdenlive:file_hash">8a9fbb2cef6dd70272d674add6e3ae12</property>
 </producer>
 <producer id="producer27" in="00:00:00.000" out="00:00:11.078">
  <property name="length">333</property>
  <property name="eof">pause</property>
  <property name="progressive">1</property>
  <property name="aspect_ratio">1</property>
  <property name="seekable">1</property>
  <property name="mlt_service">kdenlivetitle</property>
  <property name="kdenlive:duration">150</property>
  <property name="kdenlive:clipname">tremor/</property>
  <property name="xmldata">&lt;kdenlivetitle duration="150" LC_NUMERIC="C" width="1920" height="1080" out="149">
 &lt;item type="QGraphicsTextItem" z-index="0">
  &lt;position x="535" y="423">
   &lt;transform>1,0,0,0,1,0,0,0,1&lt;/transform>
  &lt;/position>
  &lt;content line-spacing="0" shadow="0;#64000000;3;3;3" font-underline="0" box-height="105" font-outline-color="255,255,255,255" font="Azo Sans" letter-spacing="0" font-pixel-size="87" font-italic="0" typewriter="0;2;1;0;0" alignment="1" font-weight="87" font-outline="4" box-width="339.047" font-color="0,0,0,255">tremor/&lt;/content>
 &lt;/item>
 &lt;startviewport rect="0,0,1920,1080"/>
 &lt;endviewport rect="0,0,1920,1080"/>
 &lt;background color="0,0,0,0"/>
&lt;/kdenlivetitle>
</property>
  <property name="kdenlive:folderid">-1</property>
  <property name="kdenlive:clip_type">2</property>
  <property name="kdenlive:id">29</property>
  <property name="force_reload">0</property>
  <property name="meta.media.width">1920</property>
  <property name="meta.media.height">1080</property>
  <property name="kdenlive:file_hash">ba9447f582a308df9a1337f225c3e68c</property>
 </producer>
 <producer id="producer28" in="00:00:00.000" out="00:00:26.426">
  <property name="length">793</property>
  <property name="eof">pause</property>
  <property name="progressive">1</property>
  <property name="aspect_ratio">1</property>
  <property name="seekable">1</property>
  <property name="mlt_service">kdenlivetitle</property>
  <property name="kdenlive:duration">150</property>
  <property name="kdenlive:clipname">tremor_lang/</property>
  <property name="xmldata">&lt;kdenlivetitle duration="150" LC_NUMERIC="C" width="1920" height="1080" out="149">
 &lt;item type="QGraphicsTextItem" z-index="0">
  &lt;position x="535" y="423">
   &lt;transform>1,0,0,0,1,0,0,0,1&lt;/transform>
  &lt;/position>
  &lt;content line-spacing="0" shadow="0;#64000000;3;3;3" font-underline="0" box-height="105" font-outline-color="255,255,255,255" font="Azo Sans" letter-spacing="0" font-pixel-size="87" font-italic="0" typewriter="0;2;1;0;0" alignment="1" font-weight="87" font-outline="4" box-width="566.516" font-color="0,0,0,255">tremor_lang/&lt;/content>
 &lt;/item>
 &lt;startviewport rect="0,0,1920,1080"/>
 &lt;endviewport rect="0,0,1920,1080"/>
 &lt;background color="0,0,0,0"/>
&lt;/kdenlivetitle>
</property>
  <property name="kdenlive:folderid">-1</property>
  <property name="kdenlive:clip_type">2</property>
  <property name="kdenlive:id">30</property>
  <property name="force_reload">0</property>
  <property name="meta.media.width">1920</property>
  <property name="meta.media.height">1080</property>
  <property name="kdenlive:file_hash">9fcd3f89d46d4d59b20359393af46aba</property>
 </producer>
 <producer id="producer29" in="00:00:00.000" out="00:00:26.426">
  <property name="length">793</property>
  <property name="eof">pause</property>
  <property name="progressive">1</property>
  <property name="aspect_ratio">1</property>
  <property name="seekable">1</property>
  <property name="mlt_service">kdenlivetitle</property>
  <property name="kdenlive:duration">150</property>
  <property name="kdenlive:clipname">tremor_ui/</property>
  <property name="xmldata">&lt;kdenlivetitle duration="150" LC_NUMERIC="C" width="1920" height="1080" out="149">
 &lt;item type="QGraphicsTextItem" z-index="0">
  &lt;position x="535" y="423">
   &lt;transform>1,0,0,0,1,0,0,0,1&lt;/transform>
  &lt;/position>
  &lt;content line-spacing="0" shadow="0;#64000000;3;3;3" font-underline="0" box-height="105" font-outline-color="255,255,255,255" font="Azo Sans" letter-spacing="0" font-pixel-size="87" font-italic="0" typewriter="0;2;1;0;0" alignment="1" font-weight="87" font-outline="4" box-width="563.125" font-color="0,0,0,255">tremor_json/&lt;/content>
 &lt;/item>
 &lt;startviewport rect="0,0,1920,1080"/>
 &lt;endviewport rect="0,0,1920,1080"/>
 &lt;background color="0,0,0,0"/>
&lt;/kdenlivetitle>
</property>
  <property name="kdenlive:folderid">-1</property>
  <property name="kdenlive:clip_type">2</property>
  <property name="kdenlive:id">31</property>
  <property name="force_reload">0</property>
  <property name="meta.media.width">1920</property>
  <property name="meta.media.height">1080</property>
  <property name="kdenlive:file_hash">43cb6d776a7113c48edbc57be49f3330</property>
 </producer>
 <producer id="producer30" in="00:00:00.000" out="00:00:26.426">
  <property name="length">793</property>
  <property name="eof">pause</property>
  <property name="progressive">1</property>
  <property name="aspect_ratio">1</property>
  <property name="seekable">1</property>
  <property name="mlt_service">kdenlivetitle</property>
  <property name="kdenlive:duration">150</property>
  <property name="kdenlive:clipname">tremor_kafka...</property>
  <property name="xmldata">&lt;kdenlivetitle duration="150" LC_NUMERIC="C" width="1920" height="1080" out="149">
 &lt;item type="QGraphicsTextItem" z-index="0">
  &lt;position x="535" y="423">
   &lt;transform>1,0,0,0,1,0,0,0,1&lt;/transform>
  &lt;/position>
  &lt;content line-spacing="0" shadow="0;#64000000;3;3;3" font-underline="0" box-height="105" font-outline-color="255,255,255,255" font="Azo Sans" letter-spacing="0" font-pixel-size="87" font-italic="0" typewriter="0;2;1;0;0" alignment="1" font-weight="87" font-outline="4" box-width="621.047" font-color="0,0,0,255">tremor_kafka/&lt;/content>
 &lt;/item>
 &lt;startviewport rect="0,0,1920,1080"/>
 &lt;endviewport rect="0,0,1920,1080"/>
 &lt;background color="0,0,0,0"/>
&lt;/kdenlivetitle>
</property>
  <property name="kdenlive:folderid">-1</property>
  <property name="kdenlive:clip_type">2</property>
  <property name="kdenlive:id">32</property>
  <property name="force_reload">0</property>
  <property name="meta.media.width">1920</property>
  <property name="meta.media.height">1080</property>
  <property name="kdenlive:file_hash">a7b9c72e8a19029dce5333fa1b0a8352</property>
 </producer>
 <producer id="producer31" in="00:00:00.000" out="00:00:26.426">
  <property name="length">793</property>
  <property name="eof">pause</property>
  <property name="progressive">1</property>
  <property name="aspect_ratio">1</property>
  <property name="seekable">1</property>
  <property name="mlt_service">kdenlivetitle</property>
  <property name="kdenlive:duration">150</property>
  <property name="kdenlive:clipname">tremor_redis...</property>
  <property name="xmldata">&lt;kdenlivetitle duration="150" LC_NUMERIC="C" width="1920" height="1080" out="149">
 &lt;item type="QGraphicsTextItem" z-index="0">
  &lt;position x="535" y="423">
   &lt;transform>1,0,0,0,1,0,0,0,1&lt;/transform>
  &lt;/position>
  &lt;content line-spacing="0" shadow="0;#64000000;3;3;3" font-underline="0" box-height="105" font-outline-color="255,255,255,255" font="Azo Sans" letter-spacing="0" font-pixel-size="87" font-italic="0" typewriter="0;2;1;0;0" alignment="1" font-weight="87" font-outline="4" box-width="596.016" font-color="0,0,0,255">tremor_redis/&lt;/content>
 &lt;/item>
 &lt;startviewport rect="0,0,1920,1080"/>
 &lt;endviewport rect="0,0,1920,1080"/>
 &lt;background color="0,0,0,0"/>
&lt;/kdenlivetitle>
</property>
  <property name="kdenlive:folderid">-1</property>
  <property name="kdenlive:clip_type">2</property>
  <property name="kdenlive:id">33</property>
  <property name="force_reload">0</property>
  <property name="meta.media.width">1920</property>
  <property name="meta.media.height">1080</property>
  <property name="kdenlive:file_hash">80e8f0f6a40d0940c9ee880e5337a033</property>
 </producer>
 <producer id="producer32" in="00:00:00.000" out="00:00:11.078">
  <property name="length">333</property>
  <property name="eof">pause</property>
  <property name="progressive">1</property>
  <property name="aspect_ratio">1</property>
  <property name="seekable">1</property>
  <property name="mlt_service">kdenlivetitle</property>
  <property name="kdenlive:duration">150</property>
  <property name="kdenlive:clipname">tremor_core/</property>
  <property name="xmldata">&lt;kdenlivetitle duration="150" LC_NUMERIC="C" width="1920" height="1080" out="149">
 &lt;item type="QGraphicsTextItem" z-index="0">
  &lt;position x="535" y="423">
   &lt;transform>1,0,0,0,1,0,0,0,1&lt;/transform>
  &lt;/position>
  &lt;content line-spacing="0" shadow="0;#64000000;3;3;3" font-underline="0" box-height="105" font-outline-color="255,255,255,255" font="Azo Sans" letter-spacing="0" font-pixel-size="87" font-italic="0" typewriter="0;2;1;0;0" alignment="1" font-weight="87" font-outline="4" box-width="565.375" font-color="0,0,0,255">tremor_core/&lt;/content>
 &lt;/item>
 &lt;startviewport rect="0,0,1920,1080"/>
 &lt;endviewport rect="0,0,1920,1080"/>
 &lt;background color="0,0,0,0"/>
&lt;/kdenlivetitle>
</property>
  <property name="kdenlive:folderid">-1</property>
  <property name="kdenlive:clip_type">2</property>
  <property name="kdenlive:id">34</property>
  <property name="force_reload">0</property>
  <property name="meta.media.width">1920</property>
  <property name="meta.media.height">1080</property>
  <property name="kdenlive:file_hash">86cdafbca8aaeb24dc9b2a5a96f35227</property>
 </producer>
 <producer id="producer33" in="00:00:00.000" out="00:00:19.486">
  <property name="length">585</property>
  <property name="eof">pause</property>
  <property name="resource">disk_ok.png</property>
  <property name="ttl">25</property>
  <property name="aspect_ratio">1</property>
  <property name="progressive">1</property>
  <property name="seekable">1</property>
  <property name="format">2</property>
  <property name="meta.media.width">145</property>
  <property name="meta.media.height">145</property>
  <property name="mlt_service">qimage</property>
  <property name="kdenlive:clipname"/>
  <property name="kdenlive:duration">00:00:05.005</property>
  <property name="kdenlive:folderid">-1</property>
  <property name="kdenlive:clip_type">2</property>
  <property name="kdenlive:id">35</property>
  <property name="kdenlive:file_size">17699</property>
  <property name="kdenlive:file_hash">d5c20185617c537844573eefb92ead7a</property>
 </producer>
 <producer id="producer34" in="00:00:00.000" out="00:00:26.426">
  <property name="length">793</property>
  <property name="eof">pause</property>
  <property name="progressive">1</property>
  <property name="aspect_ratio">1</property>
  <property name="seekable">1</property>
  <property name="mlt_service">kdenlivetitle</property>
  <property name="kdenlive:duration">150</property>
  <property name="kdenlive:clipname">tremor_kafka...</property>
  <property name="xmldata">&lt;kdenlivetitle duration="150" LC_NUMERIC="C" width="1920" height="1080" out="149">
 &lt;item type="QGraphicsTextItem" z-index="0">
  &lt;position x="535" y="423">
   &lt;transform>1,0,0,0,1,0,0,0,1&lt;/transform>
  &lt;/position>
  &lt;content line-spacing="0" shadow="0;#64000000;3;3;3" font-underline="0" box-height="105" font-outline-color="255,255,255,255" font="Azo Sans" letter-spacing="0" font-pixel-size="87" font-italic="0" typewriter="0;2;1;0;0" alignment="1" font-weight="87" font-outline="4" box-width="711.625" font-color="0,0,0,255">tremor_kafka.dll&lt;/content>
 &lt;/item>
 &lt;startviewport rect="0,0,1920,1080"/>
 &lt;endviewport rect="0,0,1920,1080"/>
 &lt;background color="0,0,0,0"/>
&lt;/kdenlivetitle>
</property>
  <property name="kdenlive:folderid">-1</property>
  <property name="kdenlive:clip_type">2</property>
  <property name="kdenlive:id">36</property>
  <property name="force_reload">0</property>
  <property name="meta.media.width">1920</property>
  <property name="meta.media.height">1080</property>
  <property name="kdenlive:file_hash">85e1f5f78570caf2a0bde452a8098974</property>
 </producer>
 <producer id="producer35" in="00:00:00.000" out="00:00:26.426">
  <property name="length">793</property>
  <property name="eof">pause</property>
  <property name="progressive">1</property>
  <property name="aspect_ratio">1</property>
  <property name="seekable">1</property>
  <property name="mlt_service">kdenlivetitle</property>
  <property name="kdenlive:duration">150</property>
  <property name="kdenlive:clipname">tremor_lang....</property>
  <property name="xmldata">&lt;kdenlivetitle duration="150" LC_NUMERIC="C" width="1920" height="1080" out="149">
 &lt;item type="QGraphicsTextItem" z-index="0">
  &lt;position x="535" y="423">
   &lt;transform>1,0,0,0,1,0,0,0,1&lt;/transform>
  &lt;/position>
  &lt;content line-spacing="0" shadow="0;#64000000;3;3;3" font-underline="0" box-height="105" font-outline-color="255,255,255,255" font="Azo Sans" letter-spacing="0" font-pixel-size="87" font-italic="0" typewriter="0;2;1;0;0" alignment="1" font-weight="87" font-outline="4" box-width="657.094" font-color="0,0,0,255">tremor_lang.dll&lt;/content>
 &lt;/item>
 &lt;startviewport rect="0,0,1920,1080"/>
 &lt;endviewport rect="0,0,1920,1080"/>
 &lt;background color="0,0,0,0"/>
&lt;/kdenlivetitle>
</property>
  <property name="kdenlive:folderid">-1</property>
  <property name="kdenlive:clip_type">2</property>
  <property name="kdenlive:id">37</property>
  <property name="force_reload">0</property>
  <property name="meta.media.width">1920</property>
  <property name="meta.media.height">1080</property>
  <property name="kdenlive:file_hash">d20a11af7f7193bb73df5a97dc541562</property>
 </producer>
 <producer id="producer36" in="00:00:00.000" out="00:00:26.426">
  <property name="length">793</property>
  <property name="eof">pause</property>
  <property name="progressive">1</property>
  <property name="aspect_ratio">1</property>
  <property name="seekable">1</property>
  <property name="mlt_service">kdenlivetitle</property>
  <property name="kdenlive:duration">150</property>
  <property name="kdenlive:clipname">tremor_redis...</property>
  <property name="xmldata">&lt;kdenlivetitle duration="150" LC_NUMERIC="C" width="1920" height="1080" out="149">
 &lt;item type="QGraphicsTextItem" z-index="0">
  &lt;position x="535" y="423">
   &lt;transform>1,0,0,0,1,0,0,0,1&lt;/transform>
  &lt;/position>
  &lt;content line-spacing="0" shadow="0;#64000000;3;3;3" font-underline="0" box-height="105" font-outline-color="255,255,255,255" font="Azo Sans" letter-spacing="0" font-pixel-size="87" font-italic="0" typewriter="0;2;1;0;0" alignment="1" font-weight="87" font-outline="4" box-width="686.594" font-color="0,0,0,255">tremor_redis.dll&lt;/content>
 &lt;/item>
 &lt;startviewport rect="0,0,1920,1080"/>
 &lt;endviewport rect="0,0,1920,1080"/>
 &lt;background color="0,0,0,0"/>
&lt;/kdenlivetitle>
</property>
  <property name="kdenlive:folderid">-1</property>
  <property name="kdenlive:clip_type">2</property>
  <property name="kdenlive:id">38</property>
  <property name="force_reload">0</property>
  <property name="meta.media.width">1920</property>
  <property name="meta.media.height">1080</property>
  <property name="kdenlive:file_hash">0fc0368c6fe5f132ab8823671fcd8567</property>
 </producer>
 <producer id="producer37" in="00:00:00.000" out="00:00:26.426">
  <property name="length">793</property>
  <property name="eof">pause</property>
  <property name="progressive">1</property>
  <property name="aspect_ratio">1</property>
  <property name="seekable">1</property>
  <property name="mlt_service">kdenlivetitle</property>
  <property name="kdenlive:duration">150</property>
  <property name="kdenlive:clipname">tremor_json....</property>
  <property name="xmldata">&lt;kdenlivetitle duration="150" LC_NUMERIC="C" width="1920" height="1080" out="149">
 &lt;item type="QGraphicsTextItem" z-index="0">
  &lt;position x="535" y="423">
   &lt;transform>1,0,0,0,1,0,0,0,1&lt;/transform>
  &lt;/position>
  &lt;content line-spacing="0" shadow="0;#64000000;3;3;3" font-underline="0" box-height="105" font-outline-color="255,255,255,255" font="Azo Sans" letter-spacing="0" font-pixel-size="87" font-italic="0" typewriter="0;2;1;0;0" alignment="1" font-weight="87" font-outline="4" box-width="653.703" font-color="0,0,0,255">tremor_json.dll&lt;/content>
 &lt;/item>
 &lt;startviewport rect="0,0,1920,1080"/>
 &lt;endviewport rect="0,0,1920,1080"/>
 &lt;background color="0,0,0,0"/>
&lt;/kdenlivetitle>
</property>
  <property name="kdenlive:folderid">-1</property>
  <property name="kdenlive:clip_type">2</property>
  <property name="kdenlive:id">39</property>
  <property name="force_reload">0</property>
  <property name="meta.media.width">1920</property>
  <property name="meta.media.height">1080</property>
  <property name="kdenlive:file_hash">7052fe4e9a7a64885ac9ac46ce82ebfa</property>
 </producer>
 <producer id="producer38" in="00:00:00.000" out="00:00:20.554">
  <property name="length">617</property>
  <property name="eof">pause</property>
  <property name="progressive">1</property>
  <property name="aspect_ratio">1</property>
  <property name="seekable">1</property>
  <property name="mlt_service">kdenlivetitle</property>
  <property name="kdenlive:duration">150</property>
  <property name="kdenlive:clipname">tremor.exe</property>
  <property name="xmldata">&lt;kdenlivetitle duration="150" LC_NUMERIC="C" width="1920" height="1080" out="149">
 &lt;item type="QGraphicsTextItem" z-index="0">
  &lt;position x="535" y="423">
   &lt;transform>1,0,0,0,1,0,0,0,1&lt;/transform>
  &lt;/position>
  &lt;content line-spacing="0" shadow="0;#64000000;3;3;3" font-underline="0" box-height="105" font-outline-color="255,255,255,255" font="Azo Sans" letter-spacing="0" font-pixel-size="87" font-italic="0" typewriter="0;2;1;0;0" alignment="1" font-weight="87" font-outline="4" box-width="460.875" font-color="0,0,0,255">tremor.exe&lt;/content>
 &lt;/item>
 &lt;startviewport rect="0,0,1920,1080"/>
 &lt;endviewport rect="0,0,1920,1080"/>
 &lt;background color="0,0,0,0"/>
&lt;/kdenlivetitle>
</property>
  <property name="kdenlive:folderid">-1</property>
  <property name="kdenlive:clip_type">2</property>
  <property name="kdenlive:id">40</property>
  <property name="force_reload">0</property>
  <property name="kdenlive:file_hash">8a9fbb2cef6dd70272d674add6e3ae12</property>
  <property name="meta.media.width">1920</property>
  <property name="meta.media.height">1080</property>
 </producer>
 <producer id="producer39" in="00:00:00.000" out="00:00:20.554">
  <property name="length">617</property>
  <property name="eof">pause</property>
  <property name="resource"/>
  <property name="progressive">1</property>
  <property name="aspect_ratio">1</property>
  <property name="seekable">1</property>
  <property name="mlt_service">kdenlivetitle</property>
  <property name="kdenlive:duration">150</property>
  <property name="kdenlive:clipname">tremor.exe</property>
  <property name="xmldata">&lt;kdenlivetitle duration="150" LC_NUMERIC="C" width="1920" height="1080" out="149">
 &lt;item type="QGraphicsTextItem" z-index="0">
  &lt;position x="535" y="423">
   &lt;transform>1,0,0,0,1,0,0,0,1&lt;/transform>
  &lt;/position>
  &lt;content line-spacing="0" shadow="0;#64000000;3;3;3" font-underline="0" box-height="105" font-outline-color="255,255,255,255" font="Azo Sans" letter-spacing="0" font-pixel-size="87" font-italic="0" typewriter="0;2;1;0;0" alignment="1" font-weight="87" font-outline="4" box-width="460.875" font-color="0,0,0,255">tremor.exe&lt;/content>
 &lt;/item>
 &lt;startviewport rect="0,0,1920,1080"/>
 &lt;endviewport rect="0,0,1920,1080"/>
 &lt;background color="0,0,0,0"/>
&lt;/kdenlivetitle>
</property>
  <property name="kdenlive:folderid">42</property>
  <property name="kdenlive:clip_type">2</property>
  <property name="kdenlive:id">41</property>
  <property name="force_reload">0</property>
  <property name="kdenlive:file_hash">8a9fbb2cef6dd70272d674add6e3ae12</property>
  <property name="meta.media.width">1920</property>
  <property name="meta.media.height">1080</property>
 </producer>
 <producer id="producer40" in="00:00:00.000" out="00:00:06.373">
  <property name="length">192</property>
  <property name="eof">pause</property>
  <property name="resource">tools_ok.png</property>
  <property name="ttl">25</property>
  <property name="aspect_ratio">1</property>
  <property name="progressive">1</property>
  <property name="seekable">1</property>
  <property name="format">2</property>
  <property name="meta.media.width">153</property>
  <property name="meta.media.height">153</property>
  <property name="mlt_service">qimage</property>
  <property name="kdenlive:clipname"/>
  <property name="kdenlive:duration">00:00:05.005</property>
  <property name="kdenlive:folderid">-1</property>
  <property name="kdenlive:clip_type">2</property>
  <property name="kdenlive:id">43</property>
  <property name="kdenlive:file_size">25019</property>
  <property name="kdenlive:file_hash">4826810872d3524f78ded40ac0ee04d5</property>
 </producer>
 <producer id="producer41" in="00:00:00.000" out="00:00:11.078">
  <property name="length">333</property>
  <property name="eof">pause</property>
  <property name="progressive">1</property>
  <property name="aspect_ratio">1</property>
  <property name="seekable">1</property>
  <property name="mlt_service">kdenlivetitle</property>
  <property name="kdenlive:duration">150</property>
  <property name="kdenlive:clipname">LENTO</property>
  <property name="xmldata">&lt;kdenlivetitle duration="150" LC_NUMERIC="C" width="1920" height="1080" out="149">
 &lt;item type="QGraphicsTextItem" z-index="0">
  &lt;position x="535" y="423">
   &lt;transform>1,0,0,0,1,0,0,0,1&lt;/transform>
  &lt;/position>
  &lt;content line-spacing="0" shadow="0;#64000000;3;3;3" font-underline="0" box-height="105" font-outline-color="255,255,255,255" font="Azo Sans" letter-spacing="0" font-pixel-size="87" font-italic="0" typewriter="0;2;1;0;0" alignment="1" font-weight="87" font-outline="4" box-width="300.891" font-color="152,48,48,255">LENTO&lt;/content>
 &lt;/item>
 &lt;startviewport rect="0,0,1920,1080"/>
 &lt;endviewport rect="0,0,1920,1080"/>
 &lt;background color="0,0,0,0"/>
&lt;/kdenlivetitle>
</property>
  <property name="kdenlive:folderid">-1</property>
  <property name="kdenlive:clip_type">2</property>
  <property name="kdenlive:id">44</property>
  <property name="force_reload">0</property>
  <property name="meta.media.width">1920</property>
  <property name="meta.media.height">1080</property>
  <property name="kdenlive:file_hash">a9c2b4f23e03b9f3f8106a93d092b18c</property>
 </producer>
 <producer id="producer42" in="00:00:00.000" out="00:00:11.078">
  <property name="length">333</property>
  <property name="eof">pause</property>
  <property name="progressive">1</property>
  <property name="aspect_ratio">1</property>
  <property name="seekable">1</property>
  <property name="mlt_service">kdenlivetitle</property>
  <property name="kdenlive:duration">150</property>
  <property name="kdenlive:clipname">RÁPIDO</property>
  <property name="xmldata">&lt;kdenlivetitle duration="150" LC_NUMERIC="C" width="1920" height="1080" out="149">
 &lt;item type="QGraphicsTextItem" z-index="0">
  &lt;position x="535" y="423">
   &lt;transform>1,0,0,0,1,0,0,0,1&lt;/transform>
  &lt;/position>
  &lt;content line-spacing="0" shadow="0;#64000000;3;3;3" font-underline="0" box-height="105" font-outline-color="255,255,255,255" font="Azo Sans" letter-spacing="0" font-pixel-size="87" font-italic="0" typewriter="0;2;1;0;0" alignment="1" font-weight="87" font-outline="4" box-width="354.031" font-color="65,198,74,255">RÁPIDO&lt;/content>
 &lt;/item>
 &lt;startviewport rect="0,0,1920,1080"/>
 &lt;endviewport rect="0,0,1920,1080"/>
 &lt;background color="0,0,0,0"/>
&lt;/kdenlivetitle>
</property>
  <property name="kdenlive:folderid">-1</property>
  <property name="kdenlive:clip_type">2</property>
  <property name="kdenlive:id">45</property>
  <property name="force_reload">0</property>
  <property name="kdenlive:file_hash">0d6cef5e064d22027f19a26a5c69f0be</property>
  <property name="meta.media.width">1920</property>
  <property name="meta.media.height">1080</property>
 </producer>
 <producer id="producer43" in="00:00:00.000" out="00:00:11.078">
  <property name="length">333</property>
  <property name="eof">pause</property>
  <property name="resource"/>
  <property name="progressive">1</property>
  <property name="aspect_ratio">1</property>
  <property name="seekable">1</property>
  <property name="mlt_service">kdenlivetitle</property>
  <property name="kdenlive:duration">150</property>
  <property name="kdenlive:clipname">RÁPIDO</property>
  <property name="xmldata">&lt;kdenlivetitle duration="150" LC_NUMERIC="C" width="1920" height="1080" out="149">
 &lt;item type="QGraphicsTextItem" z-index="0">
  &lt;position x="535" y="423">
   &lt;transform>1,0,0,0,1,0,0,0,1&lt;/transform>
  &lt;/position>
  &lt;content line-spacing="0" shadow="0;#64000000;3;3;3" font-underline="0" box-height="105" font-outline-color="255,255,255,255" font="Azo Sans" letter-spacing="0" font-pixel-size="87" font-italic="0" typewriter="0;2;1;0;0" alignment="1" font-weight="87" font-outline="4" box-width="354.031" font-color="65,198,74,255">RÁPIDO&lt;/content>
 &lt;/item>
 &lt;startviewport rect="0,0,1920,1080"/>
 &lt;endviewport rect="0,0,1920,1080"/>
 &lt;background color="0,0,0,0"/>
&lt;/kdenlivetitle>
</property>
  <property name="kdenlive:folderid">42</property>
  <property name="kdenlive:clip_type">2</property>
  <property name="kdenlive:id">46</property>
  <property name="force_reload">0</property>
  <property name="kdenlive:file_hash">0d6cef5e064d22027f19a26a5c69f0be</property>
 </producer>
 <producer id="producer44" in="00:00:00.000" out="00:00:11.078">
  <property name="length">333</property>
  <property name="eof">pause</property>
  <property name="resource"/>
  <property name="progressive">1</property>
  <property name="aspect_ratio">1</property>
  <property name="seekable">1</property>
  <property name="mlt_service">kdenlivetitle</property>
  <property name="kdenlive:duration">150</property>
  <property name="kdenlive:clipname">RÁPIDO</property>
  <property name="xmldata">&lt;kdenlivetitle duration="150" LC_NUMERIC="C" width="1920" height="1080" out="149">
 &lt;item type="QGraphicsTextItem" z-index="0">
  &lt;position x="535" y="423">
   &lt;transform>1,0,0,0,1,0,0,0,1&lt;/transform>
  &lt;/position>
  &lt;content line-spacing="0" shadow="0;#64000000;3;3;3" font-underline="0" box-height="105" font-outline-color="255,255,255,255" font="Azo Sans" letter-spacing="0" font-pixel-size="87" font-italic="0" typewriter="0;2;1;0;0" alignment="1" font-weight="87" font-outline="4" box-width="354.031" font-color="65,198,74,255">RÁPIDO&lt;/content>
 &lt;/item>
 &lt;startviewport rect="0,0,1920,1080"/>
 &lt;endviewport rect="0,0,1920,1080"/>
 &lt;background color="0,0,0,0"/>
&lt;/kdenlivetitle>
</property>
  <property name="kdenlive:folderid">42</property>
  <property name="kdenlive:clip_type">2</property>
  <property name="kdenlive:id">47</property>
  <property name="force_reload">0</property>
  <property name="kdenlive:file_hash">0d6cef5e064d22027f19a26a5c69f0be</property>
  <property name="meta.media.width">1920</property>
  <property name="meta.media.height">1080</property>
 </producer>
 <producer id="producer45" in="00:00:00.000" out="00:00:11.078">
  <property name="length">333</property>
  <property name="eof">pause</property>
  <property name="resource"/>
  <property name="progressive">1</property>
  <property name="aspect_ratio">1</property>
  <property name="seekable">1</property>
  <property name="mlt_service">kdenlivetitle</property>
  <property name="kdenlive:duration">150</property>
  <property name="kdenlive:clipname">RÁPIDO</property>
  <property name="xmldata">&lt;kdenlivetitle duration="150" LC_NUMERIC="C" width="1920" height="1080" out="149">
 &lt;item type="QGraphicsTextItem" z-index="0">
  &lt;position x="535" y="423">
   &lt;transform>1,0,0,0,1,0,0,0,1&lt;/transform>
  &lt;/position>
  &lt;content line-spacing="0" shadow="0;#64000000;3;3;3" font-underline="0" box-height="105" font-outline-color="255,255,255,255" font="Azo Sans" letter-spacing="0" font-pixel-size="87" font-italic="0" typewriter="0;2;1;0;0" alignment="1" font-weight="87" font-outline="4" box-width="354.031" font-color="65,198,74,255">RÁPIDO&lt;/content>
 &lt;/item>
 &lt;startviewport rect="0,0,1920,1080"/>
 &lt;endviewport rect="0,0,1920,1080"/>
 &lt;background color="0,0,0,0"/>
&lt;/kdenlivetitle>
</property>
  <property name="kdenlive:folderid">42</property>
  <property name="kdenlive:clip_type">2</property>
  <property name="kdenlive:id">48</property>
  <property name="force_reload">0</property>
  <property name="kdenlive:file_hash">0d6cef5e064d22027f19a26a5c69f0be</property>
 </producer>
 <producer id="producer46" in="00:00:00.000" out="00:00:11.078">
  <property name="length">333</property>
  <property name="eof">pause</property>
  <property name="resource"/>
  <property name="progressive">1</property>
  <property name="aspect_ratio">1</property>
  <property name="seekable">1</property>
  <property name="mlt_service">kdenlivetitle</property>
  <property name="kdenlive:duration">150</property>
  <property name="kdenlive:clipname">RÁPIDO</property>
  <property name="xmldata">&lt;kdenlivetitle duration="150" LC_NUMERIC="C" width="1920" height="1080" out="149">
 &lt;item type="QGraphicsTextItem" z-index="0">
  &lt;position x="535" y="423">
   &lt;transform>1,0,0,0,1,0,0,0,1&lt;/transform>
  &lt;/position>
  &lt;content line-spacing="0" shadow="0;#64000000;3;3;3" font-underline="0" box-height="105" font-outline-color="255,255,255,255" font="Azo Sans" letter-spacing="0" font-pixel-size="87" font-italic="0" typewriter="0;2;1;0;0" alignment="1" font-weight="87" font-outline="4" box-width="354.031" font-color="65,198,74,255">RÁPIDO&lt;/content>
 &lt;/item>
 &lt;startviewport rect="0,0,1920,1080"/>
 &lt;endviewport rect="0,0,1920,1080"/>
 &lt;background color="0,0,0,0"/>
&lt;/kdenlivetitle>
</property>
  <property name="kdenlive:folderid">42</property>
  <property name="kdenlive:clip_type">2</property>
  <property name="kdenlive:id">49</property>
  <property name="force_reload">0</property>
  <property name="kdenlive:file_hash">0d6cef5e064d22027f19a26a5c69f0be</property>
 </producer>
 <producer id="producer47" in="00:00:00.000" out="00:00:11.078">
  <property name="length">333</property>
  <property name="eof">pause</property>
  <property name="resource"/>
  <property name="progressive">1</property>
  <property name="aspect_ratio">1</property>
  <property name="seekable">1</property>
  <property name="mlt_service">kdenlivetitle</property>
  <property name="kdenlive:duration">150</property>
  <property name="kdenlive:clipname">RÁPIDO</property>
  <property name="xmldata">&lt;kdenlivetitle duration="150" LC_NUMERIC="C" width="1920" height="1080" out="149">
 &lt;item type="QGraphicsTextItem" z-index="0">
  &lt;position x="535" y="423">
   &lt;transform>1,0,0,0,1,0,0,0,1&lt;/transform>
  &lt;/position>
  &lt;content line-spacing="0" shadow="0;#64000000;3;3;3" font-underline="0" box-height="105" font-outline-color="255,255,255,255" font="Azo Sans" letter-spacing="0" font-pixel-size="87" font-italic="0" typewriter="0;2;1;0;0" alignment="1" font-weight="87" font-outline="4" box-width="354.031" font-color="65,198,74,255">RÁPIDO&lt;/content>
 &lt;/item>
 &lt;startviewport rect="0,0,1920,1080"/>
 &lt;endviewport rect="0,0,1920,1080"/>
 &lt;background color="0,0,0,0"/>
&lt;/kdenlivetitle>
</property>
  <property name="kdenlive:folderid">42</property>
  <property name="kdenlive:clip_type">2</property>
  <property name="kdenlive:id">50</property>
  <property name="force_reload">0</property>
  <property name="kdenlive:file_hash">0d6cef5e064d22027f19a26a5c69f0be</property>
  <property name="meta.media.width">1920</property>
  <property name="meta.media.height">1080</property>
 </producer>
 <producer id="producer48" in="00:00:00.000" out="00:00:12.513">
  <property name="length">376</property>
  <property name="eof">pause</property>
  <property name="progressive">1</property>
  <property name="aspect_ratio">1</property>
  <property name="seekable">1</property>
  <property name="mlt_service">kdenlivetitle</property>
  <property name="kdenlive:duration">150</property>
  <property name="kdenlive:clipname">Lenguaje de ...</property>
  <property name="xmldata">&lt;kdenlivetitle duration="150" LC_NUMERIC="C" width="1920" height="1080" out="149">
 &lt;item type="QGraphicsTextItem" z-index="1">
  &lt;position x="453" y="516">
   &lt;transform>1,0,0,0,1,0,0,0,1&lt;/transform>
  &lt;/position>
  &lt;content line-spacing="0" shadow="0;#64000000;3;3;3" font-underline="0" box-height="130" font-outline-color="255,255,255,255" font="Azo Sans" letter-spacing="0" font-pixel-size="54" font-italic="1" typewriter="0;2;1;0;0" alignment="4" font-weight="87" font-outline="3" box-width="373.469" font-color="86,86,86,255">Lenguaje de
programación&lt;/content>
 &lt;/item>
 &lt;item type="QGraphicsTextItem" z-index="0">
  &lt;position x="535" y="423">
   &lt;transform>1,0,0,0,1,0,0,0,1&lt;/transform>
  &lt;/position>
  &lt;content line-spacing="0" shadow="0;#64000000;3;3;3" font-underline="0" box-height="105" font-outline-color="255,255,255,255" font="Azo Sans" letter-spacing="0" font-pixel-size="87" font-italic="0" typewriter="0;2;1;0;0" alignment="1" font-weight="87" font-outline="4" box-width="120.922" font-color="86,86,86,255">   C&lt;/content>
 &lt;/item>
 &lt;startviewport rect="0,0,1920,1080"/>
 &lt;endviewport rect="0,0,1920,1080"/>
 &lt;background color="0,0,0,0"/>
&lt;/kdenlivetitle>
</property>
  <property name="kdenlive:folderid">-1</property>
  <property name="kdenlive:clip_type">2</property>
  <property name="kdenlive:id">51</property>
  <property name="force_reload">0</property>
  <property name="meta.media.width">1920</property>
  <property name="meta.media.height">1080</property>
  <property name="kdenlive:file_hash">1be2b46bb131afc71900fa9b36f4ce7c</property>
 </producer>
 <producer id="producer49" in="00:00:00.000" out="00:00:05.506">
  <property name="length">166</property>
  <property name="eof">pause</property>
  <property name="resource">arrows_ok.png</property>
  <property name="ttl">25</property>
  <property name="aspect_ratio">1</property>
  <property name="progressive">1</property>
  <property name="seekable">1</property>
  <property name="format">2</property>
  <property name="meta.media.width">153</property>
  <property name="meta.media.height">153</property>
  <property name="mlt_service">qimage</property>
  <property name="kdenlive:clipname"/>
  <property name="kdenlive:duration">00:00:05.005</property>
  <property name="kdenlive:folderid">-1</property>
  <property name="kdenlive:clip_type">2</property>
  <property name="kdenlive:id">52</property>
  <property name="kdenlive:file_size">8892</property>
  <property name="kdenlive:file_hash">c601db22a02403837e04e3e6d3380dde</property>
 </producer>
 <producer id="producer50" in="00:00:00.000" out="00:00:12.312">
  <property name="length">370</property>
  <property name="eof">pause</property>
  <property name="resource">baby_ok.png</property>
  <property name="ttl">25</property>
  <property name="aspect_ratio">1</property>
  <property name="progressive">1</property>
  <property name="seekable">1</property>
  <property name="format">2</property>
  <property name="meta.media.width">153</property>
  <property name="meta.media.height">153</property>
  <property name="mlt_service">qimage</property>
  <property name="kdenlive:clipname"/>
  <property name="kdenlive:duration">00:00:05.005</property>
  <property name="kdenlive:folderid">-1</property>
  <property name="kdenlive:clip_type">2</property>
  <property name="kdenlive:id">53</property>
  <property name="kdenlive:file_size">17976</property>
  <property name="kdenlive:file_hash">caa2bc8104a50566f8b20817fd4e7dd6</property>
 </producer>
 <producer id="producer51" in="00:00:00.000" out="00:00:12.312">
  <property name="length">370</property>
  <property name="eof">pause</property>
  <property name="resource">old_ok.png</property>
  <property name="ttl">25</property>
  <property name="aspect_ratio">1</property>
  <property name="progressive">1</property>
  <property name="seekable">1</property>
  <property name="format">2</property>
  <property name="meta.media.width">153</property>
  <property name="meta.media.height">153</property>
  <property name="mlt_service">qimage</property>
  <property name="kdenlive:clipname"/>
  <property name="kdenlive:duration">00:00:05.005</property>
  <property name="kdenlive:folderid">-1</property>
  <property name="kdenlive:clip_type">2</property>
  <property name="kdenlive:id">54</property>
  <property name="kdenlive:file_size">22662</property>
  <property name="kdenlive:file_hash">51a1f1a046d8a9e5df5de936e7de3e35</property>
 </producer>
 <producer id="producer52" in="00:00:00.000" out="00:00:12.312">
  <property name="length">370</property>
  <property name="eof">pause</property>
  <property name="resource">child_ok.png</property>
  <property name="ttl">25</property>
  <property name="aspect_ratio">1</property>
  <property name="progressive">1</property>
  <property name="seekable">1</property>
  <property name="format">2</property>
  <property name="meta.media.width">153</property>
  <property name="meta.media.height">153</property>
  <property name="mlt_service">qimage</property>
  <property name="kdenlive:clipname"/>
  <property name="kdenlive:duration">00:00:05.005</property>
  <property name="kdenlive:folderid">-1</property>
  <property name="kdenlive:clip_type">2</property>
  <property name="kdenlive:id">55</property>
  <property name="kdenlive:file_size">22526</property>
  <property name="kdenlive:file_hash">e6a9ca354ec2e3afc077da4ab5529963</property>
 </producer>
 <producer id="producer53" in="00:00:00.000" out="00:00:05.873">
  <property name="length">177</property>
  <property name="eof">pause</property>
  <property name="progressive">1</property>
  <property name="aspect_ratio">1</property>
  <property name="seekable">1</property>
  <property name="mlt_service">kdenlivetitle</property>
  <property name="kdenlive:duration">150</property>
  <property name="kdenlive:clipname">30</property>
  <property name="xmldata">&lt;kdenlivetitle duration="150" LC_NUMERIC="C" width="1920" height="1080" out="149">
 &lt;item type="QGraphicsTextItem" z-index="0">
  &lt;position x="535" y="423">
   &lt;transform>1,0,0,0,1,0,0,0,1&lt;/transform>
  &lt;/position>
  &lt;content line-spacing="0" shadow="0;#64000000;3;3;3" font-underline="0" box-height="105" font-outline-color="255,255,255,255" font="Azo Sans" letter-spacing="0" font-pixel-size="87" font-italic="0" typewriter="0;2;1;0;0" alignment="1" font-weight="87" font-outline="4" box-width="107.516" font-color="0,0,0,255">30&lt;/content>
 &lt;/item>
 &lt;startviewport rect="0,0,1920,1080"/>
 &lt;endviewport rect="0,0,1920,1080"/>
 &lt;background color="0,0,0,0"/>
&lt;/kdenlivetitle>
</property>
  <property name="kdenlive:folderid">-1</property>
  <property name="kdenlive:clip_type">2</property>
  <property name="kdenlive:id">56</property>
  <property name="force_reload">0</property>
  <property name="meta.media.width">1920</property>
  <property name="meta.media.height">1080</property>
  <property name="kdenlive:file_hash">fccea5f28b1de599e8289b947e62553e</property>
 </producer>
 <producer id="producer54" in="00:00:00.000" out="00:00:04.972">
  <property name="length">150</property>
  <property name="eof">pause</property>
  <property name="resource"/>
  <property name="progressive">1</property>
  <property name="aspect_ratio">1</property>
  <property name="seekable">1</property>
  <property name="mlt_service">kdenlivetitle</property>
  <property name="kdenlive:duration">150</property>
  <property name="kdenlive:clipname">10</property>
  <property name="xmldata">&lt;kdenlivetitle duration="150" LC_NUMERIC="C" width="1920" height="1080" out="149">
 &lt;item type="QGraphicsTextItem" z-index="0">
  &lt;position x="535" y="423">
   &lt;transform>1,0,0,0,1,0,0,0,1&lt;/transform>
  &lt;/position>
  &lt;content line-spacing="0" shadow="0;#64000000;3;3;3" font-underline="0" box-height="105" font-outline-color="255,255,255,255" font="Azo Sans" letter-spacing="0" font-pixel-size="87" font-italic="0" typewriter="0;2;1;0;0" alignment="1" font-weight="87" font-outline="4" box-width="102.391" font-color="0,0,0,255">10&lt;/content>
 &lt;/item>
 &lt;startviewport rect="0,0,1920,1080"/>
 &lt;endviewport rect="0,0,1920,1080"/>
 &lt;background color="0,0,0,0"/>
&lt;/kdenlivetitle>
</property>
  <property name="kdenlive:folderid">-1</property>
  <property name="kdenlive:clip_type">2</property>
  <property name="kdenlive:id">57</property>
  <property name="force_reload">0</property>
  <property name="kdenlive:file_hash">fccea5f28b1de599e8289b947e62553e</property>
  <property name="meta.media.width">1920</property>
  <property name="meta.media.height">1080</property>
 </producer>
 <producer id="producer55" in="00:00:00.000" out="00:00:04.972">
  <property name="length">150</property>
  <property name="eof">pause</property>
  <property name="progressive">1</property>
  <property name="aspect_ratio">1</property>
  <property name="seekable">1</property>
  <property name="mlt_service">kdenlivetitle</property>
  <property name="kdenlive:duration">150</property>
  <property name="kdenlive:clipname">dependencias</property>
  <property name="xmldata">&lt;kdenlivetitle duration="150" LC_NUMERIC="C" width="1920" height="1080" out="149">
 &lt;item type="QGraphicsTextItem" z-index="0">
  &lt;position x="535" y="423">
   &lt;transform>1,0,0,0,1,0,0,0,1&lt;/transform>
  &lt;/position>
  &lt;content line-spacing="0" shadow="0;#64000000;3;3;3" font-underline="0" box-height="105" font-outline-color="255,255,255,255" font="Azo Sans" letter-spacing="0" font-pixel-size="87" font-italic="0" typewriter="0;2;1;0;0" alignment="1" font-weight="75" font-outline="3" box-width="567.141" font-color="0,0,0,255">dependencias&lt;/content>
 &lt;/item>
 &lt;startviewport rect="0,0,1920,1080"/>
 &lt;endviewport rect="0,0,1920,1080"/>
 &lt;background color="0,0,0,0"/>
&lt;/kdenlivetitle>
</property>
  <property name="kdenlive:folderid">-1</property>
  <property name="kdenlive:clip_type">2</property>
  <property name="kdenlive:id">58</property>
  <property name="force_reload">0</property>
  <property name="meta.media.width">1920</property>
  <property name="meta.media.height">1080</property>
  <property name="kdenlive:file_hash">f18eeb8f4d6ee552e8c80e4d8ecb5551</property>
 </producer>
 <producer id="producer56" in="00:00:00.000" out="00:00:05.005">
  <property name="length">151</property>
  <property name="eof">pause</property>
  <property name="progressive">1</property>
  <property name="aspect_ratio">1</property>
  <property name="seekable">1</property>
  <property name="mlt_service">kdenlivetitle</property>
  <property name="kdenlive:duration">150</property>
  <property name="kdenlive:clipname">></property>
  <property name="xmldata">&lt;kdenlivetitle duration="150" LC_NUMERIC="C" width="1920" height="1080" out="149">
 &lt;item type="QGraphicsTextItem" z-index="0">
  &lt;position x="535" y="423">
   &lt;transform>1,0,0,0,1,0,0,0,1&lt;/transform>
  &lt;/position>
  &lt;content line-spacing="0" shadow="0;#64000000;3;3;3" font-underline="0" box-height="105" font-outline-color="255,255,255,255" font="Azo Sans" letter-spacing="0" font-pixel-size="87" font-italic="0" typewriter="0;2;1;0;0" alignment="1" font-weight="87" font-outline="4" box-width="64.8906" font-color="0,0,0,255">>&lt;/content>
 &lt;/item>
 &lt;startviewport rect="0,0,1920,1080"/>
 &lt;endviewport rect="0,0,1920,1080"/>
 &lt;background color="0,0,0,0"/>
&lt;/kdenlivetitle>
</property>
  <property name="kdenlive:folderid">-1</property>
  <property name="kdenlive:clip_type">2</property>
  <property name="kdenlive:id">59</property>
  <property name="force_reload">0</property>
  <property name="meta.media.width">1920</property>
  <property name="meta.media.height">1080</property>
  <property name="kdenlive:file_hash">553698bf24b19b8590c7129751ba3df5</property>
 </producer>
 <producer id="producer57" in="00:00:00.000" out="00:00:04.972">
  <property name="length">150</property>
  <property name="eof">pause</property>
  <property name="progressive">1</property>
  <property name="aspect_ratio">1</property>
  <property name="seekable">1</property>
  <property name="mlt_service">kdenlivetitle</property>
  <property name="kdenlive:duration">150</property>
  <property name="kdenlive:clipname">a Tremor</property>
  <property name="xmldata">&lt;kdenlivetitle duration="150" LC_NUMERIC="C" width="1920" height="1080" out="149">
 &lt;item type="QGraphicsTextItem" z-index="0">
  &lt;position x="535" y="423">
   &lt;transform>1,0,0,0,1,0,0,0,1&lt;/transform>
  &lt;/position>
  &lt;content line-spacing="0" shadow="0;#64000000;3;3;3" font-underline="0" box-height="105" font-outline-color="255,255,255,255" font="Azo Sans" letter-spacing="0" font-pixel-size="87" font-italic="0" typewriter="0;2;1;0;0" alignment="1" font-weight="75" font-outline="3" box-width="367.422" font-color="0,0,0,255">a Tremor&lt;/content>
 &lt;/item>
 &lt;startviewport rect="0,0,1920,1080"/>
 &lt;endviewport rect="0,0,1920,1080"/>
 &lt;background color="0,0,0,0"/>
&lt;/kdenlivetitle>
</property>
  <property name="kdenlive:folderid">-1</property>
  <property name="kdenlive:clip_type">2</property>
  <property name="kdenlive:id">60</property>
  <property name="force_reload">0</property>
  <property name="meta.media.width">1920</property>
  <property name="meta.media.height">1080</property>
  <property name="kdenlive:file_hash">2ea1be348d411bc1edc285f691bcc7d5</property>
 </producer>
 <producer id="producer58" in="00:00:00.000" out="00:00:05.372">
  <property name="length">162</property>
  <property name="eof">pause</property>
  <property name="progressive">1</property>
  <property name="aspect_ratio">1</property>
  <property name="seekable">1</property>
  <property name="mlt_service">kdenlivetitle</property>
  <property name="kdenlive:duration">150</property>
  <property name="kdenlive:clipname">a</property>
  <property name="xmldata">&lt;kdenlivetitle duration="150" LC_NUMERIC="C" width="1920" height="1080" out="149">
 &lt;item type="QGraphicsTextItem" z-index="0">
  &lt;position x="535" y="423">
   &lt;transform>1,0,0,0,1,0,0,0,1&lt;/transform>
  &lt;/position>
  &lt;content line-spacing="0" shadow="0;#64000000;3;3;3" font-underline="0" box-height="105" font-outline-color="255,255,255,255" font="Azo Sans" letter-spacing="0" font-pixel-size="87" font-italic="0" typewriter="0;2;1;0;0" alignment="1" font-weight="75" font-outline="3" box-width="67.3281" font-color="0,0,0,255">a &lt;/content>
 &lt;/item>
 &lt;startviewport rect="0,0,1920,1080"/>
 &lt;endviewport rect="0,0,1920,1080"/>
 &lt;background color="0,0,0,0"/>
&lt;/kdenlivetitle>
</property>
  <property name="kdenlive:folderid">-1</property>
  <property name="kdenlive:clip_type">2</property>
  <property name="kdenlive:id">61</property>
  <property name="force_reload">0</property>
  <property name="meta.media.width">1920</property>
  <property name="meta.media.height">1080</property>
  <property name="kdenlive:file_hash">b7da59eb0c62f99198301453c4b8f589</property>
 </producer>
 <producer id="producer59" in="00:00:00.000" out="00:00:04.972">
  <property name="length">00:00:05.005</property>
  <property name="eof">pause</property>
  <property name="resource">nullderef.png</property>
  <property name="ttl">25</property>
  <property name="aspect_ratio">1</property>
  <property name="progressive">1</property>
  <property name="seekable">1</property>
  <property name="format">1</property>
  <property name="meta.media.width">1049</property>
  <property name="meta.media.height">705</property>
  <property name="mlt_service">qimage</property>
  <property name="kdenlive:clipname"/>
  <property name="kdenlive:duration">00:00:05.005</property>
  <property name="kdenlive:folderid">-1</property>
  <property name="kdenlive:clip_type">2</property>
  <property name="kdenlive:id">62</property>
  <property name="kdenlive:file_size">83032</property>
  <property name="kdenlive:file_hash">498bab17bb5f70a57d3584df84d58515</property>
 </producer>
 <producer id="producer60" in="00:00:00.000" out="00:00:08.175">
  <property name="length">246</property>
  <property name="eof">pause</property>
  <property name="resource">nullderef_tech.png</property>
  <property name="ttl">25</property>
  <property name="aspect_ratio">1</property>
  <property name="progressive">1</property>
  <property name="seekable">1</property>
  <property name="format">1</property>
  <property name="meta.media.width">1085</property>
  <property name="meta.media.height">502</property>
  <property name="mlt_service">qimage</property>
  <property name="kdenlive:clipname"/>
  <property name="kdenlive:duration">00:00:05.005</property>
  <property name="kdenlive:folderid">-1</property>
  <property name="kdenlive:clip_type">2</property>
  <property name="kdenlive:id">63</property>
  <property name="kdenlive:file_size">75906</property>
  <property name="kdenlive:file_hash">bf4cfcd9c666e8890a8d99352786baf2</property>
 </producer>
 <producer id="producer61" in="00:00:00.000" out="00:00:04.972">
  <property name="length">00:00:05.005</property>
  <property name="eof">pause</property>
  <property name="resource">qrcode_nullderef.png</property>
  <property name="ttl">25</property>
  <property name="aspect_ratio">1</property>
  <property name="progressive">1</property>
  <property name="seekable">1</property>
  <property name="format">2</property>
  <property name="meta.media.width">875</property>
  <property name="meta.media.height">875</property>
  <property name="mlt_service">qimage</property>
  <property name="kdenlive:clipname"/>
  <property name="kdenlive:duration">00:00:05.005</property>
  <property name="kdenlive:folderid">-1</property>
  <property name="kdenlive:clip_type">2</property>
  <property name="kdenlive:id">64</property>
  <property name="kdenlive:file_size">74759</property>
  <property name="kdenlive:file_hash">0967f74cb56493fa896d96206b869bc0</property>
 </producer>
 <producer id="producer62" in="00:00:00.000" out="00:00:08.175">
  <property name="length">246</property>
  <property name="eof">pause</property>
  <property name="resource">qrcode_nullderef.png</property>
  <property name="ttl">25</property>
  <property name="aspect_ratio">1</property>
  <property name="progressive">1</property>
  <property name="seekable">1</property>
  <property name="format">2</property>
  <property name="meta.media.width">875</property>
  <property name="meta.media.height">875</property>
  <property name="mlt_service">qimage</property>
  <property name="kdenlive:clipname"/>
  <property name="kdenlive:duration">00:00:05.005</property>
  <property name="kdenlive:folderid">-1</property>
  <property name="kdenlive:clip_type">2</property>
  <property name="kdenlive:id">65</property>
  <property name="kdenlive:file_size">74759</property>
  <property name="kdenlive:file_hash">0967f74cb56493fa896d96206b869bc0</property>
 </producer>
 <producer id="producer63" in="00:00:00.000" out="00:00:04.972">
  <property name="length">00:00:05.005</property>
  <property name="eof">pause</property>
  <property name="resource">nullderef_icon.jpg</property>
  <property name="ttl">25</property>
  <property name="aspect_ratio">1</property>
  <property name="progressive">1</property>
  <property name="seekable">1</property>
  <property name="format">1</property>
  <property name="meta.media.width">400</property>
  <property name="meta.media.height">400</property>
  <property name="mlt_service">qimage</property>
  <property name="kdenlive:clipname"/>
  <property name="kdenlive:duration">00:00:05.005</property>
  <property name="kdenlive:folderid">-1</property>
  <property name="kdenlive:clip_type">2</property>
  <property name="kdenlive:id">66</property>
  <property name="kdenlive:file_size">18722</property>
  <property name="kdenlive:file_hash">53262ed3ce93354d4e5fabb7d02e6f10</property>
 </producer>
 <producer id="producer64" in="00:00:00.000" out="00:00:08.175">
  <property name="length">246</property>
  <property name="eof">pause</property>
  <property name="progressive">1</property>
  <property name="aspect_ratio">1</property>
  <property name="seekable">1</property>
  <property name="mlt_service">kdenlivetitle</property>
  <property name="kdenlive:duration">150</property>
  <property name="kdenlive:clipname">nullderef</property>
  <property name="xmldata">&lt;kdenlivetitle duration="150" LC_NUMERIC="C" width="1920" height="1080" out="149">
 &lt;item type="QGraphicsTextItem" z-index="0">
  &lt;position x="535" y="423">
   &lt;transform>1,0,0,0,1,0,0,0,1&lt;/transform>
  &lt;/position>
  &lt;content line-spacing="0" shadow="0;#64000000;3;3;3" font-underline="0" box-height="105" font-outline-color="255,255,255,255" font="Azo Sans" letter-spacing="0" font-pixel-size="87" font-italic="0" typewriter="0;2;1;0;0" alignment="1" font-weight="87" font-outline="4" box-width="587.859" font-color="0,0,0,255">nullderef.com&lt;/content>
 &lt;/item>
 &lt;startviewport rect="0,0,1920,1080"/>
 &lt;endviewport rect="0,0,1920,1080"/>
 &lt;background color="0,0,0,0"/>
&lt;/kdenlivetitle>
</property>
  <property name="kdenlive:folderid">-1</property>
  <property name="kdenlive:clip_type">2</property>
  <property name="kdenlive:id">67</property>
  <property name="force_reload">0</property>
  <property name="meta.media.width">1920</property>
  <property name="meta.media.height">1080</property>
  <property name="kdenlive:file_hash">dacc42d83a402ac4cadeb18513c97735</property>
 </producer>
 <producer id="producer65" in="00:00:00.000" out="00:00:04.972">
  <property name="length">150</property>
  <property name="eof">pause</property>
  <property name="progressive">1</property>
  <property name="aspect_ratio">1</property>
  <property name="seekable">1</property>
  <property name="mlt_service">kdenlivetitle</property>
  <property name="kdenlive:duration">150</property>
  <property name="kdenlive:clipname">6 artículos</property>
  <property name="xmldata">&lt;kdenlivetitle duration="150" LC_NUMERIC="C" width="1920" height="1080" out="149">
 &lt;item type="QGraphicsTextItem" z-index="1">
  &lt;position x="628" y="429">
   &lt;transform>1,0,0,0,1,0,0,0,1&lt;/transform>
  &lt;/position>
  &lt;content line-spacing="0" shadow="0;#64000000;3;3;3" font-underline="0" box-height="105" font-outline-color="255,255,255,255" font="Azo Sans" letter-spacing="0" font-pixel-size="87" font-italic="0" typewriter="0;2;1;0;0" alignment="1" font-weight="75" font-outline="3" box-width="359.391" font-color="0,0,0,255">artículos&lt;/content>
 &lt;/item>
 &lt;item type="QGraphicsTextItem" z-index="0">
  &lt;position x="535" y="423">
   &lt;transform>1,0,0,0,1,0,0,0,1&lt;/transform>
  &lt;/position>
  &lt;content line-spacing="0" shadow="0;#64000000;3;3;3" font-underline="0" box-height="105" font-outline-color="255,255,255,255" font="Azo Sans" letter-spacing="0" font-pixel-size="87" font-italic="0" typewriter="0;2;1;0;0" alignment="1" font-weight="87" font-outline="4" box-width="56.7969" font-color="0,0,0,255">6&lt;/content>
 &lt;/item>
 &lt;startviewport rect="0,0,1920,1080"/>
 &lt;endviewport rect="0,0,1920,1080"/>
 &lt;background color="0,0,0,0"/>
&lt;/kdenlivetitle>
</property>
  <property name="kdenlive:folderid">-1</property>
  <property name="kdenlive:clip_type">2</property>
  <property name="kdenlive:id">68</property>
  <property name="force_reload">0</property>
  <property name="meta.media.width">1920</property>
  <property name="meta.media.height">1080</property>
  <property name="kdenlive:file_hash">1f5e6df16e3c421486a6e4f5b9bfaa56</property>
 </producer>
 <producer id="producer66" in="00:00:00.000" out="00:00:04.972">
  <property name="length">150</property>
  <property name="eof">pause</property>
  <property name="progressive">1</property>
  <property name="aspect_ratio">1</property>
  <property name="seekable">1</property>
  <property name="mlt_service">kdenlivetitle</property>
  <property name="kdenlive:duration">150</property>
  <property name="kdenlive:clipname">30.000 visit...</property>
  <property name="xmldata">&lt;kdenlivetitle duration="150" LC_NUMERIC="C" width="1920" height="1080" out="149">
 &lt;item type="QGraphicsTextItem" z-index="1">
  &lt;position x="857" y="422">
   &lt;transform>1,0,0,0,1,0,0,0,1&lt;/transform>
  &lt;/position>
  &lt;content line-spacing="0" shadow="0;#64000000;3;3;3" font-underline="0" box-height="105" font-outline-color="255,255,255,255" font="Azo Sans" letter-spacing="0" font-pixel-size="87" font-italic="0" typewriter="0;2;1;0;0" alignment="1" font-weight="75" font-outline="3" box-width="265.109" font-color="0,0,0,255">visitas&lt;/content>
 &lt;/item>
 &lt;item type="QGraphicsTextItem" z-index="0">
  &lt;position x="535" y="423">
   &lt;transform>1,0,0,0,1,0,0,0,1&lt;/transform>
  &lt;/position>
  &lt;content line-spacing="0" shadow="0;#64000000;3;3;3" font-underline="0" box-height="105" font-outline-color="255,255,255,255" font="Azo Sans" letter-spacing="0" font-pixel-size="87" font-italic="0" typewriter="0;2;1;0;0" alignment="1" font-weight="87" font-outline="4" box-width="301.359" font-color="0,0,0,255">30.000&lt;/content>
 &lt;/item>
 &lt;startviewport rect="0,0,1920,1080"/>
 &lt;endviewport rect="0,0,1920,1080"/>
 &lt;background color="0,0,0,0"/>
&lt;/kdenlivetitle>
</property>
  <property name="kdenlive:folderid">-1</property>
  <property name="kdenlive:clip_type">2</property>
  <property name="kdenlive:id">69</property>
  <property name="force_reload">0</property>
  <property name="meta.media.width">1920</property>
  <property name="meta.media.height">1080</property>
  <property name="kdenlive:file_hash">7a3b534777dc35eb96cda7d70479fc6f</property>
 </producer>
 <producer id="producer67" in="00:00:00.000" out="00:00:08.208">
  <property name="length">247</property>
  <property name="eof">pause</property>
  <property name="resource">qrcode_talk_lfx_ok.png</property>
  <property name="ttl">25</property>
  <property name="aspect_ratio">1</property>
  <property name="progressive">1</property>
  <property name="seekable">1</property>
  <property name="format">2</property>
  <property name="meta.media.width">885</property>
  <property name="meta.media.height">885</property>
  <property name="mlt_service">qimage</property>
  <property name="kdenlive:clipname"/>
  <property name="kdenlive:duration">00:00:05.005</property>
  <property name="kdenlive:folderid">-1</property>
  <property name="kdenlive:clip_type">2</property>
  <property name="kdenlive:id">70</property>
  <property name="kdenlive:file_size">107826</property>
  <property name="kdenlive:file_hash">147ff25b1b95a9d824fec2d72d0da68b</property>
 </producer>
 <producer id="producer68" in="00:00:00.000" out="00:00:08.308">
  <property name="length">250</property>
  <property name="eof">pause</property>
  <property name="resource">qrcode_rust_talk_ok.png</property>
  <property name="ttl">25</property>
  <property name="aspect_ratio">1</property>
  <property name="progressive">1</property>
  <property name="seekable">1</property>
  <property name="format">2</property>
  <property name="meta.media.width">885</property>
  <property name="meta.media.height">885</property>
  <property name="mlt_service">qimage</property>
  <property name="kdenlive:clipname"/>
  <property name="kdenlive:duration">00:00:05.005</property>
  <property name="kdenlive:folderid">-1</property>
  <property name="kdenlive:clip_type">2</property>
  <property name="kdenlive:id">71</property>
  <property name="kdenlive:file_size">93290</property>
  <property name="kdenlive:file_hash">8b20dcb9f1a2969d603ca63d3280d22e</property>
 </producer>
 <producer id="producer69" in="00:00:00.000" out="00:00:05.439">
  <property name="length">164</property>
  <property name="eof">pause</property>
  <property name="resource">kubecon_ok.png</property>
  <property name="ttl">25</property>
  <property name="aspect_ratio">1</property>
  <property name="progressive">1</property>
  <property name="seekable">1</property>
  <property name="format">2</property>
  <property name="meta.media.width">780</property>
  <property name="meta.media.height">288</property>
  <property name="mlt_service">qimage</property>
  <property name="kdenlive:clipname"/>
  <property name="kdenlive:duration">00:00:05.005</property>
  <property name="kdenlive:folderid">-1</property>
  <property name="kdenlive:clip_type">2</property>
  <property name="kdenlive:id">72</property>
  <property name="kdenlive:file_size">105536</property>
  <property name="kdenlive:file_hash">8df0154c1eb6ab0425c547548e1cc825</property>
 </producer>
 <producer id="producer70" in="00:00:00.000" out="00:00:08.208">
  <property name="length">247</property>
  <property name="eof">pause</property>
  <property name="progressive">1</property>
  <property name="aspect_ratio">1</property>
  <property name="seekable">1</property>
  <property name="mlt_service">kdenlivetitle</property>
  <property name="kdenlive:duration">150</property>
  <property name="kdenlive:clipname">Charla LFX</property>
  <property name="xmldata">&lt;kdenlivetitle duration="150" LC_NUMERIC="C" width="1920" height="1080" out="149">
 &lt;item type="QGraphicsTextItem" z-index="0">
  &lt;position x="535" y="423">
   &lt;transform>1,0,0,0,1,0,0,0,1&lt;/transform>
  &lt;/position>
  &lt;content line-spacing="0" shadow="0;#64000000;3;3;3" font-underline="0" box-height="105" font-outline-color="255,255,255,255" font="Azo Sans" letter-spacing="0" font-pixel-size="87" font-italic="0" typewriter="0;2;1;0;0" alignment="1" font-weight="87" font-outline="4" box-width="460.969" font-color="0,0,0,255">Charla LFX&lt;/content>
 &lt;/item>
 &lt;startviewport rect="0,0,1920,1080"/>
 &lt;endviewport rect="0,0,1920,1080"/>
 &lt;background color="0,0,0,0"/>
&lt;/kdenlivetitle>
</property>
  <property name="kdenlive:folderid">-1</property>
  <property name="kdenlive:clip_type">2</property>
  <property name="kdenlive:id">73</property>
  <property name="force_reload">0</property>
  <property name="meta.media.width">1920</property>
  <property name="meta.media.height">1080</property>
  <property name="kdenlive:file_hash">e749f2873338c481f7b7a72552b0496e</property>
 </producer>
 <producer id="producer71" in="00:00:00.000" out="00:00:08.208">
  <property name="length">247</property>
  <property name="eof">pause</property>
  <property name="progressive">1</property>
  <property name="aspect_ratio">1</property>
  <property name="seekable">1</property>
  <property name="mlt_service">kdenlivetitle</property>
  <property name="kdenlive:duration">150</property>
  <property name="kdenlive:clipname">Charla Tremo...</property>
  <property name="xmldata">&lt;kdenlivetitle duration="150" LC_NUMERIC="C" width="1920" height="1080" out="149">
 &lt;item type="QGraphicsTextItem" z-index="0">
  &lt;position x="535" y="423">
   &lt;transform>1,0,0,0,1,0,0,0,1&lt;/transform>
  &lt;/position>
  &lt;content line-spacing="0" shadow="0;#64000000;3;3;3" font-underline="0" box-height="105" font-outline-color="255,255,255,255" font="Azo Sans" letter-spacing="0" font-pixel-size="87" font-italic="0" typewriter="0;2;1;0;0" alignment="1" font-weight="87" font-outline="4" box-width="769.75" font-color="0,0,0,255">Charla TremorCon&lt;/content>
 &lt;/item>
 &lt;startviewport rect="0,0,1920,1080"/>
 &lt;endviewport rect="0,0,1920,1080"/>
 &lt;background color="0,0,0,0"/>
&lt;/kdenlivetitle>
</property>
  <property name="kdenlive:folderid">-1</property>
  <property name="kdenlive:clip_type">2</property>
  <property name="kdenlive:id">74</property>
  <property name="force_reload">0</property>
  <property name="meta.media.width">1920</property>
  <property name="meta.media.height">1080</property>
  <property name="kdenlive:file_hash">cb1f65767a02602ec2a0670aeada247b</property>
 </producer>
 <producer id="producer72" in="00:00:00.000" out="00:00:04.972">
  <property name="length">00:00:05.005</property>
  <property name="eof">pause</property>
  <property name="resource">arrow_left_ok.png</property>
  <property name="ttl">25</property>
  <property name="aspect_ratio">1</property>
  <property name="progressive">1</property>
  <property name="seekable">1</property>
  <property name="format">2</property>
  <property name="meta.media.width">155</property>
  <property name="meta.media.height">155</property>
  <property name="mlt_service">qimage</property>
  <property name="kdenlive:clipname"/>
  <property name="kdenlive:duration">00:00:05.005</property>
  <property name="kdenlive:folderid">-1</property>
  <property name="kdenlive:clip_type">2</property>
  <property name="kdenlive:id">75</property>
  <property name="kdenlive:file_size">9057</property>
  <property name="kdenlive:file_hash">406da259a920fd1653451213197776d5</property>
 </producer>
 <playlist id="main_bin">
  <property name="kdenlive:folder.-1.42">Pasted clips</property>
  <property name="kdenlive:docproperties.activeTrack">2</property>
  <property name="kdenlive:docproperties.audioChannels">2</property>
  <property name="kdenlive:docproperties.audioTarget">-1</property>
  <property name="kdenlive:docproperties.compositing">1</property>
  <property name="kdenlive:docproperties.disablepreview">0</property>
  <property name="kdenlive:docproperties.documentid">1677279148827</property>
  <property name="kdenlive:docproperties.enableTimelineZone">0</property>
  <property name="kdenlive:docproperties.enableexternalproxy">0</property>
  <property name="kdenlive:docproperties.enableproxy">0</property>
  <property name="kdenlive:docproperties.externalproxyparams"/>
  <property name="kdenlive:docproperties.generateimageproxy">0</property>
  <property name="kdenlive:docproperties.generateproxy">0</property>
  <property name="kdenlive:docproperties.groups">[
    {
        "children": [
            {
                "data": "2:4013",
                "leaf": "clip",
                "type": "Leaf"
            },
            {
                "data": "1:4013",
                "leaf": "clip",
                "type": "Leaf"
            }
        ],
        "type": "AVSplit"
    },
    {
        "children": [
            {
                "data": "9:4559",
                "leaf": "clip",
                "type": "Leaf"
            },
            {
                "data": "6:4559",
                "leaf": "clip",
                "type": "Leaf"
            },
            {
                "data": "8:4559",
                "leaf": "clip",
                "type": "Leaf"
            },
            {
                "data": "3:4559",
                "leaf": "clip",
                "type": "Leaf"
            },
            {
                "data": "7:4559",
                "leaf": "clip",
                "type": "Leaf"
            },
            {
                "data": "5:4559",
                "leaf": "clip",
                "type": "Leaf"
            },
            {
                "data": "4:4559",
                "leaf": "clip",
                "type": "Leaf"
            }
        ],
        "type": "Normal"
    },
    {
        "children": [
            {
                "data": "3:825",
                "leaf": "clip",
                "type": "Leaf"
            },
            {
                "data": "4:825",
                "leaf": "clip",
                "type": "Leaf"
            }
        ],
        "type": "Normal"
    },
    {
        "children": [
            {
                "data": "15:3122",
                "leaf": "clip",
                "type": "Leaf"
            },
            {
                "data": "17:3122",
                "leaf": "clip",
                "type": "Leaf"
            }
        ],
        "type": "Normal"
    },
    {
        "children": [
            {
                "data": "2:0",
                "leaf": "clip",
                "type": "Leaf"
            },
            {
                "data": "1:0",
                "leaf": "clip",
                "type": "Leaf"
            }
        ],
        "type": "AVSplit"
    },
    {
        "children": [
            {
                "data": "1:3365",
                "leaf": "clip",
                "type": "Leaf"
            },
            {
                "data": "2:3350",
                "leaf": "clip",
                "type": "Leaf"
            }
        ],
        "type": "AVSplit"
    },
    {
        "children": [
            {
                "data": "13:3122",
                "leaf": "clip",
                "type": "Leaf"
            },
            {
                "children": [
                    {
                        "data": "14:3122",
                        "leaf": "clip",
                        "type": "Leaf"
                    },
                    {
                        "data": "16:3122",
                        "leaf": "clip",
                        "type": "Leaf"
                    }
                ],
                "type": "Normal"
            }
        ],
        "type": "Normal"
    },
    {
        "children": [
            {
                "data": "1:1321",
                "leaf": "clip",
                "type": "Leaf"
            },
            {
                "data": "2:1321",
                "leaf": "clip",
                "type": "Leaf"
            }
        ],
        "type": "AVSplit"
    },
    {
        "children": [
            {
                "data": "12:4919",
                "leaf": "clip",
                "type": "Leaf"
            },
            {
                "data": "11:4919",
                "leaf": "clip",
                "type": "Leaf"
            },
            {
                "data": "13:4919",
                "leaf": "clip",
                "type": "Leaf"
            }
        ],
        "type": "Normal"
    }
]
</property>
  <property name="kdenlive:docproperties.guidesCategories">[
    {
        "color": "#9b59b6",
        "comment": "Category 1",
        "index": 0
    },
    {
        "color": "#3daee9",
        "comment": "Category 2",
        "index": 1
    },
    {
        "color": "#1abc9c",
        "comment": "Category 3",
        "index": 2
    },
    {
        "color": "#1cdc9a",
        "comment": "Category 4",
        "index": 3
    },
    {
        "color": "#c9ce3b",
        "comment": "Category 5",
        "index": 4
    },
    {
        "color": "#fdbc4b",
        "comment": "Category 6",
        "index": 5
    },
    {
        "color": "#f39c1f",
        "comment": "Category 7",
        "index": 6
    },
    {
        "color": "#f47750",
        "comment": "Category 8",
        "index": 7
    },
    {
        "color": "#da4453",
        "comment": "Category 9",
        "index": 8
    }
]
</property>
  <property name="kdenlive:docproperties.kdenliveversion">22.12.2</property>
  <property name="kdenlive:docproperties.position">1337</property>
  <property name="kdenlive:docproperties.previewextension"/>
  <property name="kdenlive:docproperties.previewparameters"/>
  <property name="kdenlive:docproperties.profile">atsc_1080p_2997</property>
  <property name="kdenlive:docproperties.proxyextension"/>
  <property name="kdenlive:docproperties.proxyimageminsize">2000</property>
  <property name="kdenlive:docproperties.proxyimagesize">800</property>
  <property name="kdenlive:docproperties.proxyminsize">1000</property>
  <property name="kdenlive:docproperties.proxyparams"/>
  <property name="kdenlive:docproperties.proxyresize">640</property>
  <property name="kdenlive:docproperties.rendercategory">Generic (HD for web, mobile devices...)</property>
  <property name="kdenlive:docproperties.rendercustomquality">-1</property>
  <property name="kdenlive:docproperties.renderendguide">-1</property>
  <property name="kdenlive:docproperties.renderexportaudio">0</property>
  <property name="kdenlive:docproperties.rendermode">0</property>
  <property name="kdenlive:docproperties.renderplay">0</property>
  <property name="kdenlive:docproperties.renderpreview">0</property>
  <property name="kdenlive:docproperties.renderprofile">MP4-H264/AAC</property>
  <property name="kdenlive:docproperties.renderratio">1</property>
  <property name="kdenlive:docproperties.renderrescale">0</property>
  <property name="kdenlive:docproperties.renderrescaleheight">1494</property>
  <property name="kdenlive:docproperties.renderrescalewidth">2656</property>
  <property name="kdenlive:docproperties.renderspeed">6</property>
  <property name="kdenlive:docproperties.renderstartguide">-1</property>
  <property name="kdenlive:docproperties.rendertcoverlay">0</property>
  <property name="kdenlive:docproperties.rendertctype">-1</property>
  <property name="kdenlive:docproperties.rendertwopass">0</property>
  <property name="kdenlive:docproperties.renderurl">/home/mario/Videos/Concurso.mp4</property>
  <property name="kdenlive:docproperties.scrollPos">0</property>
  <property name="kdenlive:docproperties.seekOffset">30000</property>
  <property name="kdenlive:docproperties.version">1.04</property>
  <property name="kdenlive:docproperties.verticalzoom">1</property>
  <property name="kdenlive:docproperties.videoTarget">-1</property>
  <property name="kdenlive:docproperties.zonein">0</property>
  <property name="kdenlive:docproperties.zoneout">75</property>
  <property name="kdenlive:docproperties.zoom">9</property>
  <property name="kdenlive:expandedFolders"/>
  <property name="kdenlive:documentnotes"/>
  <property name="xml_retain">1</property>
  <entry producer="producer0" in="00:00:00.000" out="00:00:59.059"/>
  <entry producer="producer1" in="00:00:00.000" out="00:01:08.742"/>
  <entry producer="producer2" in="00:00:00.000" out="00:01:07.741"/>
  <entry producer="producer3" in="00:00:00.000" out="00:02:40.107"/>
  <entry producer="producer4" in="00:00:00.000" out="00:00:08.742"/>
  <entry producer="producer5" in="00:00:00.000" out="00:00:04.972"/>
  <entry producer="producer6" in="00:00:00.000" out="00:00:04.972"/>
  <entry producer="producer7" in="00:00:00.000" out="00:00:04.972"/>
  <entry producer="producer8" in="00:00:00.000" out="00:00:10.611"/>
  <entry producer="producer9" in="00:00:00.000" out="00:00:04.972"/>
  <entry producer="producer10" in="00:00:00.000" out="00:00:04.972"/>
  <entry producer="producer11" in="00:00:00.000" out="00:00:04.972"/>
  <entry producer="producer12" in="00:00:00.000" out="00:00:12.513"/>
  <entry producer="producer13" in="00:00:00.000" out="00:00:12.513"/>
  <entry producer="producer14" in="00:00:00.000" out="00:00:13.914"/>
  <entry producer="producer15" in="00:00:00.000" out="00:00:13.914"/>
  <entry producer="producer16" in="00:00:00.000" out="00:00:04.972"/>
  <entry producer="producer17" in="00:00:00.000" out="00:00:04.972"/>
  <entry producer="producer18" in="00:00:00.000" out="00:00:15.148"/>
  <entry producer="producer19" in="00:00:00.000" out="00:00:12.980"/>
  <entry producer="producer20" in="00:00:00.000" out="00:00:06.139"/>
  <entry producer="producer21" in="00:00:00.000" out="00:00:08.175"/>
  <entry producer="producer22" in="00:00:00.000" out="00:00:04.972"/>
  <entry producer="producer23" in="00:00:00.000" out="00:00:12.312"/>
  <entry producer="producer24" in="00:00:00.000" out="00:00:07.641"/>
  <entry producer="producer25" in="00:00:00.000" out="00:00:30.197"/>
  <entry producer="producer26" in="00:00:00.000" out="00:00:20.554"/>
  <entry producer="producer27" in="00:00:00.000" out="00:00:11.078"/>
  <entry producer="producer28" in="00:00:00.000" out="00:00:26.426"/>
  <entry producer="producer29" in="00:00:00.000" out="00:00:26.426"/>
  <entry producer="producer30" in="00:00:00.000" out="00:00:26.426"/>
  <entry producer="producer31" in="00:00:00.000" out="00:00:26.426"/>
  <entry producer="producer32" in="00:00:00.000" out="00:00:11.078"/>
  <entry producer="producer33" in="00:00:00.000" out="00:00:19.486"/>
  <entry producer="producer34" in="00:00:00.000" out="00:00:26.426"/>
  <entry producer="producer35" in="00:00:00.000" out="00:00:26.426"/>
  <entry producer="producer36" in="00:00:00.000" out="00:00:26.426"/>
  <entry producer="producer37" in="00:00:00.000" out="00:00:26.426"/>
  <entry producer="producer38" in="00:00:00.000" out="00:00:20.554"/>
  <entry producer="producer39" in="00:00:00.000" out="00:00:20.554"/>
  <entry producer="producer40" in="00:00:00.000" out="00:00:06.373"/>
  <entry producer="producer41" in="00:00:00.000" out="00:00:11.078"/>
  <entry producer="producer42" in="00:00:00.000" out="00:00:11.078"/>
  <entry producer="producer43" in="00:00:00.000" out="00:00:11.078"/>
  <entry producer="producer44" in="00:00:00.000" out="00:00:11.078"/>
  <entry producer="producer45" in="00:00:00.000" out="00:00:11.078"/>
  <entry producer="producer46" in="00:00:00.000" out="00:00:11.078"/>
  <entry producer="producer47" in="00:00:00.000" out="00:00:11.078"/>
  <entry producer="producer48" in="00:00:00.000" out="00:00:12.513"/>
  <entry producer="producer49" in="00:00:00.000" out="00:00:05.506"/>
  <entry producer="producer50" in="00:00:00.000" out="00:00:12.312"/>
  <entry producer="producer51" in="00:00:00.000" out="00:00:12.312"/>
  <entry producer="producer52" in="00:00:00.000" out="00:00:12.312"/>
  <entry producer="producer53" in="00:00:00.000" out="00:00:05.873"/>
  <entry producer="producer54" in="00:00:00.000" out="00:00:04.972"/>
  <entry producer="producer55" in="00:00:00.000" out="00:00:04.972"/>
  <entry producer="producer56" in="00:00:00.000" out="00:00:05.005"/>
  <entry producer="producer57" in="00:00:00.000" out="00:00:04.972"/>
  <entry producer="producer58" in="00:00:00.000" out="00:00:05.372"/>
  <entry producer="producer59" in="00:00:00.000" out="00:00:04.972"/>
  <entry producer="producer60" in="00:00:00.000" out="00:00:08.175"/>
  <entry producer="producer61" in="00:00:00.000" out="00:00:04.972"/>
  <entry producer="producer62" in="00:00:00.000" out="00:00:08.175"/>
  <entry producer="producer63" in="00:00:00.000" out="00:00:04.972"/>
  <entry producer="producer64" in="00:00:00.000" out="00:00:08.175"/>
  <entry producer="producer65" in="00:00:00.000" out="00:00:04.972"/>
  <entry producer="producer66" in="00:00:00.000" out="00:00:04.972"/>
  <entry producer="producer67" in="00:00:00.000" out="00:00:08.208"/>
  <entry producer="producer68" in="00:00:00.000" out="00:00:08.308"/>
  <entry producer="producer69" in="00:00:00.000" out="00:00:05.439"/>
  <entry producer="producer70" in="00:00:00.000" out="00:00:08.208"/>
  <entry producer="producer71" in="00:00:00.000" out="00:00:08.208"/>
  <entry producer="producer72" in="00:00:00.000" out="00:00:04.972"/>
 </playlist>
 <producer id="black_track" in="00:00:00.000" out="00:19:48.749">
  <property name="length">2147483647</property>
  <property name="eof">continue</property>
  <property name="resource">black</property>
  <property name="aspect_ratio">1</property>
  <property name="mlt_service">color</property>
  <property name="mlt_image_format">rgba</property>
  <property name="set.test_audio">0</property>
 </producer>
 <producer id="producer73" in="00:00:00.000" out="00:00:15.148">
  <property name="length">455</property>
  <property name="eof">pause</property>
  <property name="resource">yt5s.io - Airplane -Sound Effect (HD) (320 kbps).mp3</property>
  <property name="audio_index">0</property>
  <property name="video_index">-1</property>
  <property name="mute_on_pause">0</property>
  <property name="mlt_service">avformat-novalidate</property>
  <property name="meta.media.nb_streams">1</property>
  <property name="meta.media.0.stream.type">audio</property>
  <property name="meta.media.0.codec.sample_fmt">fltp</property>
  <property name="meta.media.0.codec.sample_rate">44100</property>
  <property name="meta.media.0.codec.channels">2</property>
  <property name="meta.media.0.codec.name">mp3float</property>
  <property name="meta.media.0.codec.long_name">MP3 (MPEG audio layer 3)</property>
  <property name="meta.media.0.codec.bit_rate">320000</property>
  <property name="meta.attr.major_brand.markup">dash</property>
  <property name="meta.attr.minor_version.markup">0</property>
  <property name="meta.attr.compatible_brands.markup">iso6mp41</property>
  <property name="meta.attr.encoder.markup">Lavf58.45.100</property>
  <property name="seekable">1</property>
  <property name="kdenlive:clipname"/>
  <property name="kdenlive:clip_type">1</property>
  <property name="kdenlive:folderid">-1</property>
  <property name="kdenlive:id">20</property>
  <property name="kdenlive:file_size">607225</property>
  <property name="kdenlive:file_hash">473f5a63a1b77860f2f479f77697fe81</property>
  <property name="kdenlive:audio_max0">166</property>
  <property name="xml">was here</property>
  <property name="set.test_audio">0</property>
  <property name="set.test_image">1</property>
 </producer>
 <playlist id="playlist0">
  <property name="kdenlive:audio_track">1</property>
  <blank length="00:00:35.068"/>
  <entry producer="producer73" in="00:00:04.838" out="00:00:08.308">
   <property name="kdenlive:id">20</property>
   <property name="kdenlive:activeeffect">2</property>
   <filter id="filter0">
    <property name="window">75</property>
    <property name="max_gain">20dB</property>
    <property name="level">00:00:04.838=-22</property>
    <property name="mlt_service">volume</property>
    <property name="kdenlive_id">volume</property>
    <property name="kdenlive:collapsed">0</property>
   </filter>
   <filter id="filter1" in="00:00:04.838" out="00:00:05.873">
    <property name="window">75</property>
    <property name="max_gain">20dB</property>
    <property name="mlt_service">volume</property>
    <property name="kdenlive_id">fadein</property>
    <property name="gain">0</property>
    <property name="end">1</property>
    <property name="kdenlive:collapsed">0</property>
   </filter>
   <filter id="filter2" in="00:00:07.274" out="00:00:08.308">
    <property name="window">75</property>
    <property name="max_gain">20dB</property>
    <property name="mlt_service">volume</property>
    <property name="kdenlive_id">fadeout</property>
    <property name="gain">1</property>
    <property name="end">0</property>
    <property name="kdenlive:collapsed">0</property>
   </filter>
  </entry>
 </playlist>
 <playlist id="playlist1">
  <property name="kdenlive:audio_track">1</property>
 </playlist>
 <tractor id="tractor0" in="00:00:00.000" out="00:00:38.538">
  <property name="kdenlive:audio_track">1</property>
  <property name="kdenlive:trackheight">69</property>
  <property name="kdenlive:timeline_active">1</property>
  <property name="kdenlive:collapsed">0</property>
  <property name="kdenlive:thumbs_format"/>
  <property name="kdenlive:audio_rec"/>
  <track hide="video" producer="playlist0"/>
  <track hide="video" producer="playlist1"/>
  <filter id="filter3">
   <property name="window">75</property>
   <property name="max_gain">20dB</property>
   <property name="mlt_service">volume</property>
   <property name="internal_added">237</property>
   <property name="disable">1</property>
  </filter>
  <filter id="filter4">
   <property name="channel">-1</property>
   <property name="mlt_service">panner</property>
   <property name="internal_added">237</property>
   <property name="start">0.5</property>
   <property name="disable">1</property>
  </filter>
  <filter id="filter5">
   <property name="iec_scale">0</property>
   <property name="mlt_service">audiolevel</property>
   <property name="dbpeak">1</property>
   <property name="disable">1</property>
  </filter>
 </tractor>
 <producer id="producer74" in="00:00:00.000" out="00:00:59.059">
  <property name="length">1771</property>
  <property name="eof">pause</property>
  <property name="resource">GX010108_lowres.mp4</property>
  <property name="audio_index">1</property>
  <property name="video_index">0</property>
  <property name="mute_on_pause">0</property>
  <property name="mlt_service">avformat-novalidate</property>
  <property name="seekable">1</property>
  <property name="aspect_ratio">1</property>
  <property name="format">3</property>
  <property name="kdenlive:clipname"/>
  <property name="kdenlive:clip_type">0</property>
  <property name="kdenlive:folderid">-1</property>
  <property name="kdenlive:id">2</property>
  <property name="kdenlive:file_size">12874461</property>
  <property name="kdenlive:file_hash">649a2172546b33a7edeeba72e4c499c9</property>
  <property name="kdenlive:audio_max1">174</property>
  <property name="xml">was here</property>
  <property name="meta.media.nb_streams">3</property>
  <property name="meta.media.0.stream.type">video</property>
  <property name="meta.media.0.stream.frame_rate">29.97</property>
  <property name="meta.media.0.stream.sample_aspect_ratio">1</property>
  <property name="meta.media.0.codec.width">1920</property>
  <property name="meta.media.0.codec.height">1080</property>
  <property name="meta.media.0.codec.rotate">0</property>
  <property name="meta.media.0.codec.pix_fmt">yuvj420p</property>
  <property name="meta.media.0.codec.sample_aspect_ratio">1</property>
  <property name="meta.media.0.codec.colorspace">709</property>
  <property name="meta.media.0.codec.color_trc">1</property>
  <property name="meta.media.0.codec.name">hevc</property>
  <property name="meta.media.0.codec.long_name">HEVC (High Efficiency Video Coding)</property>
  <property name="meta.media.0.codec.bit_rate">1599167</property>
  <property name="meta.attr.0.stream.language.markup">eng</property>
  <property name="meta.attr.0.stream.handler_name.markup">GoPro H.265</property>
  <property name="meta.attr.0.stream.vendor_id.markup">[0][0][0][0]</property>
  <property name="meta.attr.0.stream.encoder.markup">Lavc59.37.100 libx265</property>
  <property name="meta.attr.0.stream.timecode.markup">17:43:32:15</property>
  <property name="meta.media.1.stream.type">audio</property>
  <property name="meta.media.1.codec.sample_fmt">fltp</property>
  <property name="meta.media.1.codec.sample_rate">48000</property>
  <property name="meta.media.1.codec.channels">2</property>
  <property name="meta.media.1.codec.name">aac</property>
  <property name="meta.media.1.codec.long_name">AAC (Advanced Audio Coding)</property>
  <property name="meta.media.1.codec.bit_rate">134538</property>
  <property name="meta.attr.1.stream.language.markup">eng</property>
  <property name="meta.attr.1.stream.handler_name.markup">GoPro AAC  </property>
  <property name="meta.attr.1.stream.vendor_id.markup">[0][0][0][0]</property>
  <property name="meta.attr.major_brand.markup">isom</property>
  <property name="meta.attr.minor_version.markup">512</property>
  <property name="meta.attr.compatible_brands.markup">isomiso2mp41</property>
  <property name="meta.attr.encoder.markup">Lavf59.27.100</property>
  <property name="meta.attr.location-eng.markup">+48.1703+011.5512/</property>
  <property name="meta.attr.location.markup">+48.1703+011.5512/</property>
  <property name="meta.media.sample_aspect_num">1</property>
  <property name="meta.media.sample_aspect_den">1</property>
  <property name="meta.media.frame_rate_num">30000</property>
  <property name="meta.media.frame_rate_den">1001</property>
  <property name="meta.media.colorspace">709</property>
  <property name="meta.media.color_trc">1</property>
  <property name="meta.media.has_b_frames">2</property>
  <property name="meta.media.width">1920</property>
  <property name="meta.media.height">1080</property>
  <property name="meta.media.color_range">full</property>
  <property name="meta.media.top_field_first">0</property>
  <property name="meta.media.progressive">1</property>
  <property name="set.test_audio">0</property>
  <property name="set.test_image">1</property>
 </producer>
 <producer id="producer75" in="00:00:00.000" out="00:02:40.107">
  <property name="length">4799</property>
  <property name="eof">pause</property>
  <property name="resource">GX010090_lowres.mp4</property>
  <property name="audio_index">1</property>
  <property name="video_index">0</property>
  <property name="mute_on_pause">0</property>
  <property name="mlt_service">avformat-novalidate</property>
  <property name="seekable">1</property>
  <property name="aspect_ratio">1</property>
  <property name="format">3</property>
  <property name="kdenlive:clipname"/>
  <property name="kdenlive:clip_type">0</property>
  <property name="kdenlive:folderid">-1</property>
  <property name="kdenlive:id">5</property>
  <property name="kdenlive:file_size">30183144</property>
  <property name="kdenlive:file_hash">07cd873aa96f789abf0143f0ad128844</property>
  <property name="kdenlive:audio_max1">180</property>
  <property name="xml">was here</property>
  <property name="meta.media.nb_streams">3</property>
  <property name="meta.media.0.stream.type">video</property>
  <property name="meta.media.0.stream.frame_rate">29.97</property>
  <property name="meta.media.0.stream.sample_aspect_ratio">1</property>
  <property name="meta.media.0.codec.width">1920</property>
  <property name="meta.media.0.codec.height">1080</property>
  <property name="meta.media.0.codec.rotate">0</property>
  <property name="meta.media.0.codec.pix_fmt">yuvj420p</property>
  <property name="meta.media.0.codec.sample_aspect_ratio">1</property>
  <property name="meta.media.0.codec.colorspace">709</property>
  <property name="meta.media.0.codec.color_trc">1</property>
  <property name="meta.media.0.codec.name">hevc</property>
  <property name="meta.media.0.codec.long_name">HEVC (High Efficiency Video Coding)</property>
  <property name="meta.media.0.codec.bit_rate">1364353</property>
  <property name="meta.attr.0.stream.language.markup">eng</property>
  <property name="meta.attr.0.stream.handler_name.markup">GoPro H.265</property>
  <property name="meta.attr.0.stream.vendor_id.markup">[0][0][0][0]</property>
  <property name="meta.attr.0.stream.encoder.markup">Lavc59.37.100 libx265</property>
  <property name="meta.attr.0.stream.timecode.markup">17:25:18:24</property>
  <property name="meta.media.1.stream.type">audio</property>
  <property name="meta.media.1.codec.sample_fmt">fltp</property>
  <property name="meta.media.1.codec.sample_rate">48000</property>
  <property name="meta.media.1.codec.channels">2</property>
  <property name="meta.media.1.codec.name">aac</property>
  <property name="meta.media.1.codec.long_name">AAC (Advanced Audio Coding)</property>
  <property name="meta.media.1.codec.bit_rate">134719</property>
  <property name="meta.attr.1.stream.language.markup">eng</property>
  <property name="meta.attr.1.stream.handler_name.markup">GoPro AAC  </property>
  <property name="meta.attr.1.stream.vendor_id.markup">[0][0][0][0]</property>
  <property name="meta.attr.major_brand.markup">isom</property>
  <property name="meta.attr.minor_version.markup">512</property>
  <property name="meta.attr.compatible_brands.markup">isomiso2mp41</property>
  <property name="meta.attr.encoder.markup">Lavf59.27.100</property>
  <property name="meta.attr.location-eng.markup">+48.1703+011.5512/</property>
  <property name="meta.attr.location.markup">+48.1703+011.5512/</property>
  <property name="meta.media.sample_aspect_num">1</property>
  <property name="meta.media.sample_aspect_den">1</property>
  <property name="meta.media.frame_rate_num">30000</property>
  <property name="meta.media.frame_rate_den">1001</property>
  <property name="meta.media.colorspace">709</property>
  <property name="meta.media.color_trc">1</property>
  <property name="meta.media.has_b_frames">2</property>
  <property name="meta.media.width">1920</property>
  <property name="meta.media.height">1080</property>
  <property name="meta.media.color_range">full</property>
  <property name="meta.media.top_field_first">0</property>
  <property name="meta.media.progressive">1</property>
  <property name="set.test_audio">0</property>
  <property name="set.test_image">1</property>
 </producer>
 <producer id="producer76" in="00:00:00.000" out="00:01:07.741">
  <property name="length">2031</property>
  <property name="eof">pause</property>
  <property name="resource">GX010104_lowres.mp4</property>
  <property name="audio_index">1</property>
  <property name="video_index">0</property>
  <property name="mute_on_pause">0</property>
  <property name="mlt_service">avformat-novalidate</property>
  <property name="seekable">1</property>
  <property name="aspect_ratio">1</property>
  <property name="format">3</property>
  <property name="kdenlive:clipname"/>
  <property name="kdenlive:clip_type">0</property>
  <property name="kdenlive:folderid">-1</property>
  <property name="kdenlive:id">4</property>
  <property name="kdenlive:file_size">12597506</property>
  <property name="kdenlive:file_hash">40e214fb8e4c6ae859dedf5aa8372cc6</property>
  <property name="kdenlive:audio_max1">182</property>
  <property name="xml">was here</property>
  <property name="meta.media.nb_streams">3</property>
  <property name="meta.media.0.stream.type">video</property>
  <property name="meta.media.0.stream.frame_rate">29.97</property>
  <property name="meta.media.0.stream.sample_aspect_ratio">1</property>
  <property name="meta.media.0.codec.width">1920</property>
  <property name="meta.media.0.codec.height">1080</property>
  <property name="meta.media.0.codec.rotate">0</property>
  <property name="meta.media.0.codec.pix_fmt">yuvj420p</property>
  <property name="meta.media.0.codec.sample_aspect_ratio">1</property>
  <property name="meta.media.0.codec.colorspace">709</property>
  <property name="meta.media.0.codec.color_trc">1</property>
  <property name="meta.media.0.codec.name">hevc</property>
  <property name="meta.media.0.codec.long_name">HEVC (High Efficiency Video Coding)</property>
  <property name="meta.media.0.codec.bit_rate">1343877</property>
  <property name="meta.attr.0.stream.language.markup">eng</property>
  <property name="meta.attr.0.stream.handler_name.markup">GoPro H.265</property>
  <property name="meta.attr.0.stream.vendor_id.markup">[0][0][0][0]</property>
  <property name="meta.attr.0.stream.encoder.markup">Lavc59.37.100 libx265</property>
  <property name="meta.attr.0.stream.timecode.markup">17:38:13:01</property>
  <property name="meta.media.1.stream.type">audio</property>
  <property name="meta.media.1.codec.sample_fmt">fltp</property>
  <property name="meta.media.1.codec.sample_rate">48000</property>
  <property name="meta.media.1.codec.channels">2</property>
  <property name="meta.media.1.codec.name">aac</property>
  <property name="meta.media.1.codec.long_name">AAC (Advanced Audio Coding)</property>
  <property name="meta.media.1.codec.bit_rate">134070</property>
  <property name="meta.attr.1.stream.language.markup">eng</property>
  <property name="meta.attr.1.stream.handler_name.markup">GoPro AAC  </property>
  <property name="meta.attr.1.stream.vendor_id.markup">[0][0][0][0]</property>
  <property name="meta.attr.major_brand.markup">isom</property>
  <property name="meta.attr.minor_version.markup">512</property>
  <property name="meta.attr.compatible_brands.markup">isomiso2mp41</property>
  <property name="meta.attr.encoder.markup">Lavf59.27.100</property>
  <property name="meta.attr.location-eng.markup">+48.1703+011.5512/</property>
  <property name="meta.attr.location.markup">+48.1703+011.5512/</property>
  <property name="meta.media.sample_aspect_num">1</property>
  <property name="meta.media.sample_aspect_den">1</property>
  <property name="meta.media.frame_rate_num">30000</property>
  <property name="meta.media.frame_rate_den">1001</property>
  <property name="meta.media.colorspace">709</property>
  <property name="meta.media.color_trc">1</property>
  <property name="meta.media.has_b_frames">2</property>
  <property name="meta.media.width">1920</property>
  <property name="meta.media.height">1080</property>
  <property name="meta.media.color_range">full</property>
  <property name="meta.media.top_field_first">0</property>
  <property name="meta.media.progressive">1</property>
  <property name="set.test_audio">0</property>
  <property name="set.test_image">1</property>
 </producer>
 <playlist id="playlist2">
  <property name="kdenlive:audio_track">1</property>
  <entry producer="producer74" in="00:00:11.812" out="00:00:55.856">
   <property name="kdenlive:id">2</property>
  </entry>
  <entry producer="producer75" in="00:00:00.000" out="00:00:38.438">
   <property name="kdenlive:id">5</property>
   <filter id="filter6">
    <property name="window">75</property>
    <property name="max_gain">20dB</property>
    <property name="level">00:00:00.000=10.8911;00:00:03.370=0</property>
    <property name="mlt_service">volume</property>
    <property name="kdenlive_id">volume</property>
    <property name="kdenlive:collapsed">0</property>
   </filter>
  </entry>
  <entry producer="producer75" in="00:00:38.472" out="00:01:08.175">
   <property name="kdenlive:id">5</property>
   <filter id="filter8">
    <property name="window">75</property>
    <property name="max_gain">20dB</property>
    <property name="level">00:00:38.472=0</property>
    <property name="mlt_service">volume</property>
    <property name="kdenlive_id">volume</property>
    <property name="kdenlive:collapsed">0</property>
   </filter>
  </entry>
  <entry producer="producer75" in="00:01:08.208" out="00:01:29.796">
   <property name="kdenlive:id">5</property>
   <filter id="filter7">
    <property name="window">75</property>
    <property name="max_gain">20dB</property>
    <property name="level">00:01:08.208=0</property>
    <property name="mlt_service">volume</property>
    <property name="kdenlive_id">volume</property>
   </filter>
  </entry>
  <entry producer="producer76" in="00:00:13.947" out="00:01:07.741">
   <property name="kdenlive:id">4</property>
  </entry>
 </playlist>
 <playlist id="playlist3">
  <property name="kdenlive:audio_track">1</property>
 </playlist>
 <tractor id="tractor1" in="00:00:00.000" out="00:03:07.708">
  <property name="kdenlive:audio_track">1</property>
  <property name="kdenlive:trackheight">69</property>
  <property name="kdenlive:timeline_active">1</property>
  <property name="kdenlive:collapsed">0</property>
  <property name="kdenlive:thumbs_format"/>
  <property name="kdenlive:audio_rec"/>
  <track hide="video" producer="playlist2"/>
  <track hide="video" producer="playlist3"/>
  <filter id="filter9">
   <property name="window">75</property>
   <property name="max_gain">20dB</property>
   <property name="mlt_service">volume</property>
   <property name="internal_added">237</property>
   <property name="disable">1</property>
  </filter>
  <filter id="filter10">
   <property name="channel">-1</property>
   <property name="mlt_service">panner</property>
   <property name="internal_added">237</property>
   <property name="start">0.5</property>
   <property name="disable">1</property>
  </filter>
  <filter id="filter11">
   <property name="iec_scale">0</property>
   <property name="mlt_service">audiolevel</property>
   <property name="dbpeak">1</property>
   <property name="disable">1</property>
  </filter>
 </tractor>
 <producer id="producer77" in="00:00:00.000" out="00:00:59.059">
  <property name="length">1771</property>
  <property name="eof">pause</property>
  <property name="resource">GX010108_lowres.mp4</property>
  <property name="audio_index">1</property>
  <property name="video_index">0</property>
  <property name="mute_on_pause">0</property>
  <property name="mlt_service">avformat-novalidate</property>
  <property name="seekable">1</property>
  <property name="aspect_ratio">1</property>
  <property name="format">3</property>
  <property name="kdenlive:clipname"/>
  <property name="kdenlive:clip_type">0</property>
  <property name="kdenlive:folderid">-1</property>
  <property name="kdenlive:id">2</property>
  <property name="kdenlive:file_size">12874461</property>
  <property name="kdenlive:file_hash">649a2172546b33a7edeeba72e4c499c9</property>
  <property name="kdenlive:audio_max1">174</property>
  <property name="xml">was here</property>
  <property name="meta.media.nb_streams">3</property>
  <property name="meta.media.0.stream.type">video</property>
  <property name="meta.media.0.stream.frame_rate">29.97</property>
  <property name="meta.media.0.stream.sample_aspect_ratio">1</property>
  <property name="meta.media.0.codec.width">1920</property>
  <property name="meta.media.0.codec.height">1080</property>
  <property name="meta.media.0.codec.rotate">0</property>
  <property name="meta.media.0.codec.pix_fmt">yuvj420p</property>
  <property name="meta.media.0.codec.sample_aspect_ratio">1</property>
  <property name="meta.media.0.codec.colorspace">709</property>
  <property name="meta.media.0.codec.color_trc">1</property>
  <property name="meta.media.0.codec.name">hevc</property>
  <property name="meta.media.0.codec.long_name">HEVC (High Efficiency Video Coding)</property>
  <property name="meta.media.0.codec.bit_rate">1599167</property>
  <property name="meta.attr.0.stream.language.markup">eng</property>
  <property name="meta.attr.0.stream.handler_name.markup">GoPro H.265</property>
  <property name="meta.attr.0.stream.vendor_id.markup">[0][0][0][0]</property>
  <property name="meta.attr.0.stream.encoder.markup">Lavc59.37.100 libx265</property>
  <property name="meta.attr.0.stream.timecode.markup">17:43:32:15</property>
  <property name="meta.media.1.stream.type">audio</property>
  <property name="meta.media.1.codec.sample_fmt">fltp</property>
  <property name="meta.media.1.codec.sample_rate">48000</property>
  <property name="meta.media.1.codec.channels">2</property>
  <property name="meta.media.1.codec.name">aac</property>
  <property name="meta.media.1.codec.long_name">AAC (Advanced Audio Coding)</property>
  <property name="meta.media.1.codec.bit_rate">134538</property>
  <property name="meta.attr.1.stream.language.markup">eng</property>
  <property name="meta.attr.1.stream.handler_name.markup">GoPro AAC  </property>
  <property name="meta.attr.1.stream.vendor_id.markup">[0][0][0][0]</property>
  <property name="meta.attr.major_brand.markup">isom</property>
  <property name="meta.attr.minor_version.markup">512</property>
  <property name="meta.attr.compatible_brands.markup">isomiso2mp41</property>
  <property name="meta.attr.encoder.markup">Lavf59.27.100</property>
  <property name="meta.attr.location-eng.markup">+48.1703+011.5512/</property>
  <property name="meta.attr.location.markup">+48.1703+011.5512/</property>
  <property name="meta.media.sample_aspect_num">1</property>
  <property name="meta.media.sample_aspect_den">1</property>
  <property name="meta.media.frame_rate_num">30000</property>
  <property name="meta.media.frame_rate_den">1001</property>
  <property name="meta.media.colorspace">709</property>
  <property name="meta.media.color_trc">1</property>
  <property name="meta.media.has_b_frames">2</property>
  <property name="meta.media.width">1920</property>
  <property name="meta.media.height">1080</property>
  <property name="meta.media.color_range">full</property>
  <property name="meta.media.top_field_first">0</property>
  <property name="meta.media.progressive">1</property>
  <property name="set.test_audio">1</property>
  <property name="set.test_image">0</property>
 </producer>
 <producer id="producer78" in="00:00:00.000" out="00:02:40.107">
  <property name="length">4799</property>
  <property name="eof">pause</property>
  <property name="resource">GX010090_lowres.mp4</property>
  <property name="audio_index">1</property>
  <property name="video_index">0</property>
  <property name="mute_on_pause">0</property>
  <property name="mlt_service">avformat-novalidate</property>
  <property name="seekable">1</property>
  <property name="aspect_ratio">1</property>
  <property name="format">3</property>
  <property name="kdenlive:clipname"/>
  <property name="kdenlive:clip_type">0</property>
  <property name="kdenlive:folderid">-1</property>
  <property name="kdenlive:id">5</property>
  <property name="kdenlive:file_size">30183144</property>
  <property name="kdenlive:file_hash">07cd873aa96f789abf0143f0ad128844</property>
  <property name="kdenlive:audio_max1">180</property>
  <property name="xml">was here</property>
  <property name="meta.media.nb_streams">3</property>
  <property name="meta.media.0.stream.type">video</property>
  <property name="meta.media.0.stream.frame_rate">29.97</property>
  <property name="meta.media.0.stream.sample_aspect_ratio">1</property>
  <property name="meta.media.0.codec.width">1920</property>
  <property name="meta.media.0.codec.height">1080</property>
  <property name="meta.media.0.codec.rotate">0</property>
  <property name="meta.media.0.codec.pix_fmt">yuvj420p</property>
  <property name="meta.media.0.codec.sample_aspect_ratio">1</property>
  <property name="meta.media.0.codec.colorspace">709</property>
  <property name="meta.media.0.codec.color_trc">1</property>
  <property name="meta.media.0.codec.name">hevc</property>
  <property name="meta.media.0.codec.long_name">HEVC (High Efficiency Video Coding)</property>
  <property name="meta.media.0.codec.bit_rate">1364353</property>
  <property name="meta.attr.0.stream.language.markup">eng</property>
  <property name="meta.attr.0.stream.handler_name.markup">GoPro H.265</property>
  <property name="meta.attr.0.stream.vendor_id.markup">[0][0][0][0]</property>
  <property name="meta.attr.0.stream.encoder.markup">Lavc59.37.100 libx265</property>
  <property name="meta.attr.0.stream.timecode.markup">17:25:18:24</property>
  <property name="meta.media.1.stream.type">audio</property>
  <property name="meta.media.1.codec.sample_fmt">fltp</property>
  <property name="meta.media.1.codec.sample_rate">48000</property>
  <property name="meta.media.1.codec.channels">2</property>
  <property name="meta.media.1.codec.name">aac</property>
  <property name="meta.media.1.codec.long_name">AAC (Advanced Audio Coding)</property>
  <property name="meta.media.1.codec.bit_rate">134719</property>
  <property name="meta.attr.1.stream.language.markup">eng</property>
  <property name="meta.attr.1.stream.handler_name.markup">GoPro AAC  </property>
  <property name="meta.attr.1.stream.vendor_id.markup">[0][0][0][0]</property>
  <property name="meta.attr.major_brand.markup">isom</property>
  <property name="meta.attr.minor_version.markup">512</property>
  <property name="meta.attr.compatible_brands.markup">isomiso2mp41</property>
  <property name="meta.attr.encoder.markup">Lavf59.27.100</property>
  <property name="meta.attr.location-eng.markup">+48.1703+011.5512/</property>
  <property name="meta.attr.location.markup">+48.1703+011.5512/</property>
  <property name="meta.media.sample_aspect_num">1</property>
  <property name="meta.media.sample_aspect_den">1</property>
  <property name="meta.media.frame_rate_num">30000</property>
  <property name="meta.media.frame_rate_den">1001</property>
  <property name="meta.media.colorspace">709</property>
  <property name="meta.media.color_trc">1</property>
  <property name="meta.media.has_b_frames">2</property>
  <property name="meta.media.width">1920</property>
  <property name="meta.media.height">1080</property>
  <property name="meta.media.color_range">full</property>
  <property name="meta.media.top_field_first">0</property>
  <property name="meta.media.progressive">1</property>
  <property name="set.test_audio">1</property>
  <property name="set.test_image">0</property>
 </producer>
 <producer id="producer79" in="00:00:00.000" out="00:01:07.741">
  <property name="length">2031</property>
  <property name="eof">pause</property>
  <property name="resource">GX010104_lowres.mp4</property>
  <property name="audio_index">1</property>
  <property name="video_index">0</property>
  <property name="mute_on_pause">0</property>
  <property name="mlt_service">avformat-novalidate</property>
  <property name="seekable">1</property>
  <property name="aspect_ratio">1</property>
  <property name="format">3</property>
  <property name="kdenlive:clipname"/>
  <property name="kdenlive:clip_type">0</property>
  <property name="kdenlive:folderid">-1</property>
  <property name="kdenlive:id">4</property>
  <property name="kdenlive:file_size">12597506</property>
  <property name="kdenlive:file_hash">40e214fb8e4c6ae859dedf5aa8372cc6</property>
  <property name="kdenlive:audio_max1">182</property>
  <property name="xml">was here</property>
  <property name="meta.media.nb_streams">3</property>
  <property name="meta.media.0.stream.type">video</property>
  <property name="meta.media.0.stream.frame_rate">29.97</property>
  <property name="meta.media.0.stream.sample_aspect_ratio">1</property>
  <property name="meta.media.0.codec.width">1920</property>
  <property name="meta.media.0.codec.height">1080</property>
  <property name="meta.media.0.codec.rotate">0</property>
  <property name="meta.media.0.codec.pix_fmt">yuvj420p</property>
  <property name="meta.media.0.codec.sample_aspect_ratio">1</property>
  <property name="meta.media.0.codec.colorspace">709</property>
  <property name="meta.media.0.codec.color_trc">1</property>
  <property name="meta.media.0.codec.name">hevc</property>
  <property name="meta.media.0.codec.long_name">HEVC (High Efficiency Video Coding)</property>
  <property name="meta.media.0.codec.bit_rate">1343877</property>
  <property name="meta.attr.0.stream.language.markup">eng</property>
  <property name="meta.attr.0.stream.handler_name.markup">GoPro H.265</property>
  <property name="meta.attr.0.stream.vendor_id.markup">[0][0][0][0]</property>
  <property name="meta.attr.0.stream.encoder.markup">Lavc59.37.100 libx265</property>
  <property name="meta.attr.0.stream.timecode.markup">17:38:13:01</property>
  <property name="meta.media.1.stream.type">audio</property>
  <property name="meta.media.1.codec.sample_fmt">fltp</property>
  <property name="meta.media.1.codec.sample_rate">48000</property>
  <property name="meta.media.1.codec.channels">2</property>
  <property name="meta.media.1.codec.name">aac</property>
  <property name="meta.media.1.codec.long_name">AAC (Advanced Audio Coding)</property>
  <property name="meta.media.1.codec.bit_rate">134070</property>
  <property name="meta.attr.1.stream.language.markup">eng</property>
  <property name="meta.attr.1.stream.handler_name.markup">GoPro AAC  </property>
  <property name="meta.attr.1.stream.vendor_id.markup">[0][0][0][0]</property>
  <property name="meta.attr.major_brand.markup">isom</property>
  <property name="meta.attr.minor_version.markup">512</property>
  <property name="meta.attr.compatible_brands.markup">isomiso2mp41</property>
  <property name="meta.attr.encoder.markup">Lavf59.27.100</property>
  <property name="meta.attr.location-eng.markup">+48.1703+011.5512/</property>
  <property name="meta.attr.location.markup">+48.1703+011.5512/</property>
  <property name="meta.media.sample_aspect_num">1</property>
  <property name="meta.media.sample_aspect_den">1</property>
  <property name="meta.media.frame_rate_num">30000</property>
  <property name="meta.media.frame_rate_den">1001</property>
  <property name="meta.media.colorspace">709</property>
  <property name="meta.media.color_trc">1</property>
  <property name="meta.media.has_b_frames">2</property>
  <property name="meta.media.width">1920</property>
  <property name="meta.media.height">1080</property>
  <property name="meta.media.color_range">full</property>
  <property name="meta.media.top_field_first">0</property>
  <property name="meta.media.progressive">1</property>
  <property name="set.test_audio">1</property>
  <property name="set.test_image">0</property>
 </producer>
 <playlist id="playlist4">
  <entry producer="producer77" in="00:00:11.812" out="00:00:55.856">
   <property name="kdenlive:id">2</property>
   <property name="kdenlive:activeeffect">1</property>
   <filter id="filter12">
    <property name="version">0.3</property>
    <property name="mlt_service">frei0r.balanc0r</property>
    <property name="kdenlive_id">frei0r.balanc0r</property>
    <property name="Neutral Color">0x5c6076ff</property>
    <property name="Green Tint">00:00:11.812=0.1333</property>
    <property name="kdenlive:collapsed">0</property>
    <property name="disable">0</property>
   </filter>
  </entry>
  <entry producer="producer78" in="00:00:00.000" out="00:00:38.939">
   <property name="kdenlive:id">5</property>
   <property name="kdenlive:activeeffect">2</property>
   <filter id="filter13">
    <property name="version">0.3</property>
    <property name="mlt_service">frei0r.balanc0r</property>
    <property name="kdenlive_id">frei0r.balanc0r</property>
    <property name="Neutral Color">0x5f5953ff</property>
    <property name="Green Tint">00:00:00.000=0.1333</property>
    <property name="kdenlive:collapsed">0</property>
    <property name="disable">0</property>
   </filter>
   <filter id="filter14">
    <property name="mlt_service">avfilter.zoompan</property>
    <property name="kdenlive_id">avfilter.zoompan</property>
    <property name="av.z">1.16124</property>
    <property name="av.x">0</property>
    <property name="av.y">121</property>
    <property name="av.d">1</property>
    <property name="kdenlive:collapsed">0</property>
   </filter>
   <filter id="filter15">
    <property name="start">1</property>
    <property name="level">00:00:00.000=1.09</property>
    <property name="mlt_service">brightness</property>
    <property name="kdenlive_id">brightness</property>
    <property name="kdenlive:collapsed">0</property>
    <property name="disable">0</property>
   </filter>
  </entry>
  <blank length="00:00:28.729"/>
  <entry producer="producer78" in="00:01:07.708" out="00:01:29.796">
   <property name="kdenlive:id">5</property>
   <property name="kdenlive:activeeffect">0</property>
   <filter id="filter16">
    <property name="version">0.3</property>
    <property name="mlt_service">frei0r.balanc0r</property>
    <property name="kdenlive_id">frei0r.balanc0r</property>
    <property name="Neutral Color">0x5f5953ff</property>
    <property name="Green Tint">00:01:07.708=0.1333</property>
    <property name="kdenlive:collapsed">0</property>
   </filter>
   <filter id="filter17">
    <property name="start">1</property>
    <property name="level">00:01:07.708=1.09</property>
    <property name="mlt_service">brightness</property>
    <property name="kdenlive_id">brightness</property>
    <property name="kdenlive:collapsed">0</property>
   </filter>
  </entry>
  <entry producer="producer79" in="00:00:13.947" out="00:01:07.741">
   <property name="kdenlive:id">4</property>
   <property name="kdenlive:activeeffect">0</property>
   <filter id="filter18">
    <property name="version">0.3</property>
    <property name="mlt_service">frei0r.balanc0r</property>
    <property name="kdenlive_id">frei0r.balanc0r</property>
    <property name="Neutral Color">0x595a68ff</property>
    <property name="Green Tint">00:00:13.947=0.1333</property>
    <property name="kdenlive:collapsed">0</property>
    <property name="disable">0</property>
   </filter>
  </entry>
 </playlist>
 <producer id="producer80" in="00:00:00.000" out="00:02:40.107">
  <property name="length">4799</property>
  <property name="eof">pause</property>
  <property name="resource">GX010090_lowres.mp4</property>
  <property name="audio_index">1</property>
  <property name="video_index">0</property>
  <property name="mute_on_pause">0</property>
  <property name="mlt_service">avformat-novalidate</property>
  <property name="seekable">1</property>
  <property name="aspect_ratio">1</property>
  <property name="format">3</property>
  <property name="kdenlive:clipname"/>
  <property name="kdenlive:clip_type">0</property>
  <property name="kdenlive:folderid">-1</property>
  <property name="kdenlive:id">5</property>
  <property name="kdenlive:file_size">30183144</property>
  <property name="kdenlive:file_hash">07cd873aa96f789abf0143f0ad128844</property>
  <property name="kdenlive:audio_max1">180</property>
  <property name="xml">was here</property>
  <property name="meta.media.nb_streams">3</property>
  <property name="meta.media.0.stream.type">video</property>
  <property name="meta.media.0.stream.frame_rate">29.97</property>
  <property name="meta.media.0.stream.sample_aspect_ratio">1</property>
  <property name="meta.media.0.codec.width">1920</property>
  <property name="meta.media.0.codec.height">1080</property>
  <property name="meta.media.0.codec.rotate">0</property>
  <property name="meta.media.0.codec.pix_fmt">yuvj420p</property>
  <property name="meta.media.0.codec.sample_aspect_ratio">1</property>
  <property name="meta.media.0.codec.colorspace">709</property>
  <property name="meta.media.0.codec.color_trc">1</property>
  <property name="meta.media.0.codec.name">hevc</property>
  <property name="meta.media.0.codec.long_name">HEVC (High Efficiency Video Coding)</property>
  <property name="meta.media.0.codec.bit_rate">1364353</property>
  <property name="meta.attr.0.stream.language.markup">eng</property>
  <property name="meta.attr.0.stream.handler_name.markup">GoPro H.265</property>
  <property name="meta.attr.0.stream.vendor_id.markup">[0][0][0][0]</property>
  <property name="meta.attr.0.stream.encoder.markup">Lavc59.37.100 libx265</property>
  <property name="meta.attr.0.stream.timecode.markup">17:25:18:24</property>
  <property name="meta.media.1.stream.type">audio</property>
  <property name="meta.media.1.codec.sample_fmt">fltp</property>
  <property name="meta.media.1.codec.sample_rate">48000</property>
  <property name="meta.media.1.codec.channels">2</property>
  <property name="meta.media.1.codec.name">aac</property>
  <property name="meta.media.1.codec.long_name">AAC (Advanced Audio Coding)</property>
  <property name="meta.media.1.codec.bit_rate">134719</property>
  <property name="meta.attr.1.stream.language.markup">eng</property>
  <property name="meta.attr.1.stream.handler_name.markup">GoPro AAC  </property>
  <property name="meta.attr.1.stream.vendor_id.markup">[0][0][0][0]</property>
  <property name="meta.attr.major_brand.markup">isom</property>
  <property name="meta.attr.minor_version.markup">512</property>
  <property name="meta.attr.compatible_brands.markup">isomiso2mp41</property>
  <property name="meta.attr.encoder.markup">Lavf59.27.100</property>
  <property name="meta.attr.location-eng.markup">+48.1703+011.5512/</property>
  <property name="meta.attr.location.markup">+48.1703+011.5512/</property>
  <property name="meta.media.sample_aspect_num">1</property>
  <property name="meta.media.sample_aspect_den">1</property>
  <property name="meta.media.frame_rate_num">30000</property>
  <property name="meta.media.frame_rate_den">1001</property>
  <property name="meta.media.colorspace">709</property>
  <property name="meta.media.color_trc">1</property>
  <property name="meta.media.has_b_frames">2</property>
  <property name="meta.media.width">1920</property>
  <property name="meta.media.height">1080</property>
  <property name="meta.media.color_range">full</property>
  <property name="meta.media.top_field_first">0</property>
  <property name="meta.media.progressive">1</property>
  <property name="set.test_audio">1</property>
  <property name="set.test_image">0</property>
 </producer>
 <playlist id="playlist5">
  <blank length="00:01:22.055"/>
  <entry producer="producer80" in="00:00:37.971" out="00:01:08.675">
   <property name="kdenlive:id">5</property>
   <property name="kdenlive:activeeffect">3</property>
   <filter id="filter19">
    <property name="version">0.3</property>
    <property name="mlt_service">frei0r.balanc0r</property>
    <property name="kdenlive_id">frei0r.balanc0r</property>
    <property name="Neutral Color">0x5f5953ff</property>
    <property name="Green Tint">00:00:37.971=0.1333</property>
    <property name="kdenlive:collapsed">0</property>
   </filter>
   <filter id="filter20">
    <property name="mlt_service">avfilter.gblur</property>
    <property name="kdenlive_id">avfilter.gblur</property>
    <property name="av.sigma">12</property>
    <property name="av.steps">1</property>
    <property name="av.planes">7</property>
    <property name="av.sigmaV">-1</property>
    <property name="kdenlive:collapsed">0</property>
    <property name="disable">0</property>
   </filter>
   <filter id="filter21">
    <property name="start">1</property>
    <property name="level">00:00:37.971=1.09</property>
    <property name="mlt_service">brightness</property>
    <property name="kdenlive_id">brightness</property>
    <property name="kdenlive:collapsed">0</property>
    <property name="disable">0</property>
   </filter>
   <filter id="filter22">
    <property name="mlt_service">avfilter.zoompan</property>
    <property name="kdenlive_id">avfilter.zoompan</property>
    <property name="av.z">1.2</property>
    <property name="av.x">0</property>
    <property name="av.y">42</property>
    <property name="av.d">1</property>
    <property name="kdenlive:collapsed">0</property>
   </filter>
  </entry>
 </playlist>
 <tractor id="tractor2" in="00:00:00.000" out="00:03:07.708">
  <property name="kdenlive:trackheight">69</property>
  <property name="kdenlive:timeline_active">1</property>
  <property name="kdenlive:collapsed">0</property>
  <property name="kdenlive:thumbs_format"/>
  <property name="kdenlive:audio_rec"/>
  <track hide="audio" producer="playlist4"/>
  <track hide="audio" producer="playlist5"/>
  <transition id="transition0" in="00:01:22.055" out="00:01:23.056">
   <property name="a_track">0</property>
   <property name="b_track">1</property>
   <property name="factory">loader</property>
   <property name="resource"/>
   <property name="mlt_service">luma</property>
   <property name="kdenlive_id">luma</property>
   <property name="kdenlive:mixcut">15</property>
   <property name="softness">0</property>
   <property name="alpha_over">1</property>
   <property name="invert">0</property>
   <property name="reverse">0</property>
  </transition>
  <transition id="transition3" in="00:01:51.785" out="00:01:52.786">
   <property name="a_track">0</property>
   <property name="b_track">1</property>
   <property name="factory">loader</property>
   <property name="resource"/>
   <property name="mlt_service">luma</property>
   <property name="kdenlive_id">luma</property>
   <property name="kdenlive:mixcut">15</property>
   <property name="reverse">1</property>
   <property name="softness">0</property>
   <property name="alpha_over">1</property>
   <property name="invert">0</property>
  </transition>
 </tractor>
 <playlist id="playlist6">
  <entry producer="producer8" in="00:00:00.000" out="00:00:10.611">
   <property name="kdenlive:id">10</property>
  </entry>
  <blank length="00:00:05.038"/>
  <entry producer="producer5" in="00:00:00.000" out="00:00:04.204">
   <property name="kdenlive:id">7</property>
   <filter id="filter23">
    <property name="rotate_center">1</property>
    <property name="mlt_service">qtblend</property>
    <property name="kdenlive_id">qtblend</property>
    <property name="rect">00:00:00.000=701 232 1920 1080 1.000000</property>
    <property name="rotation">00:00:00.000=0</property>
    <property name="compositing">0</property>
    <property name="distort">0</property>
    <property name="kdenlive:collapsed">0</property>
   </filter>
  </entry>
  <blank length="00:00:07.608"/>
  <entry producer="producer14" in="00:00:00.000" out="00:00:12.880">
   <property name="kdenlive:id">16</property>
   <property name="kdenlive:activeeffect">0</property>
   <filter id="filter24">
    <property name="rotate_center">1</property>
    <property name="mlt_service">qtblend</property>
    <property name="kdenlive_id">qtblend</property>
    <property name="rect">00:00:00.000=1191 581 653 644 1.000000</property>
    <property name="rotation">00:00:00.000=0</property>
    <property name="compositing">0</property>
    <property name="distort">0</property>
    <property name="kdenlive:collapsed">0</property>
   </filter>
   <filter id="filter25">
    <property name="version">1.1</property>
    <property name="mlt_service">frei0r.rgbsplit0r</property>
    <property name="kdenlive_id">frei0r.rgbsplit0r</property>
    <property name="0">00:00:00.000=0.5</property>
    <property name="1">00:00:00.000=0.5</property>
    <property name="kdenlive:collapsed">0</property>
   </filter>
   <filter id="filter26">
    <property name="mlt_service">avfilter.rgbashift</property>
    <property name="kdenlive_id">avfilter.rgbashift</property>
    <property name="av.rh">0</property>
    <property name="av.rv">0</property>
    <property name="av.gh">0</property>
    <property name="av.gv">0</property>
    <property name="av.bh">0</property>
    <property name="av.bv">0</property>
    <property name="av.ah">0</property>
    <property name="av.av">0</property>
    <property name="av.edge">smear</property>
    <property name="kdenlive:collapsed">0</property>
   </filter>
  </entry>
  <blank length="00:00:11.211"/>
  <entry producer="producer19" in="00:00:00.000" out="00:00:06.707">
   <property name="kdenlive:id">21</property>
   <filter id="filter27">
    <property name="rotate_center">1</property>
    <property name="mlt_service">qtblend</property>
    <property name="kdenlive_id">qtblend</property>
    <property name="rect">00:00:00.000=1201 79 277 259 1.000000</property>
    <property name="rotation">00:00:00.000=0</property>
    <property name="compositing">0</property>
    <property name="distort">0</property>
    <property name="kdenlive:collapsed">0</property>
   </filter>
  </entry>
  <blank length="00:00:24.157"/>
  <entry producer="producer27" in="00:00:00.000" out="00:00:03.237">
   <property name="kdenlive:id">29</property>
   <filter id="filter28">
    <property name="rotate_center">1</property>
    <property name="mlt_service">qtblend</property>
    <property name="kdenlive_id">qtblend</property>
    <property name="rect">00:00:00.000=237 250 1792 951 0.000000;00:00:00.501=237 250 1792 951 1.000000</property>
    <property name="rotation">00:00:00.000=0;00:00:00.501=0</property>
    <property name="compositing">0</property>
    <property name="distort">0</property>
    <property name="kdenlive:collapsed">0</property>
   </filter>
   <filter id="filter29" in="00:00:02.669" out="00:00:03.237">
    <property name="start">1</property>
    <property name="level">1</property>
    <property name="mlt_service">brightness</property>
    <property name="kdenlive_id">fade_to_black</property>
    <property name="alpha">00:00:00.000=1;00:00:00.567=0</property>
   </filter>
  </entry>
  <entry producer="producer32" in="00:00:00.000" out="00:00:06.907">
   <property name="kdenlive:id">34</property>
   <filter id="filter30">
    <property name="rotate_center">1</property>
    <property name="mlt_service">qtblend</property>
    <property name="kdenlive_id">qtblend</property>
    <property name="rect">00:00:00.000=-111 335 1253 736 1.000000</property>
    <property name="rotation">00:00:00.000=0</property>
    <property name="compositing">0</property>
    <property name="distort">0</property>
    <property name="kdenlive:collapsed">0</property>
   </filter>
   <filter id="filter31" out="00:00:00.901">
    <property name="start">1</property>
    <property name="level">1</property>
    <property name="mlt_service">brightness</property>
    <property name="kdenlive_id">fade_from_black</property>
    <property name="alpha">00:00:00.000=0;00:00:00.901=1</property>
   </filter>
   <filter id="filter32" in="00:00:06.740" out="00:00:06.907">
    <property name="start">1</property>
    <property name="level">1</property>
    <property name="mlt_service">brightness</property>
    <property name="kdenlive_id">fade_to_black</property>
    <property name="alpha">00:00:00.000=1;00:00:00.167=0</property>
   </filter>
  </entry>
  <entry producer="producer38" in="00:00:00.000" out="00:00:01.168">
   <property name="kdenlive:id">40</property>
   <filter id="filter33">
    <property name="rotate_center">1</property>
    <property name="mlt_service">qtblend</property>
    <property name="kdenlive_id">qtblend</property>
    <property name="rect">00:00:00.000=182 312 1792 951 1.000000</property>
    <property name="rotation">00:00:00.000=0</property>
    <property name="compositing">0</property>
    <property name="distort">0</property>
    <property name="kdenlive:collapsed">0</property>
   </filter>
   <filter id="filter34" in="00:00:00.934" out="00:00:01.168">
    <property name="start">1</property>
    <property name="level">1</property>
    <property name="mlt_service">brightness</property>
    <property name="kdenlive_id">fade_to_black</property>
    <property name="alpha">00:00:00.000=1;00:00:00.234=0</property>
    <property name="kdenlive:collapsed">0</property>
   </filter>
   <filter id="filter35" out="00:00:00.267">
    <property name="start">1</property>
    <property name="level">1</property>
    <property name="mlt_service">brightness</property>
    <property name="kdenlive_id">fade_from_black</property>
    <property name="alpha">00:00:00.000=0;00:00:00.267=1</property>
    <property name="kdenlive:collapsed">0</property>
   </filter>
  </entry>
  <entry producer="producer26" in="00:00:00.000" out="00:00:16.550">
   <property name="kdenlive:id">28</property>
   <filter id="filter36">
    <property name="rotate_center">1</property>
    <property name="mlt_service">qtblend</property>
    <property name="kdenlive_id">qtblend</property>
    <property name="rect">00:00:00.000=-146 335 1253 736 1.000000</property>
    <property name="rotation">00:00:00.000=0</property>
    <property name="compositing">0</property>
    <property name="distort">0</property>
    <property name="kdenlive:collapsed">0</property>
   </filter>
   <filter id="filter37" out="00:00:00.267">
    <property name="start">1</property>
    <property name="level">1</property>
    <property name="mlt_service">brightness</property>
    <property name="kdenlive_id">fade_from_black</property>
    <property name="alpha">00:00:00.000=0;00:00:00.267=1</property>
   </filter>
   <filter id="filter38" in="00:00:16.316" out="00:00:16.550">
    <property name="start">1</property>
    <property name="level">1</property>
    <property name="mlt_service">brightness</property>
    <property name="kdenlive_id">fade_to_black</property>
    <property name="alpha">00:00:00.000=1;00:00:00.234=0</property>
   </filter>
  </entry>
  <entry producer="producer39" in="00:00:00.000" out="00:00:01.702">
   <property name="kdenlive:id">41</property>
   <filter id="filter39">
    <property name="rotate_center">1</property>
    <property name="mlt_service">qtblend</property>
    <property name="kdenlive_id">qtblend</property>
    <property name="rect">00:00:00.000=187 340 1792 951 1.000000</property>
    <property name="rotation">00:00:00.000=0</property>
    <property name="compositing">0</property>
    <property name="distort">0</property>
    <property name="kdenlive:collapsed">0</property>
   </filter>
   <filter id="filter40" out="00:00:00.334">
    <property name="start">1</property>
    <property name="level">1</property>
    <property name="mlt_service">brightness</property>
    <property name="kdenlive_id">fade_from_black</property>
    <property name="alpha">00:00:00.000=0;00:00:00.334=1</property>
    <property name="kdenlive:collapsed">0</property>
   </filter>
  </entry>
  <blank length="00:00:39.840"/>
  <entry producer="producer50" in="00:00:00.000" out="00:00:08.742">
   <property name="kdenlive:id">53</property>
   <filter id="filter41">
    <property name="rotate_center">1</property>
    <property name="mlt_service">qtblend</property>
    <property name="kdenlive_id">qtblend</property>
    <property name="rect">00:00:00.000=84 17 250 300 1.000000</property>
    <property name="rotation">00:00:00.000=0</property>
    <property name="compositing">0</property>
    <property name="distort">0</property>
    <property name="kdenlive:collapsed">0</property>
   </filter>
  </entry>
  <blank length="00:00:13.280"/>
  <entry producer="producer66" in="00:00:00.000" out="00:00:03.136">
   <property name="kdenlive:id">69</property>
   <filter id="filter42">
    <property name="rotate_center">1</property>
    <property name="mlt_service">qtblend</property>
    <property name="kdenlive_id">qtblend</property>
    <property name="rect">00:00:00.000=-405 -517 1920 1080 1.000000;00:00:00.300=-405 -199 1920 1080 1.000000</property>
    <property name="rotation">00:00:00.000=0;00:00:00.300=0</property>
    <property name="compositing">0</property>
    <property name="distort">0</property>
    <property name="kdenlive:collapsed">0</property>
   </filter>
   <filter id="filter43" in="00:00:02.736" out="00:00:03.136">
    <property name="start">1</property>
    <property name="level">1</property>
    <property name="mlt_service">brightness</property>
    <property name="kdenlive_id">fade_to_black</property>
    <property name="alpha">00:00:00.000=1;00:00:00.400=0</property>
    <property name="kdenlive:collapsed">0</property>
   </filter>
  </entry>
  <blank length="00:00:02.135"/>
  <entry producer="producer67" in="00:00:00.000" out="00:00:08.208">
   <property name="kdenlive:id">70</property>
   <filter id="filter44">
    <property name="rotate_center">1</property>
    <property name="mlt_service">qtblend</property>
    <property name="kdenlive_id">qtblend</property>
    <property name="rect">00:00:00.000=8 568 713 381 1.000000</property>
    <property name="rotation">00:00:00.000=0</property>
    <property name="compositing">0</property>
    <property name="distort">0</property>
    <property name="kdenlive:collapsed">0</property>
   </filter>
  </entry>
 </playlist>
 <playlist id="playlist7"/>
 <tractor id="tractor3" in="00:00:00.000" out="00:03:07.708">
  <property name="kdenlive:trackheight">69</property>
  <property name="kdenlive:timeline_active">1</property>
  <property name="kdenlive:collapsed">0</property>
  <property name="kdenlive:thumbs_format"/>
  <property name="kdenlive:audio_rec"/>
  <track hide="audio" producer="playlist6"/>
  <track hide="audio" producer="playlist7"/>
 </tractor>
 <playlist id="playlist8">
  <blank length="00:00:05.606"/>
  <entry producer="producer4" in="00:00:00.000" out="00:00:05.005">
   <property name="kdenlive:id">6</property>
   <filter id="filter45">
    <property name="rotate_center">1</property>
    <property name="mlt_service">qtblend</property>
    <property name="kdenlive_id">qtblend</property>
    <property name="rect">00:00:00.000=67 516 665 325 1.000000</property>
    <property name="rotation">00:00:00.000=0</property>
    <property name="compositing">0</property>
    <property name="distort">0</property>
    <property name="kdenlive:collapsed">0</property>
   </filter>
  </entry>
  <blank length="00:00:06.139"/>
  <entry producer="producer6" in="00:00:00.000" out="00:00:03.103">
   <property name="kdenlive:id">8</property>
   <filter id="filter46">
    <property name="rotate_center">1</property>
    <property name="mlt_service">qtblend</property>
    <property name="kdenlive_id">qtblend</property>
    <property name="rect">00:00:00.000=174 341 1920 1080 1.000000</property>
    <property name="rotation">00:00:00.000=0</property>
    <property name="compositing">0</property>
    <property name="distort">0</property>
    <property name="kdenlive:collapsed">0</property>
   </filter>
  </entry>
  <blank length="00:00:04.238"/>
  <entry producer="producer17" in="00:00:00.000" out="00:00:03.337">
   <property name="kdenlive:id">19</property>
   <filter id="filter47">
    <property name="rotate_center">1</property>
    <property name="mlt_service">qtblend</property>
    <property name="kdenlive_id">qtblend</property>
    <property name="rect">00:00:00.000=1506 64 373 322 1.000000;00:00:00.434=1506 64 373 322 1.000000;00:00:01.969~=1506 64 373 322 1.000000;00:00:02.135~=1506 64 373 322 1.000000;00:00:02.336~=1506 64 373 322 1.000000;00:00:02.536~=1506 64 373 322 1.000000;00:00:02.736~=1506 64 373 322 1.000000</property>
    <property name="rotation">00:00:00.000=0;00:00:00.434=0;00:00:01.969~=0;00:00:02.135~=-13;00:00:02.336~=13;00:00:02.536~=-13;00:00:02.736~=0</property>
    <property name="compositing">0</property>
    <property name="distort">0</property>
    <property name="kdenlive:collapsed">0</property>
   </filter>
  </entry>
  <entry producer="producer15" in="00:00:00.000" out="00:00:12.880">
   <property name="kdenlive:id">17</property>
   <property name="kdenlive:activeeffect">1</property>
   <filter id="filter48">
    <property name="rotate_center">1</property>
    <property name="mlt_service">qtblend</property>
    <property name="kdenlive_id">qtblend</property>
    <property name="rect">00:00:00.000=602 2 1920 1080 1.000000</property>
    <property name="rotation">00:00:00.000=0</property>
    <property name="compositing">0</property>
    <property name="distort">0</property>
    <property name="kdenlive:collapsed">0</property>
   </filter>
  </entry>
  <blank length="00:00:02.302"/>
  <entry producer="producer13" in="00:00:00.000" out="00:00:01.301">
   <property name="kdenlive:id">15</property>
   <filter id="filter49">
    <property name="rotate_center">1</property>
    <property name="mlt_service">qtblend</property>
    <property name="kdenlive_id">qtblend</property>
    <property name="rect">00:00:00.000=-418 -172 2693 1851 1.000000</property>
    <property name="rotation">00:00:00.000=0</property>
    <property name="compositing">0</property>
    <property name="distort">0</property>
    <property name="kdenlive:collapsed">0</property>
   </filter>
  </entry>
  <blank length="00:00:09.910"/>
  <entry producer="producer72" in="00:00:00.000" out="00:00:04.371">
   <property name="kdenlive:id">75</property>
   <filter id="filter50">
    <property name="rotate_center">1</property>
    <property name="mlt_service">qtblend</property>
    <property name="kdenlive_id">qtblend</property>
    <property name="rect">00:00:00.000=952 59 245 289 1.000000</property>
    <property name="rotation">00:00:00.000=0</property>
    <property name="compositing">0</property>
    <property name="distort">0</property>
    <property name="kdenlive:collapsed">0</property>
   </filter>
  </entry>
  <blank length="00:00:24.157"/>
  <entry producer="producer25" in="00:00:00.000" out="00:00:03.237">
   <property name="kdenlive:id">27</property>
   <filter id="filter51">
    <property name="rotate_center">1</property>
    <property name="mlt_service">qtblend</property>
    <property name="kdenlive_id">qtblend</property>
    <property name="rect">00:00:00.000=658 238 500 400 0.000000;00:00:00.501=658 238 500 400 1.000000;00:00:01.468=658 238 500 400 1.000000;00:00:03.237=658 238 500 400 1.000000</property>
    <property name="rotation">00:00:00.000=0;00:00:00.501=0;00:00:01.468=0;00:00:03.237=0</property>
    <property name="compositing">0</property>
    <property name="distort">0</property>
    <property name="kdenlive:collapsed">0</property>
   </filter>
   <filter id="filter52" in="00:00:02.636" out="00:00:03.237">
    <property name="start">1</property>
    <property name="level">1</property>
    <property name="mlt_service">brightness</property>
    <property name="kdenlive_id">fade_to_black</property>
    <property name="alpha">00:00:00.000=1;00:00:00.601=0</property>
    <property name="kdenlive:collapsed">0</property>
   </filter>
  </entry>
  <entry producer="producer25" in="00:00:00.000" out="00:00:06.907">
   <property name="kdenlive:id">27</property>
   <filter id="filter53">
    <property name="rotate_center">1</property>
    <property name="mlt_service">qtblend</property>
    <property name="kdenlive_id">qtblend</property>
    <property name="rect">00:00:00.000=242 354 358 275 1.000000</property>
    <property name="rotation">00:00:00.000=0</property>
    <property name="compositing">0</property>
    <property name="distort">0</property>
    <property name="kdenlive:collapsed">0</property>
   </filter>
   <filter id="filter54" out="00:00:00.868">
    <property name="start">1</property>
    <property name="level">1</property>
    <property name="mlt_service">brightness</property>
    <property name="kdenlive_id">fade_from_black</property>
    <property name="alpha">00:00:00.000=0;00:00:00.868=1</property>
   </filter>
   <filter id="filter55" in="00:00:06.740" out="00:00:06.907">
    <property name="start">1</property>
    <property name="level">1</property>
    <property name="mlt_service">brightness</property>
    <property name="kdenlive_id">fade_to_black</property>
    <property name="alpha">00:00:00.000=1;00:00:00.167=0</property>
   </filter>
  </entry>
  <entry producer="producer33" in="00:00:00.000" out="00:00:01.168">
   <property name="kdenlive:id">35</property>
   <filter id="filter56">
    <property name="rotate_center">1</property>
    <property name="mlt_service">qtblend</property>
    <property name="kdenlive_id">qtblend</property>
    <property name="rect">00:00:00.000=662 289 500 400 1.000000</property>
    <property name="rotation">00:00:00.000=0</property>
    <property name="compositing">0</property>
    <property name="distort">0</property>
    <property name="kdenlive:collapsed">0</property>
   </filter>
   <filter id="filter57" in="00:00:00.868" out="00:00:01.168">
    <property name="start">1</property>
    <property name="level">1</property>
    <property name="mlt_service">brightness</property>
    <property name="kdenlive_id">fade_to_black</property>
    <property name="alpha">00:00:00.000=1;00:00:00.300=0</property>
    <property name="kdenlive:collapsed">0</property>
   </filter>
   <filter id="filter58" out="00:00:00.234">
    <property name="start">1</property>
    <property name="level">1</property>
    <property name="mlt_service">brightness</property>
    <property name="kdenlive_id">fade_from_black</property>
    <property name="alpha">00:00:00.000=0;00:00:00.234=1</property>
    <property name="kdenlive:collapsed">0</property>
   </filter>
  </entry>
  <entry producer="producer33" in="00:00:00.000" out="00:00:16.550">
   <property name="kdenlive:id">35</property>
   <filter id="filter59">
    <property name="rotate_center">1</property>
    <property name="mlt_service">qtblend</property>
    <property name="kdenlive_id">qtblend</property>
    <property name="rect">00:00:00.000=242 354 358 275 1.000000</property>
    <property name="rotation">00:00:00.000=0</property>
    <property name="compositing">0</property>
    <property name="distort">0</property>
    <property name="kdenlive:collapsed">0</property>
   </filter>
   <filter id="filter60" out="00:00:00.234">
    <property name="start">1</property>
    <property name="level">1</property>
    <property name="mlt_service">brightness</property>
    <property name="kdenlive_id">fade_from_black</property>
    <property name="alpha">00:00:00.000=0;00:00:00.234=1</property>
   </filter>
   <filter id="filter61" in="00:00:16.216" out="00:00:16.550">
    <property name="start">1</property>
    <property name="level">1</property>
    <property name="mlt_service">brightness</property>
    <property name="kdenlive_id">fade_to_black</property>
    <property name="alpha">00:00:00.000=1;00:00:00.334=0</property>
   </filter>
  </entry>
  <entry producer="producer33" in="00:00:00.000" out="00:00:01.702">
   <property name="kdenlive:id">35</property>
   <filter id="filter62">
    <property name="rotate_center">1</property>
    <property name="mlt_service">qtblend</property>
    <property name="kdenlive_id">qtblend</property>
    <property name="rect">00:00:00.000=659 289 500 400 1.000000</property>
    <property name="rotation">00:00:00.000=0</property>
    <property name="compositing">0</property>
    <property name="distort">0</property>
    <property name="kdenlive:collapsed">0</property>
   </filter>
   <filter id="filter63" out="00:00:00.234">
    <property name="start">1</property>
    <property name="level">1</property>
    <property name="mlt_service">brightness</property>
    <property name="kdenlive_id">fade_from_black</property>
    <property name="alpha">00:00:00.000=0;00:00:00.234=1</property>
   </filter>
  </entry>
  <blank length="00:00:16.617"/>
  <entry producer="producer50" in="00:00:00.000" out="00:00:04.972">
   <property name="kdenlive:id">53</property>
   <filter id="filter64">
    <property name="rotate_center">1</property>
    <property name="mlt_service">qtblend</property>
    <property name="kdenlive_id">qtblend</property>
    <property name="rect">00:00:00.000=229 306 293 344 1.000000;00:00:00.100=229 306 293 344 1.000000;00:00:00.200=229 306 293 344 1.000000;00:00:00.300=229 306 293 344 1.000000;00:00:00.400=229 306 293 344 1.000000</property>
    <property name="rotation">00:00:00.000=0;00:00:00.100=45;00:00:00.200=0;00:00:00.300=-45;00:00:00.400=0</property>
    <property name="compositing">0</property>
    <property name="distort">0</property>
    <property name="kdenlive:collapsed">0</property>
   </filter>
  </entry>
  <blank length="00:00:18.218"/>
  <entry producer="producer19" in="00:00:00.000" out="00:00:08.742">
   <property name="kdenlive:id">21</property>
   <filter id="filter65">
    <property name="rotate_center">1</property>
    <property name="mlt_service">qtblend</property>
    <property name="kdenlive_id">qtblend</property>
    <property name="rect">00:00:00.000=1014 17 250 300 1.000000</property>
    <property name="rotation">00:00:00.000=0</property>
    <property name="compositing">0</property>
    <property name="distort">0</property>
    <property name="kdenlive:collapsed">0</property>
   </filter>
  </entry>
  <blank length="00:00:11.445"/>
  <entry producer="producer65" in="00:00:00.000" out="00:00:04.972">
   <property name="kdenlive:id">68</property>
   <filter id="filter66">
    <property name="rotate_center">1</property>
    <property name="mlt_service">qtblend</property>
    <property name="kdenlive_id">qtblend</property>
    <property name="rect">00:00:00.000=-408 -519 1920 1080 1.000000;00:00:00.267=-408 -314 1920 1080 1.000000;00:00:04.972=-408 -314 1920 1080 1.000000</property>
    <property name="rotation">00:00:00.000=0;00:00:00.267=0;00:00:04.972=0</property>
    <property name="compositing">0</property>
    <property name="distort">0</property>
    <property name="kdenlive:collapsed">0</property>
   </filter>
   <filter id="filter67" in="00:00:04.571" out="00:00:04.972">
    <property name="start">1</property>
    <property name="level">1</property>
    <property name="mlt_service">brightness</property>
    <property name="kdenlive_id">fade_to_black</property>
    <property name="alpha">00:00:00.000=1;00:00:00.400=0</property>
   </filter>
  </entry>
  <blank length="00:00:02.135"/>
  <entry producer="producer68" in="00:00:00.000" out="00:00:08.208">
   <property name="kdenlive:id">71</property>
   <filter id="filter68">
    <property name="rotate_center">1</property>
    <property name="mlt_service">qtblend</property>
    <property name="kdenlive_id">qtblend</property>
    <property name="rect">00:00:00.000=148 22 388 416 1.000000</property>
    <property name="rotation">00:00:00.000=0</property>
    <property name="compositing">0</property>
    <property name="distort">0</property>
    <property name="kdenlive:collapsed">0</property>
   </filter>
  </entry>
 </playlist>
 <playlist id="playlist9"/>
 <tractor id="tractor4" in="00:00:00.000" out="00:03:07.708">
  <property name="kdenlive:trackheight">69</property>
  <property name="kdenlive:timeline_active">1</property>
  <property name="kdenlive:collapsed">0</property>
  <property name="kdenlive:thumbs_format"/>
  <property name="kdenlive:audio_rec"/>
  <track hide="audio" producer="playlist8"/>
  <track hide="audio" producer="playlist9"/>
 </tractor>
 <playlist id="playlist10">
  <blank length="00:00:18.552"/>
  <entry producer="producer7" in="00:00:00.000" out="00:00:01.335">
   <property name="kdenlive:id">9</property>
   <filter id="filter69">
    <property name="rotate_center">1</property>
    <property name="mlt_service">qtblend</property>
    <property name="kdenlive_id">qtblend</property>
    <property name="rect">00:00:00.000=-209 219 1920 1080 1.000000</property>
    <property name="rotation">00:00:00.000=0</property>
    <property name="compositing">0</property>
    <property name="distort">0</property>
    <property name="kdenlive:collapsed">0</property>
   </filter>
  </entry>
  <blank length="00:00:02.603"/>
  <entry producer="producer16" in="00:00:00.000" out="00:00:01.602">
   <property name="kdenlive:id">18</property>
   <filter id="filter70">
    <property name="rotate_center">1</property>
    <property name="mlt_service">qtblend</property>
    <property name="kdenlive_id">qtblend</property>
    <property name="rect">00:00:00.000=90 66 348 377 1.000000;00:00:01.602=90 66 348 377 1.000000</property>
    <property name="rotation">00:00:00.000=0;00:00:01.602=126</property>
    <property name="compositing">0</property>
    <property name="distort">0</property>
    <property name="kdenlive:collapsed">0</property>
   </filter>
  </entry>
  <blank length="00:00:10.911"/>
  <entry producer="producer11" in="00:00:00.000" out="00:00:03.470">
   <property name="kdenlive:id">13</property>
   <filter id="filter71">
    <property name="rotate_center">1</property>
    <property name="mlt_service">qtblend</property>
    <property name="kdenlive_id">qtblend</property>
    <property name="rect">00:00:00.000=-603 406 600 400 1.000000;00:00:00.767=-298 276 600 400 1.000000;00:00:01.401=-95 116 600 400 1.000000;00:00:02.035=73 -54 600 400 1.000000;00:00:02.703=163 -273 600 400 1.000000;00:00:03.470~=223 -371 600 400 1.000000</property>
    <property name="rotation">00:00:00.000=0;00:00:00.767=-4.61538;00:00:01.401=-9.23077;00:00:02.035=-14.4615;00:00:02.703=-19.6923;00:00:03.470~=-32</property>
    <property name="compositing">0</property>
    <property name="distort">0</property>
    <property name="kdenlive:collapsed">0</property>
    <property name="disable">0</property>
   </filter>
  </entry>
  <blank length="00:00:04.171"/>
  <entry producer="producer12" in="00:00:00.000" out="00:00:01.301">
   <property name="kdenlive:id">14</property>
   <filter id="filter72">
    <property name="rotate_center">1</property>
    <property name="mlt_service">qtblend</property>
    <property name="kdenlive_id">qtblend</property>
    <property name="rect">00:00:00.000=76 95 764 481 1.000000</property>
    <property name="rotation">00:00:00.000=0</property>
    <property name="compositing">0</property>
    <property name="distort">0</property>
    <property name="kdenlive:collapsed">0</property>
   </filter>
  </entry>
  <blank length="00:00:11.411"/>
  <entry producer="producer20" in="00:00:00.000" out="00:00:02.870">
   <property name="kdenlive:id">22</property>
   <filter id="filter73">
    <property name="rotate_center">1</property>
    <property name="mlt_service">qtblend</property>
    <property name="kdenlive_id">qtblend</property>
    <property name="rect">00:00:00.000=649 6 263 337 1.000000</property>
    <property name="rotation">00:00:00.000=0</property>
    <property name="compositing">0</property>
    <property name="distort">0</property>
    <property name="kdenlive:collapsed">0</property>
   </filter>
  </entry>
  <entry producer="producer13" in="00:00:00.000" out="00:00:12.513">
   <property name="kdenlive:id">15</property>
   <filter id="filter74">
    <property name="rotate_center">1</property>
    <property name="mlt_service">qtblend</property>
    <property name="kdenlive_id">qtblend</property>
    <property name="rect">00:00:00.000=-395 -149 2693 1851 1.000000</property>
    <property name="rotation">00:00:00.000=0</property>
    <property name="compositing">0</property>
    <property name="distort">0</property>
    <property name="kdenlive:collapsed">0</property>
   </filter>
  </entry>
  <blank length="00:00:14.882"/>
  <entry producer="producer25" in="00:00:00.000" out="00:00:06.907">
   <property name="kdenlive:id">27</property>
   <filter id="filter75">
    <property name="rotate_center">1</property>
    <property name="mlt_service">qtblend</property>
    <property name="kdenlive_id">qtblend</property>
    <property name="rect">00:00:00.000=748 21 368 302 1.000000</property>
    <property name="rotation">00:00:00.000=0</property>
    <property name="compositing">0</property>
    <property name="distort">0</property>
    <property name="kdenlive:collapsed">0</property>
   </filter>
   <filter id="filter76" out="00:00:00.868">
    <property name="start">1</property>
    <property name="level">1</property>
    <property name="mlt_service">brightness</property>
    <property name="kdenlive_id">fade_from_black</property>
    <property name="alpha">00:00:00.000=0;00:00:00.868=1</property>
   </filter>
  </entry>
  <blank length="00:00:01.201"/>
  <entry producer="producer33" in="00:00:00.000" out="00:00:16.550">
   <property name="kdenlive:id">35</property>
   <filter id="filter77">
    <property name="rotate_center">1</property>
    <property name="mlt_service">qtblend</property>
    <property name="kdenlive_id">qtblend</property>
    <property name="rect">00:00:00.000=748 21 368 302 1.000000</property>
    <property name="rotation">00:00:00.000=0</property>
    <property name="compositing">0</property>
    <property name="distort">0</property>
    <property name="kdenlive:collapsed">0</property>
   </filter>
   <filter id="filter78" out="00:00:00.267">
    <property name="start">1</property>
    <property name="level">1</property>
    <property name="mlt_service">brightness</property>
    <property name="kdenlive_id">fade_from_black</property>
    <property name="alpha">00:00:00.000=0;00:00:00.267=1</property>
   </filter>
   <filter id="filter79" in="00:00:16.316" out="00:00:16.550">
    <property name="start">1</property>
    <property name="level">1</property>
    <property name="mlt_service">brightness</property>
    <property name="kdenlive_id">fade_to_black</property>
    <property name="alpha">00:00:00.000=1;00:00:00.234=0</property>
   </filter>
  </entry>
  <blank length="00:00:41.575"/>
  <entry producer="producer52" in="00:00:00.000" out="00:00:08.742">
   <property name="kdenlive:id">55</property>
   <filter id="filter80">
    <property name="rotate_center">1</property>
    <property name="mlt_service">qtblend</property>
    <property name="kdenlive_id">qtblend</property>
    <property name="rect">00:00:00.000=546 17 250 300 1.000000</property>
    <property name="rotation">00:00:00.000=0</property>
    <property name="compositing">0</property>
    <property name="distort">0</property>
    <property name="kdenlive:collapsed">0</property>
   </filter>
  </entry>
  <blank length="00:00:18.585"/>
  <entry producer="producer70" in="00:00:00.000" out="00:00:08.208">
   <property name="kdenlive:id">73</property>
   <filter id="filter81">
    <property name="rotate_center">1</property>
    <property name="mlt_service">qtblend</property>
    <property name="kdenlive_id">qtblend</property>
    <property name="rect">00:00:00.000=-326 139 1600 760 1.000000</property>
    <property name="rotation">00:00:00.000=0</property>
    <property name="compositing">0</property>
    <property name="distort">0</property>
    <property name="kdenlive:collapsed">0</property>
   </filter>
  </entry>
 </playlist>
 <playlist id="playlist11"/>
 <tractor id="tractor5" in="00:00:00.000" out="00:03:07.708">
  <property name="kdenlive:trackheight">69</property>
  <property name="kdenlive:timeline_active">1</property>
  <property name="kdenlive:collapsed">0</property>
  <property name="kdenlive:thumbs_format"/>
  <property name="kdenlive:audio_rec"/>
  <track hide="audio" producer="playlist10"/>
  <track hide="audio" producer="playlist11"/>
 </tractor>
 <playlist id="playlist12">
  <blank length="00:00:56.657"/>
  <entry producer="producer22" in="00:00:00.000" out="00:00:01.702">
   <property name="kdenlive:id">24</property>
   <filter id="filter82">
    <property name="rotate_center">1</property>
    <property name="mlt_service">qtblend</property>
    <property name="kdenlive_id">qtblend</property>
    <property name="rect">00:00:00.000=359 772 309 243 1.000000</property>
    <property name="rotation">00:00:00.000=180</property>
    <property name="compositing">0</property>
    <property name="distort">0</property>
    <property name="kdenlive:collapsed">0</property>
   </filter>
   <filter id="filter83">
    <property name="mlt_service">avfilter.vflip</property>
    <property name="kdenlive_id">avfilter.vflip</property>
    <property name="kdenlive:collapsed">0</property>
   </filter>
  </entry>
  <entry producer="producer12" in="00:00:00.000" out="00:00:12.513">
   <property name="kdenlive:id">14</property>
   <filter id="filter84">
    <property name="rotate_center">1</property>
    <property name="mlt_service">qtblend</property>
    <property name="kdenlive_id">qtblend</property>
    <property name="rect">00:00:00.000=104 92 764 481 1.000000</property>
    <property name="rotation">00:00:00.000=0</property>
    <property name="compositing">0</property>
    <property name="distort">0</property>
    <property name="kdenlive:collapsed">0</property>
   </filter>
  </entry>
  <blank length="00:00:14.882"/>
  <entry producer="producer25" in="00:00:00.000" out="00:00:06.907">
   <property name="kdenlive:id">27</property>
   <filter id="filter85">
    <property name="rotate_center">1</property>
    <property name="mlt_service">qtblend</property>
    <property name="kdenlive_id">qtblend</property>
    <property name="rect">00:00:00.000=1236 222 296 246 1.000000</property>
    <property name="rotation">00:00:00.000=0</property>
    <property name="compositing">0</property>
    <property name="distort">0</property>
    <property name="kdenlive:collapsed">0</property>
   </filter>
   <filter id="filter86" out="00:00:00.868">
    <property name="start">1</property>
    <property name="level">1</property>
    <property name="mlt_service">brightness</property>
    <property name="kdenlive_id">fade_from_black</property>
    <property name="alpha">00:00:00.000=0;00:00:00.868=1</property>
   </filter>
  </entry>
  <blank length="00:00:01.201"/>
  <entry producer="producer33" in="00:00:00.000" out="00:00:16.550">
   <property name="kdenlive:id">35</property>
   <filter id="filter87">
    <property name="rotate_center">1</property>
    <property name="mlt_service">qtblend</property>
    <property name="kdenlive_id">qtblend</property>
    <property name="rect">00:00:00.000=1236 222 296 246 1.000000</property>
    <property name="rotation">00:00:00.000=0</property>
    <property name="compositing">0</property>
    <property name="distort">0</property>
    <property name="kdenlive:collapsed">0</property>
   </filter>
   <filter id="filter88" out="00:00:00.300">
    <property name="start">1</property>
    <property name="level">1</property>
    <property name="mlt_service">brightness</property>
    <property name="kdenlive_id">fade_from_black</property>
    <property name="alpha">00:00:00.000=0;00:00:00.300=1</property>
   </filter>
   <filter id="filter89" in="00:00:16.316" out="00:00:16.550">
    <property name="start">1</property>
    <property name="level">1</property>
    <property name="mlt_service">brightness</property>
    <property name="kdenlive_id">fade_to_black</property>
    <property name="alpha">00:00:00.000=1;00:00:00.234=0</property>
   </filter>
  </entry>
  <blank length="00:00:41.575"/>
  <entry producer="producer51" in="00:00:00.000" out="00:00:08.742">
   <property name="kdenlive:id">54</property>
   <filter id="filter90">
    <property name="rotate_center">1</property>
    <property name="mlt_service">qtblend</property>
    <property name="kdenlive_id">qtblend</property>
    <property name="rect">00:00:00.000=1498 17 250 300 1.000000</property>
    <property name="rotation">00:00:00.000=0</property>
    <property name="compositing">0</property>
    <property name="distort">0</property>
    <property name="kdenlive:collapsed">0</property>
   </filter>
  </entry>
  <blank length="00:00:18.585"/>
  <entry producer="producer71" in="00:00:00.000" out="00:00:08.208">
   <property name="kdenlive:id">74</property>
   <filter id="filter91">
    <property name="rotate_center">1</property>
    <property name="mlt_service">qtblend</property>
    <property name="kdenlive_id">qtblend</property>
    <property name="rect">00:00:00.000=-268 580 1362 938 1.000000</property>
    <property name="rotation">00:00:00.000=0</property>
    <property name="compositing">0</property>
    <property name="distort">0</property>
    <property name="kdenlive:collapsed">0</property>
   </filter>
  </entry>
 </playlist>
 <playlist id="playlist13"/>
 <tractor id="tractor6" in="00:00:00.000" out="00:03:07.708">
  <property name="kdenlive:trackheight">69</property>
  <property name="kdenlive:timeline_active">1</property>
  <property name="kdenlive:collapsed">0</property>
  <property name="kdenlive:thumbs_format"/>
  <property name="kdenlive:audio_rec"/>
  <track hide="audio" producer="playlist12"/>
  <track hide="audio" producer="playlist13"/>
 </tractor>
 <playlist id="playlist14">
  <blank length="00:00:53.987"/>
  <entry producer="producer40" in="00:00:00.000" out="00:00:04.371">
   <property name="kdenlive:id">43</property>
   <filter id="filter92">
    <property name="rotate_center">1</property>
    <property name="mlt_service">qtblend</property>
    <property name="kdenlive_id">qtblend</property>
    <property name="rect">00:00:00.000=995 29 154 129 1.000000</property>
    <property name="rotation">00:00:00.000=0</property>
    <property name="compositing">0</property>
    <property name="distort">0</property>
    <property name="kdenlive:collapsed">0</property>
   </filter>
  </entry>
  <blank length="00:00:27.427"/>
  <entry producer="producer25" in="00:00:00.000" out="00:00:06.907">
   <property name="kdenlive:id">27</property>
   <filter id="filter93">
    <property name="rotate_center">1</property>
    <property name="mlt_service">qtblend</property>
    <property name="kdenlive_id">qtblend</property>
    <property name="rect">00:00:00.000=1303 552 214 211 1.000000</property>
    <property name="rotation">00:00:00.000=0</property>
    <property name="compositing">0</property>
    <property name="distort">0</property>
    <property name="kdenlive:collapsed">0</property>
   </filter>
   <filter id="filter94" out="00:00:00.901">
    <property name="start">1</property>
    <property name="level">1</property>
    <property name="mlt_service">brightness</property>
    <property name="kdenlive_id">fade_from_black</property>
    <property name="alpha">00:00:00.000=0;00:00:00.901=1</property>
   </filter>
  </entry>
  <blank length="00:00:01.201"/>
  <entry producer="producer33" in="00:00:00.000" out="00:00:16.550">
   <property name="kdenlive:id">35</property>
   <filter id="filter95">
    <property name="rotate_center">1</property>
    <property name="mlt_service">qtblend</property>
    <property name="kdenlive_id">qtblend</property>
    <property name="rect">00:00:00.000=1303 552 214 211 1.000000</property>
    <property name="rotation">00:00:00.000=0</property>
    <property name="compositing">0</property>
    <property name="distort">0</property>
    <property name="kdenlive:collapsed">0</property>
   </filter>
   <filter id="filter96" out="00:00:00.267">
    <property name="start">1</property>
    <property name="level">1</property>
    <property name="mlt_service">brightness</property>
    <property name="kdenlive_id">fade_from_black</property>
    <property name="alpha">00:00:00.000=0;00:00:00.267=1</property>
   </filter>
   <filter id="filter97" in="00:00:16.316" out="00:00:16.550">
    <property name="start">1</property>
    <property name="level">1</property>
    <property name="mlt_service">brightness</property>
    <property name="kdenlive_id">fade_to_black</property>
    <property name="alpha">00:00:00.000=1;00:00:00.234=0</property>
   </filter>
  </entry>
  <blank length="00:00:41.575"/>
  <entry producer="producer23" in="00:00:00.000" out="00:00:08.742">
   <property name="kdenlive:id">25</property>
   <filter id="filter98">
    <property name="rotate_center">1</property>
    <property name="mlt_service">qtblend</property>
    <property name="kdenlive_id">qtblend</property>
    <property name="rect">00:00:00.000=354 79 162 181 1.000000</property>
    <property name="rotation">00:00:00.000=0</property>
    <property name="compositing">0</property>
    <property name="distort">0</property>
    <property name="kdenlive:collapsed">0</property>
   </filter>
  </entry>
  <blank length="00:00:21.355"/>
  <entry producer="producer69" in="00:00:00.000" out="00:00:05.439">
   <property name="kdenlive:id">72</property>
   <filter id="filter99">
    <property name="rotate_center">1</property>
    <property name="mlt_service">qtblend</property>
    <property name="kdenlive_id">qtblend</property>
    <property name="rect">00:00:00.000=1105 -49 779 465 1.000000</property>
    <property name="rotation">00:00:00.000=0</property>
    <property name="compositing">0</property>
    <property name="distort">0</property>
    <property name="kdenlive:collapsed">0</property>
   </filter>
  </entry>
 </playlist>
 <playlist id="playlist15"/>
 <tractor id="tractor7" in="00:00:00.000" out="00:03:07.708">
  <property name="kdenlive:trackheight">69</property>
  <property name="kdenlive:timeline_active">1</property>
  <property name="kdenlive:collapsed">0</property>
  <property name="kdenlive:thumbs_format"/>
  <property name="kdenlive:audio_rec"/>
  <track hide="audio" producer="playlist14"/>
  <track hide="audio" producer="playlist15"/>
 </tractor>
 <playlist id="playlist16">
  <blank length="00:01:25.826"/>
  <entry producer="producer25" in="00:00:00.000" out="00:00:06.907">
   <property name="kdenlive:id">27</property>
   <filter id="filter100">
    <property name="rotate_center">1</property>
    <property name="mlt_service">qtblend</property>
    <property name="kdenlive_id">qtblend</property>
    <property name="rect">00:00:00.000=800 685 260 263 1.000000</property>
    <property name="rotation">00:00:00.000=0</property>
    <property name="compositing">0</property>
    <property name="distort">0</property>
    <property name="kdenlive:collapsed">0</property>
   </filter>
   <filter id="filter101" out="00:00:00.934">
    <property name="start">1</property>
    <property name="level">1</property>
    <property name="mlt_service">brightness</property>
    <property name="kdenlive_id">fade_from_black</property>
    <property name="alpha">00:00:00.000=0;00:00:00.934=1</property>
   </filter>
  </entry>
  <blank length="00:00:01.201"/>
  <entry producer="producer33" in="00:00:00.000" out="00:00:16.550">
   <property name="kdenlive:id">35</property>
   <filter id="filter102">
    <property name="rotate_center">1</property>
    <property name="mlt_service">qtblend</property>
    <property name="kdenlive_id">qtblend</property>
    <property name="rect">00:00:00.000=800 685 260 263 1.000000</property>
    <property name="rotation">00:00:00.000=0</property>
    <property name="compositing">0</property>
    <property name="distort">0</property>
    <property name="kdenlive:collapsed">0</property>
   </filter>
   <filter id="filter103" out="00:00:00.300">
    <property name="start">1</property>
    <property name="level">1</property>
    <property name="mlt_service">brightness</property>
    <property name="kdenlive_id">fade_from_black</property>
    <property name="alpha">00:00:00.000=0;00:00:00.300=1</property>
   </filter>
   <filter id="filter104" in="00:00:16.316" out="00:00:16.550">
    <property name="start">1</property>
    <property name="level">1</property>
    <property name="mlt_service">brightness</property>
    <property name="kdenlive_id">fade_to_black</property>
    <property name="alpha">00:00:00.000=1;00:00:00.234=0</property>
   </filter>
  </entry>
  <blank length="00:00:41.575"/>
  <entry producer="producer23" in="00:00:00.000" out="00:00:08.742">
   <property name="kdenlive:id">25</property>
   <filter id="filter105">
    <property name="rotate_center">1</property>
    <property name="mlt_service">qtblend</property>
    <property name="kdenlive_id">qtblend</property>
    <property name="rect">00:00:00.000=828 79 162 167 1.000000</property>
    <property name="rotation">00:00:00.000=0</property>
    <property name="compositing">0</property>
    <property name="distort">0</property>
    <property name="kdenlive:collapsed">0</property>
   </filter>
  </entry>
 </playlist>
 <playlist id="playlist17"/>
 <tractor id="tractor8" in="00:00:00.000" out="00:02:40.874">
  <property name="kdenlive:trackheight">69</property>
  <property name="kdenlive:timeline_active">1</property>
  <property name="kdenlive:collapsed">0</property>
  <property name="kdenlive:thumbs_format"/>
  <property name="kdenlive:audio_rec"/>
  <track hide="audio" producer="playlist16"/>
  <track hide="audio" producer="playlist17"/>
 </tractor>
 <playlist id="playlist18">
  <blank length="00:01:25.826"/>
  <entry producer="producer31" in="00:00:00.000" out="00:00:06.907">
   <property name="kdenlive:id">33</property>
   <filter id="filter106">
    <property name="rotate_center">1</property>
    <property name="mlt_service">qtblend</property>
    <property name="kdenlive_id">qtblend</property>
    <property name="rect">00:00:00.000=963 194 958 667 1.000000</property>
    <property name="rotation">00:00:00.000=0</property>
    <property name="compositing">0</property>
    <property name="distort">0</property>
    <property name="kdenlive:collapsed">0</property>
   </filter>
   <filter id="filter107" out="00:00:00.968">
    <property name="start">1</property>
    <property name="level">1</property>
    <property name="mlt_service">brightness</property>
    <property name="kdenlive_id">fade_from_black</property>
    <property name="alpha">00:00:00.000=0;00:00:00.968=1</property>
   </filter>
  </entry>
  <blank length="00:00:01.201"/>
  <entry producer="producer36" in="00:00:00.000" out="00:00:16.550">
   <property name="kdenlive:id">38</property>
   <filter id="filter108">
    <property name="rotate_center">1</property>
    <property name="mlt_service">qtblend</property>
    <property name="kdenlive_id">qtblend</property>
    <property name="rect">00:00:00.000=963 194 958 667 1.000000</property>
    <property name="rotation">00:00:00.000=0</property>
    <property name="compositing">0</property>
    <property name="distort">0</property>
    <property name="kdenlive:collapsed">0</property>
   </filter>
   <filter id="filter109" out="00:00:00.300">
    <property name="start">1</property>
    <property name="level">1</property>
    <property name="mlt_service">brightness</property>
    <property name="kdenlive_id">fade_from_black</property>
    <property name="alpha">00:00:00.000=0;00:00:00.300=1</property>
   </filter>
   <filter id="filter110" in="00:00:16.316" out="00:00:16.550">
    <property name="start">1</property>
    <property name="level">1</property>
    <property name="mlt_service">brightness</property>
    <property name="kdenlive_id">fade_to_black</property>
    <property name="alpha">00:00:00.000=1;00:00:00.234=0</property>
   </filter>
  </entry>
  <blank length="00:00:41.575"/>
  <entry producer="producer23" in="00:00:00.000" out="00:00:08.742">
   <property name="kdenlive:id">25</property>
   <filter id="filter111">
    <property name="rotate_center">1</property>
    <property name="mlt_service">qtblend</property>
    <property name="kdenlive_id">qtblend</property>
    <property name="rect">00:00:00.000=1309 79 162 167 1.000000</property>
    <property name="rotation">00:00:00.000=0</property>
    <property name="compositing">0</property>
    <property name="distort">0</property>
    <property name="kdenlive:collapsed">0</property>
   </filter>
  </entry>
 </playlist>
 <playlist id="playlist19"/>
 <tractor id="tractor9" in="00:00:00.000" out="00:02:40.874">
  <property name="kdenlive:trackheight">69</property>
  <property name="kdenlive:timeline_active">1</property>
  <property name="kdenlive:collapsed">0</property>
  <property name="kdenlive:thumbs_format"/>
  <property name="kdenlive:audio_rec"/>
  <track hide="audio" producer="playlist18"/>
  <track hide="audio" producer="playlist19"/>
 </tractor>
 <playlist id="playlist20">
  <blank length="00:01:25.826"/>
  <entry producer="producer29" in="00:00:00.000" out="00:00:06.907">
   <property name="kdenlive:id">31</property>
   <filter id="filter112">
    <property name="rotate_center">1</property>
    <property name="mlt_service">qtblend</property>
    <property name="kdenlive_id">qtblend</property>
    <property name="rect">00:00:00.000=409 -53 1206 874 1.000000</property>
    <property name="rotation">00:00:00.000=0</property>
    <property name="compositing">0</property>
    <property name="distort">0</property>
    <property name="kdenlive:collapsed">0</property>
   </filter>
   <filter id="filter113" out="00:00:01.001">
    <property name="start">1</property>
    <property name="level">1</property>
    <property name="mlt_service">brightness</property>
    <property name="kdenlive_id">fade_from_black</property>
    <property name="alpha">00:00:00.000=0;00:00:01.001=1</property>
   </filter>
  </entry>
  <blank length="00:00:01.201"/>
  <entry producer="producer37" in="00:00:00.000" out="00:00:16.550">
   <property name="kdenlive:id">39</property>
   <filter id="filter114">
    <property name="rotate_center">1</property>
    <property name="mlt_service">qtblend</property>
    <property name="kdenlive_id">qtblend</property>
    <property name="rect">00:00:00.000=415 -37 1206 874 1.000000</property>
    <property name="rotation">00:00:00.000=0</property>
    <property name="compositing">0</property>
    <property name="distort">0</property>
    <property name="kdenlive:collapsed">0</property>
   </filter>
   <filter id="filter115" out="00:00:00.267">
    <property name="start">1</property>
    <property name="level">1</property>
    <property name="mlt_service">brightness</property>
    <property name="kdenlive_id">fade_from_black</property>
    <property name="alpha">00:00:00.000=0;00:00:00.267=1</property>
   </filter>
   <filter id="filter116" in="00:00:16.316" out="00:00:16.550">
    <property name="start">1</property>
    <property name="level">1</property>
    <property name="mlt_service">brightness</property>
    <property name="kdenlive_id">fade_to_black</property>
    <property name="alpha">00:00:00.000=1;00:00:00.234=0</property>
   </filter>
  </entry>
  <blank length="00:00:44.444"/>
  <entry producer="producer53" in="00:00:00.000" out="00:00:05.873">
   <property name="kdenlive:id">56</property>
   <filter id="filter117">
    <property name="rotate_center">1</property>
    <property name="mlt_service">qtblend</property>
    <property name="kdenlive_id">qtblend</property>
    <property name="rect">00:00:00.000=-505 -197 2547 1508 1.000000</property>
    <property name="rotation">00:00:00.000=0</property>
    <property name="compositing">0</property>
    <property name="distort">0</property>
    <property name="kdenlive:collapsed">0</property>
   </filter>
  </entry>
 </playlist>
 <playlist id="playlist21"/>
 <tractor id="tractor10" in="00:00:00.000" out="00:02:40.874">
  <property name="kdenlive:trackheight">69</property>
  <property name="kdenlive:timeline_active">1</property>
  <property name="kdenlive:collapsed">0</property>
  <property name="kdenlive:thumbs_format"/>
  <property name="kdenlive:audio_rec"/>
  <track hide="audio" producer="playlist20"/>
  <track hide="audio" producer="playlist21"/>
 </tractor>
 <playlist id="playlist22">
  <blank length="00:01:25.826"/>
  <entry producer="producer28" in="00:00:00.000" out="00:00:06.907">
   <property name="kdenlive:id">30</property>
   <filter id="filter118">
    <property name="rotate_center">1</property>
    <property name="mlt_service">qtblend</property>
    <property name="kdenlive_id">qtblend</property>
    <property name="rect">00:00:00.000=954 418 1103 823 1.000000</property>
    <property name="rotation">00:00:00.000=0</property>
    <property name="compositing">0</property>
    <property name="distort">0</property>
    <property name="kdenlive:collapsed">0</property>
   </filter>
   <filter id="filter119" out="00:00:01.034">
    <property name="start">1</property>
    <property name="level">1</property>
    <property name="mlt_service">brightness</property>
    <property name="kdenlive_id">fade_from_black</property>
    <property name="alpha">00:00:00.000=0;00:00:01.034=1</property>
   </filter>
  </entry>
  <blank length="00:00:01.201"/>
  <entry producer="producer35" in="00:00:00.000" out="00:00:16.550">
   <property name="kdenlive:id">37</property>
   <filter id="filter120">
    <property name="rotate_center">1</property>
    <property name="mlt_service">qtblend</property>
    <property name="kdenlive_id">qtblend</property>
    <property name="rect">00:00:00.000=929 424 1103 823 1.000000</property>
    <property name="rotation">00:00:00.000=0</property>
    <property name="compositing">0</property>
    <property name="distort">0</property>
    <property name="kdenlive:collapsed">0</property>
   </filter>
   <filter id="filter121" out="00:00:00.267">
    <property name="start">1</property>
    <property name="level">1</property>
    <property name="mlt_service">brightness</property>
    <property name="kdenlive_id">fade_from_black</property>
    <property name="alpha">00:00:00.000=0;00:00:00.267=1</property>
   </filter>
   <filter id="filter122" in="00:00:16.316" out="00:00:16.550">
    <property name="start">1</property>
    <property name="level">1</property>
    <property name="mlt_service">brightness</property>
    <property name="kdenlive_id">fade_to_black</property>
    <property name="alpha">00:00:00.000=1;00:00:00.234=0</property>
   </filter>
  </entry>
  <blank length="00:00:45.812"/>
  <entry producer="producer54" in="00:00:00.000" out="00:00:04.505">
   <property name="kdenlive:id">57</property>
   <filter id="filter123">
    <property name="rotate_center">1</property>
    <property name="mlt_service">qtblend</property>
    <property name="kdenlive_id">qtblend</property>
    <property name="rect">00:00:00.000=-124 -197 2547 1508 1.000000</property>
    <property name="rotation">00:00:00.000=0</property>
    <property name="compositing">0</property>
    <property name="distort">0</property>
    <property name="kdenlive:collapsed">0</property>
   </filter>
  </entry>
  <blank length="00:00:03.237"/>
  <entry producer="producer62" in="00:00:00.000" out="00:00:08.175">
   <property name="kdenlive:id">65</property>
   <filter id="filter124">
    <property name="rotate_center">1</property>
    <property name="mlt_service">qtblend</property>
    <property name="kdenlive_id">qtblend</property>
    <property name="rect">00:00:00.000=80 493 445 413 1.000000</property>
    <property name="rotation">00:00:00.000=0</property>
    <property name="compositing">0</property>
    <property name="distort">0</property>
    <property name="kdenlive:collapsed">0</property>
   </filter>
  </entry>
 </playlist>
 <playlist id="playlist23"/>
 <tractor id="tractor11" in="00:00:00.000" out="00:02:52.319">
  <property name="kdenlive:trackheight">69</property>
  <property name="kdenlive:timeline_active">1</property>
  <property name="kdenlive:collapsed">0</property>
  <property name="kdenlive:thumbs_format"/>
  <property name="kdenlive:audio_rec"/>
  <track hide="audio" producer="playlist22"/>
  <track hide="audio" producer="playlist23"/>
 </tractor>
 <playlist id="playlist24">
  <blank length="00:01:25.826"/>
  <entry producer="producer30" in="00:00:00.000" out="00:00:06.907">
   <property name="kdenlive:id">32</property>
   <filter id="filter125">
    <property name="rotate_center">1</property>
    <property name="mlt_service">qtblend</property>
    <property name="kdenlive_id">qtblend</property>
    <property name="rect">00:00:00.000=462 637 1080 763 1.000000</property>
    <property name="rotation">00:00:00.000=0</property>
    <property name="compositing">0</property>
    <property name="distort">0</property>
    <property name="kdenlive:collapsed">0</property>
   </filter>
   <filter id="filter126" out="00:00:01.001">
    <property name="start">1</property>
    <property name="level">1</property>
    <property name="mlt_service">brightness</property>
    <property name="kdenlive_id">fade_from_black</property>
    <property name="alpha">00:00:00.000=0;00:00:01.001=1</property>
   </filter>
  </entry>
  <blank length="00:00:01.201"/>
  <entry producer="producer34" in="00:00:00.000" out="00:00:16.550">
   <property name="kdenlive:id">36</property>
   <filter id="filter127">
    <property name="rotate_center">1</property>
    <property name="mlt_service">qtblend</property>
    <property name="kdenlive_id">qtblend</property>
    <property name="rect">00:00:00.000=427 637 1080 763 1.000000</property>
    <property name="rotation">00:00:00.000=0</property>
    <property name="compositing">0</property>
    <property name="distort">0</property>
    <property name="kdenlive:collapsed">0</property>
   </filter>
   <filter id="filter128" out="00:00:00.300">
    <property name="start">1</property>
    <property name="level">1</property>
    <property name="mlt_service">brightness</property>
    <property name="kdenlive_id">fade_from_black</property>
    <property name="alpha">00:00:00.000=0;00:00:00.300=1</property>
   </filter>
   <filter id="filter129" in="00:00:16.316" out="00:00:16.550">
    <property name="start">1</property>
    <property name="level">1</property>
    <property name="mlt_service">brightness</property>
    <property name="kdenlive_id">fade_to_black</property>
    <property name="alpha">00:00:00.000=1;00:00:00.234=0</property>
   </filter>
  </entry>
  <blank length="00:00:46.246"/>
  <entry producer="producer55" in="00:00:00.000" out="00:00:04.071">
   <property name="kdenlive:id">58</property>
   <filter id="filter130">
    <property name="rotate_center">1</property>
    <property name="mlt_service">qtblend</property>
    <property name="kdenlive_id">qtblend</property>
    <property name="rect">00:00:00.000=-232 102 1574 1026 1.000000</property>
    <property name="rotation">00:00:00.000=0</property>
    <property name="compositing">0</property>
    <property name="distort">0</property>
    <property name="kdenlive:collapsed">0</property>
   </filter>
  </entry>
  <blank length="00:00:03.237"/>
  <entry producer="producer60" in="00:00:00.000" out="00:00:08.175">
   <property name="kdenlive:id">63</property>
   <filter id="filter131">
    <property name="rotate_center">1</property>
    <property name="mlt_service">qtblend</property>
    <property name="kdenlive_id">qtblend</property>
    <property name="rect">00:00:00.000=43 -1 792 462 1.000000</property>
    <property name="rotation">00:00:00.000=0</property>
    <property name="compositing">0</property>
    <property name="distort">0</property>
    <property name="kdenlive:collapsed">0</property>
   </filter>
  </entry>
 </playlist>
 <playlist id="playlist25"/>
 <tractor id="tractor12" in="00:00:00.000" out="00:02:52.319">
  <property name="kdenlive:trackheight">69</property>
  <property name="kdenlive:timeline_active">1</property>
  <property name="kdenlive:collapsed">0</property>
  <property name="kdenlive:thumbs_format"/>
  <property name="kdenlive:audio_rec"/>
  <track hide="audio" producer="playlist24"/>
  <track hide="audio" producer="playlist25"/>
 </tractor>
 <playlist id="playlist26">
  <blank length="00:01:37.838"/>
  <entry producer="producer21" in="00:00:00.000" out="00:00:06.306">
   <property name="kdenlive:id">23</property>
   <filter id="filter132">
    <property name="rotate_center">1</property>
    <property name="mlt_service">qtblend</property>
    <property name="kdenlive_id">qtblend</property>
    <property name="rect">00:00:00.000=537 155 168 198 1.000000</property>
    <property name="rotation">00:00:00.000=-33</property>
    <property name="compositing">0</property>
    <property name="distort">0</property>
    <property name="kdenlive:collapsed">0</property>
   </filter>
   <filter id="filter133" out="00:00:00.234">
    <property name="start">1</property>
    <property name="level">1</property>
    <property name="mlt_service">brightness</property>
    <property name="kdenlive_id">fade_from_black</property>
    <property name="alpha">00:00:00.000=0;00:00:00.234=1</property>
   </filter>
   <filter id="filter134" in="00:00:06.073" out="00:00:06.306">
    <property name="start">1</property>
    <property name="level">1</property>
    <property name="mlt_service">brightness</property>
    <property name="kdenlive_id">fade_to_black</property>
    <property name="alpha">00:00:00.000=1;00:00:00.234=0</property>
   </filter>
  </entry>
  <entry producer="producer40" in="00:00:00.000" out="00:00:06.340">
   <property name="kdenlive:id">43</property>
   <filter id="filter135">
    <property name="rotate_center">1</property>
    <property name="mlt_service">qtblend</property>
    <property name="kdenlive_id">qtblend</property>
    <property name="rect">00:00:00.000=1216 832 143 193 1.000000</property>
    <property name="rotation">00:00:00.000=0</property>
    <property name="compositing">0</property>
    <property name="distort">0</property>
    <property name="kdenlive:collapsed">0</property>
   </filter>
   <filter id="filter136" in="00:00:06.106" out="00:00:06.340">
    <property name="start">1</property>
    <property name="level">1</property>
    <property name="mlt_service">brightness</property>
    <property name="kdenlive_id">fade_to_black</property>
    <property name="alpha">00:00:00.000=1;00:00:00.234=0</property>
   </filter>
   <filter id="filter137" out="00:00:00.234">
    <property name="start">1</property>
    <property name="level">1</property>
    <property name="mlt_service">brightness</property>
    <property name="kdenlive_id">fade_from_black</property>
    <property name="alpha">00:00:00.000=0;00:00:00.234=1</property>
   </filter>
  </entry>
  <entry producer="producer40" in="00:00:00.000" out="00:00:01.702">
   <property name="kdenlive:id">43</property>
   <filter id="filter138">
    <property name="rotate_center">1</property>
    <property name="mlt_service">qtblend</property>
    <property name="kdenlive_id">qtblend</property>
    <property name="rect">00:00:00.000=642 97 143 193 1.000000</property>
    <property name="rotation">00:00:00.000=0</property>
    <property name="compositing">0</property>
    <property name="distort">0</property>
    <property name="kdenlive:collapsed">0</property>
   </filter>
   <filter id="filter139" out="00:00:00.234">
    <property name="start">1</property>
    <property name="level">1</property>
    <property name="mlt_service">brightness</property>
    <property name="kdenlive_id">fade_from_black</property>
    <property name="alpha">00:00:00.000=0;00:00:00.234=1</property>
   </filter>
  </entry>
  <blank length="00:00:43.577"/>
  <entry producer="producer56" in="00:00:00.000" out="00:00:05.005">
   <property name="kdenlive:id">59</property>
   <filter id="filter140">
    <property name="rotate_center">1</property>
    <property name="mlt_service">qtblend</property>
    <property name="kdenlive_id">qtblend</property>
    <property name="rect">00:00:00.000=-33 6 1920 1080 1.000000</property>
    <property name="rotation">00:00:00.000=0</property>
    <property name="compositing">0</property>
    <property name="distort">0</property>
    <property name="kdenlive:collapsed">0</property>
   </filter>
  </entry>
  <blank length="00:00:03.237"/>
  <entry producer="producer64" in="00:00:00.000" out="00:00:08.175">
   <property name="kdenlive:id">67</property>
   <filter id="filter141">
    <property name="rotate_center">1</property>
    <property name="mlt_service">qtblend</property>
    <property name="kdenlive_id">qtblend</property>
    <property name="rect">00:00:00.000=-413 561 1675 935 1.000000</property>
    <property name="rotation">00:00:00.000=0</property>
    <property name="compositing">0</property>
    <property name="distort">0</property>
    <property name="kdenlive:collapsed">0</property>
   </filter>
  </entry>
 </playlist>
 <playlist id="playlist27"/>
 <tractor id="tractor13" in="00:00:00.000" out="00:02:52.319">
  <property name="kdenlive:trackheight">69</property>
  <property name="kdenlive:timeline_active">1</property>
  <property name="kdenlive:collapsed">0</property>
  <property name="kdenlive:thumbs_format"/>
  <property name="kdenlive:audio_rec"/>
  <track hide="audio" producer="playlist26"/>
  <track hide="audio" producer="playlist27"/>
 </tractor>
 <playlist id="playlist28">
  <blank length="00:01:37.838"/>
  <entry producer="producer21" in="00:00:00.000" out="00:00:06.306">
   <property name="kdenlive:id">23</property>
   <filter id="filter142">
    <property name="rotate_center">1</property>
    <property name="mlt_service">qtblend</property>
    <property name="kdenlive_id">qtblend</property>
    <property name="rect">00:00:00.000=672 411 168 198 1.000000</property>
    <property name="rotation">00:00:00.000=0</property>
    <property name="compositing">0</property>
    <property name="distort">0</property>
    <property name="kdenlive:collapsed">0</property>
   </filter>
   <filter id="filter143" out="00:00:00.234">
    <property name="start">1</property>
    <property name="level">1</property>
    <property name="mlt_service">brightness</property>
    <property name="kdenlive_id">fade_from_black</property>
    <property name="alpha">00:00:00.000=0;00:00:00.234=1</property>
   </filter>
   <filter id="filter144" in="00:00:06.073" out="00:00:06.306">
    <property name="start">1</property>
    <property name="level">1</property>
    <property name="mlt_service">brightness</property>
    <property name="kdenlive_id">fade_to_black</property>
    <property name="alpha">00:00:00.000=1;00:00:00.234=0</property>
   </filter>
  </entry>
  <entry producer="producer40" in="00:00:00.000" out="00:00:06.340">
   <property name="kdenlive:id">43</property>
   <filter id="filter145">
    <property name="rotate_center">1</property>
    <property name="mlt_service">qtblend</property>
    <property name="kdenlive_id">qtblend</property>
    <property name="rect">00:00:00.000=1123 5 143 193 1.000000</property>
    <property name="rotation">00:00:00.000=0</property>
    <property name="compositing">0</property>
    <property name="distort">0</property>
    <property name="kdenlive:collapsed">0</property>
   </filter>
   <filter id="filter146" in="00:00:06.106" out="00:00:06.340">
    <property name="start">1</property>
    <property name="level">1</property>
    <property name="mlt_service">brightness</property>
    <property name="kdenlive_id">fade_to_black</property>
    <property name="alpha">00:00:00.000=1;00:00:00.234=0</property>
   </filter>
   <filter id="filter147" out="00:00:00.234">
    <property name="start">1</property>
    <property name="level">1</property>
    <property name="mlt_service">brightness</property>
    <property name="kdenlive_id">fade_from_black</property>
    <property name="alpha">00:00:00.000=0;00:00:00.234=1</property>
   </filter>
  </entry>
  <entry producer="producer41" in="00:00:00.000" out="00:00:01.702">
   <property name="kdenlive:id">44</property>
   <filter id="filter148">
    <property name="rotate_center">1</property>
    <property name="mlt_service">qtblend</property>
    <property name="kdenlive_id">qtblend</property>
    <property name="rect">00:00:00.000=271 -261 1920 1080 1.000000</property>
    <property name="rotation">00:00:00.000=0</property>
    <property name="compositing">0</property>
    <property name="distort">0</property>
    <property name="kdenlive:collapsed">0</property>
   </filter>
   <filter id="filter149" out="00:00:00.234">
    <property name="start">1</property>
    <property name="level">1</property>
    <property name="mlt_service">brightness</property>
    <property name="kdenlive_id">fade_from_black</property>
    <property name="alpha">00:00:00.000=0;00:00:00.234=1</property>
   </filter>
  </entry>
  <blank length="00:00:12.446"/>
  <entry producer="producer49" in="00:00:00.000" out="00:00:02.236">
   <property name="kdenlive:id">52</property>
   <filter id="filter150">
    <property name="rotate_center">1</property>
    <property name="mlt_service">qtblend</property>
    <property name="kdenlive_id">qtblend</property>
    <property name="rect">00:00:00.000=284 417 263 189 1.000000</property>
    <property name="rotation">00:00:00.000=90</property>
    <property name="compositing">0</property>
    <property name="distort">0</property>
    <property name="kdenlive:collapsed">0</property>
   </filter>
  </entry>
  <blank length="00:00:31.765"/>
  <entry producer="producer57" in="00:00:00.000" out="00:00:02.102">
   <property name="kdenlive:id">60</property>
   <filter id="filter151">
    <property name="rotate_center">1</property>
    <property name="mlt_service">qtblend</property>
    <property name="kdenlive_id">qtblend</property>
    <property name="rect">00:00:00.000=-168 248 1920 1080 1.000000</property>
    <property name="rotation">00:00:00.000=0</property>
    <property name="compositing">0</property>
    <property name="distort">0</property>
    <property name="kdenlive:collapsed">0</property>
   </filter>
  </entry>
 </playlist>
 <playlist id="playlist29"/>
 <tractor id="tractor14" in="00:00:00.000" out="00:02:40.874">
  <property name="kdenlive:trackheight">69</property>
  <property name="kdenlive:timeline_active">1</property>
  <property name="kdenlive:collapsed">0</property>
  <property name="kdenlive:thumbs_format"/>
  <property name="kdenlive:audio_rec"/>
  <track hide="audio" producer="playlist28"/>
  <track hide="audio" producer="playlist29"/>
 </tractor>
 <playlist id="playlist30">
  <blank length="00:01:37.838"/>
  <entry producer="producer21" in="00:00:00.000" out="00:00:06.306">
   <property name="kdenlive:id">23</property>
   <filter id="filter152">
    <property name="rotate_center">1</property>
    <property name="mlt_service">qtblend</property>
    <property name="kdenlive_id">qtblend</property>
    <property name="rect">00:00:00.000=547 684 168 198 1.000000</property>
    <property name="rotation">00:00:00.000=30</property>
    <property name="compositing">0</property>
    <property name="distort">0</property>
    <property name="kdenlive:collapsed">0</property>
   </filter>
   <filter id="filter153" in="00:00:06.073" out="00:00:06.306">
    <property name="start">1</property>
    <property name="level">1</property>
    <property name="mlt_service">brightness</property>
    <property name="kdenlive_id">fade_to_black</property>
    <property name="alpha">00:00:00.000=1;00:00:00.234=0</property>
   </filter>
   <filter id="filter154" out="00:00:00.234">
    <property name="start">1</property>
    <property name="level">1</property>
    <property name="mlt_service">brightness</property>
    <property name="kdenlive_id">fade_from_black</property>
    <property name="alpha">00:00:00.000=0;00:00:00.234=1</property>
   </filter>
  </entry>
  <entry producer="producer40" in="00:00:00.000" out="00:00:06.340">
   <property name="kdenlive:id">43</property>
   <filter id="filter155">
    <property name="rotate_center">1</property>
    <property name="mlt_service">qtblend</property>
    <property name="kdenlive_id">qtblend</property>
    <property name="rect">00:00:00.000=181 185 143 193 1.000000</property>
    <property name="rotation">00:00:00.000=0</property>
    <property name="compositing">0</property>
    <property name="distort">0</property>
    <property name="kdenlive:collapsed">0</property>
   </filter>
   <filter id="filter156" in="00:00:06.106" out="00:00:06.340">
    <property name="start">1</property>
    <property name="level">1</property>
    <property name="mlt_service">brightness</property>
    <property name="kdenlive_id">fade_to_black</property>
    <property name="alpha">00:00:00.000=1;00:00:00.234=0</property>
   </filter>
   <filter id="filter157" out="00:00:00.234">
    <property name="start">1</property>
    <property name="level">1</property>
    <property name="mlt_service">brightness</property>
    <property name="kdenlive_id">fade_from_black</property>
    <property name="alpha">00:00:00.000=0;00:00:00.234=1</property>
   </filter>
  </entry>
  <blank length="00:00:13.881"/>
  <entry producer="producer48" in="00:00:00.000" out="00:00:02.536">
   <property name="kdenlive:id">51</property>
   <filter id="filter158">
    <property name="rotate_center">1</property>
    <property name="mlt_service">qtblend</property>
    <property name="kdenlive_id">qtblend</property>
    <property name="rect">00:00:00.000=-212 243 1920 1080 1.000000</property>
    <property name="rotation">00:00:00.000=0</property>
    <property name="compositing">0</property>
    <property name="distort">0</property>
    <property name="kdenlive:collapsed">0</property>
   </filter>
  </entry>
  <blank length="00:00:28.495"/>
  <entry producer="producer58" in="00:00:00.000" out="00:00:05.372">
   <property name="kdenlive:id">61</property>
   <filter id="filter159">
    <property name="rotate_center">1</property>
    <property name="mlt_service">qtblend</property>
    <property name="kdenlive_id">qtblend</property>
    <property name="rect">00:00:00.000=-139 -1 1920 1080 1.000000</property>
    <property name="rotation">00:00:00.000=0</property>
    <property name="compositing">0</property>
    <property name="distort">0</property>
    <property name="kdenlive:collapsed">0</property>
   </filter>
  </entry>
 </playlist>
 <playlist id="playlist31"/>
 <tractor id="tractor15" in="00:00:00.000" out="00:02:40.874">
  <property name="kdenlive:trackheight">69</property>
  <property name="kdenlive:timeline_active">1</property>
  <property name="kdenlive:collapsed">0</property>
  <property name="kdenlive:thumbs_format"/>
  <property name="kdenlive:audio_rec"/>
  <track hide="audio" producer="playlist30"/>
  <track hide="audio" producer="playlist31"/>
 </tractor>
 <playlist id="playlist32">
  <blank length="00:01:44.177"/>
  <entry producer="producer44" in="00:00:00.000" out="00:00:06.340">
   <property name="kdenlive:id">47</property>
   <filter id="filter160">
    <property name="rotate_center">1</property>
    <property name="mlt_service">qtblend</property>
    <property name="kdenlive_id">qtblend</property>
    <property name="rect">00:00:00.000=740 -363 1920 1080 1.000000</property>
    <property name="rotation">00:00:00.000=0</property>
    <property name="compositing">0</property>
    <property name="distort">0</property>
    <property name="kdenlive:collapsed">0</property>
   </filter>
   <filter id="filter161" in="00:00:06.106" out="00:00:06.340">
    <property name="start">1</property>
    <property name="level">1</property>
    <property name="mlt_service">brightness</property>
    <property name="kdenlive_id">fade_to_black</property>
    <property name="alpha">00:00:00.000=1;00:00:00.234=0</property>
   </filter>
   <filter id="filter162" out="00:00:00.234">
    <property name="start">1</property>
    <property name="level">1</property>
    <property name="mlt_service">brightness</property>
    <property name="kdenlive_id">fade_from_black</property>
    <property name="alpha">00:00:00.000=0;00:00:00.234=1</property>
   </filter>
  </entry>
  <blank length="00:00:13.347"/>
  <entry producer="producer13" in="00:00:00.000" out="00:00:03.070">
   <property name="kdenlive:id">15</property>
   <filter id="filter163">
    <property name="rotate_center">1</property>
    <property name="mlt_service">qtblend</property>
    <property name="kdenlive_id">qtblend</property>
    <property name="rect">00:00:00.000=-228 -270 1920 1080 1.000000</property>
    <property name="rotation">00:00:00.000=0</property>
    <property name="compositing">0</property>
    <property name="distort">0</property>
    <property name="kdenlive:collapsed">0</property>
   </filter>
  </entry>
  <blank length="00:00:32.332"/>
  <entry producer="producer54" in="00:00:00.000" out="00:00:01.535">
   <property name="kdenlive:id">57</property>
   <filter id="filter164">
    <property name="rotate_center">1</property>
    <property name="mlt_service">qtblend</property>
    <property name="kdenlive_id">qtblend</property>
    <property name="rect">00:00:00.000=-508 56 2547 1508 1.000000</property>
    <property name="rotation">00:00:00.000=0</property>
    <property name="compositing">0</property>
    <property name="distort">0</property>
    <property name="kdenlive:collapsed">0</property>
   </filter>
  </entry>
 </playlist>
 <playlist id="playlist33"/>
 <tractor id="tractor16" in="00:00:00.000" out="00:02:40.874">
  <property name="kdenlive:trackheight">69</property>
  <property name="kdenlive:timeline_active">1</property>
  <property name="kdenlive:collapsed">0</property>
  <property name="kdenlive:thumbs_format"/>
  <property name="kdenlive:audio_rec"/>
  <track hide="audio" producer="playlist32"/>
  <track hide="audio" producer="playlist33"/>
 </tractor>
 <playlist id="playlist34">
  <blank length="00:01:44.177"/>
  <entry producer="producer42" in="00:00:00.000" out="00:00:06.340">
   <property name="kdenlive:id">45</property>
   <filter id="filter165">
    <property name="rotate_center">1</property>
    <property name="mlt_service">qtblend</property>
    <property name="kdenlive_id">qtblend</property>
    <property name="rect">00:00:00.000=-200 -174 1920 1080 1.000000</property>
    <property name="rotation">00:00:00.000=0</property>
    <property name="compositing">0</property>
    <property name="distort">0</property>
    <property name="kdenlive:collapsed">0</property>
   </filter>
   <filter id="filter166" in="00:00:06.106" out="00:00:06.340">
    <property name="start">1</property>
    <property name="level">1</property>
    <property name="mlt_service">brightness</property>
    <property name="kdenlive_id">fade_to_black</property>
    <property name="alpha">00:00:00.000=1;00:00:00.234=0</property>
   </filter>
   <filter id="filter167" out="00:00:00.234">
    <property name="start">1</property>
    <property name="level">1</property>
    <property name="mlt_service">brightness</property>
    <property name="kdenlive_id">fade_from_black</property>
    <property name="alpha">00:00:00.000=0;00:00:00.234=1</property>
   </filter>
  </entry>
 </playlist>
 <playlist id="playlist35"/>
 <tractor id="tractor17" in="00:00:00.000" out="00:01:50.517">
  <property name="kdenlive:trackheight">69</property>
  <property name="kdenlive:timeline_active">1</property>
  <property name="kdenlive:collapsed">0</property>
  <property name="kdenlive:thumbs_format"/>
  <property name="kdenlive:audio_rec"/>
  <track hide="audio" producer="playlist34"/>
  <track hide="audio" producer="playlist35"/>
 </tractor>
 <playlist id="playlist36">
  <blank length="00:01:44.177"/>
  <entry producer="producer47" in="00:00:00.000" out="00:00:06.340">
   <property name="kdenlive:id">50</property>
   <filter id="filter168">
    <property name="rotate_center">1</property>
    <property name="mlt_service">qtblend</property>
    <property name="kdenlive_id">qtblend</property>
    <property name="rect">00:00:00.000=833 465 1920 1080 1.000000</property>
    <property name="rotation">00:00:00.000=0</property>
    <property name="compositing">0</property>
    <property name="distort">0</property>
    <property name="kdenlive:collapsed">0</property>
   </filter>
   <filter id="filter169" in="00:00:06.106" out="00:00:06.340">
    <property name="start">1</property>
    <property name="level">1</property>
    <property name="mlt_service">brightness</property>
    <property name="kdenlive_id">fade_to_black</property>
    <property name="alpha">00:00:00.000=1;00:00:00.234=0</property>
   </filter>
   <filter id="filter170" out="00:00:00.234">
    <property name="start">1</property>
    <property name="level">1</property>
    <property name="mlt_service">brightness</property>
    <property name="kdenlive_id">fade_from_black</property>
    <property name="alpha">00:00:00.000=0;00:00:00.234=1</property>
   </filter>
  </entry>
 </playlist>
 <playlist id="playlist37"/>
 <tractor id="tractor18" in="00:00:00.000" out="00:01:50.517">
  <property name="kdenlive:trackheight">69</property>
  <property name="kdenlive:timeline_active">1</property>
  <property name="kdenlive:collapsed">0</property>
  <property name="kdenlive:thumbs_format"/>
  <property name="kdenlive:audio_rec"/>
  <track hide="audio" producer="playlist36"/>
  <track hide="audio" producer="playlist37"/>
 </tractor>
 <tractor id="tractor19" in="00:00:00.000" out="00:19:48.749">
  <track producer="black_track"/>
  <track producer="tractor0"/>
  <track producer="tractor1"/>
  <track producer="tractor2"/>
  <track producer="tractor3"/>
  <track producer="tractor4"/>
  <track producer="tractor5"/>
  <track producer="tractor6"/>
  <track producer="tractor7"/>
  <track producer="tractor8"/>
  <track producer="tractor9"/>
  <track producer="tractor10"/>
  <track producer="tractor11"/>
  <track producer="tractor12"/>
  <track producer="tractor13"/>
  <track producer="tractor14"/>
  <track producer="tractor15"/>
  <track producer="tractor16"/>
  <track producer="tractor17"/>
  <track producer="tractor18"/>
  <transition id="transition1">
   <property name="a_track">0</property>
   <property name="b_track">1</property>
   <property name="mlt_service">mix</property>
   <property name="kdenlive_id">mix</property>
   <property name="internal_added">237</property>
   <property name="always_active">1</property>
   <property name="accepts_blanks">1</property>
   <property name="sum">1</property>
  </transition>
  <transition id="transition2">
   <property name="a_track">0</property>
   <property name="b_track">2</property>
   <property name="mlt_service">mix</property>
   <property name="kdenlive_id">mix</property>
   <property name="internal_added">237</property>
   <property name="always_active">1</property>
   <property name="accepts_blanks">1</property>
   <property name="sum">1</property>
  </transition>
  <transition id="transition4">
   <property name="a_track">0</property>
   <property name="b_track">3</property>
   <property name="version">0.1</property>
   <property name="mlt_service">frei0r.cairoblend</property>
   <property name="always_active">1</property>
   <property name="internal_added">237</property>
  </transition>
  <transition id="transition5">
   <property name="a_track">0</property>
   <property name="b_track">4</property>
   <property name="version">0.1</property>
   <property name="mlt_service">frei0r.cairoblend</property>
   <property name="always_active">1</property>
   <property name="internal_added">237</property>
  </transition>
  <transition id="transition6">
   <property name="a_track">0</property>
   <property name="b_track">5</property>
   <property name="version">0.1</property>
   <property name="mlt_service">frei0r.cairoblend</property>
   <property name="always_active">1</property>
   <property name="internal_added">237</property>
  </transition>
  <transition id="transition7">
   <property name="a_track">0</property>
   <property name="b_track">6</property>
   <property name="version">0.1</property>
   <property name="mlt_service">frei0r.cairoblend</property>
   <property name="always_active">1</property>
   <property name="internal_added">237</property>
  </transition>
  <transition id="transition8">
   <property name="a_track">0</property>
   <property name="b_track">7</property>
   <property name="version">0.1</property>
   <property name="mlt_service">frei0r.cairoblend</property>
   <property name="always_active">1</property>
   <property name="internal_added">237</property>
  </transition>
  <transition id="transition9">
   <property name="a_track">0</property>
   <property name="b_track">8</property>
   <property name="version">0.1</property>
   <property name="mlt_service">frei0r.cairoblend</property>
   <property name="always_active">1</property>
   <property name="internal_added">237</property>
  </transition>
  <transition id="transition10">
   <property name="a_track">0</property>
   <property name="b_track">9</property>
   <property name="version">0.1</property>
   <property name="mlt_service">frei0r.cairoblend</property>
   <property name="always_active">1</property>
   <property name="internal_added">237</property>
  </transition>
  <transition id="transition11">
   <property name="a_track">0</property>
   <property name="b_track">10</property>
   <property name="version">0.1</property>
   <property name="mlt_service">frei0r.cairoblend</property>
   <property name="always_active">1</property>
   <property name="internal_added">237</property>
  </transition>
  <transition id="transition12">
   <property name="a_track">0</property>
   <property name="b_track">11</property>
   <property name="version">0.1</property>
   <property name="mlt_service">frei0r.cairoblend</property>
   <property name="always_active">1</property>
   <property name="internal_added">237</property>
  </transition>
  <transition id="transition13">
   <property name="a_track">0</property>
   <property name="b_track">12</property>
   <property name="version">0.1</property>
   <property name="mlt_service">frei0r.cairoblend</property>
   <property name="always_active">1</property>
   <property name="internal_added">237</property>
  </transition>
  <transition id="transition14">
   <property name="a_track">0</property>
   <property name="b_track">13</property>
   <property name="version">0.1</property>
   <property name="mlt_service">frei0r.cairoblend</property>
   <property name="always_active">1</property>
   <property name="internal_added">237</property>
  </transition>
  <transition id="transition15">
   <property name="a_track">0</property>
   <property name="b_track">14</property>
   <property name="version">0.1</property>
   <property name="mlt_service">frei0r.cairoblend</property>
   <property name="always_active">1</property>
   <property name="internal_added">237</property>
  </transition>
  <transition id="transition16">
   <property name="a_track">0</property>
   <property name="b_track">15</property>
   <property name="version">0.1</property>
   <property name="mlt_service">frei0r.cairoblend</property>
   <property name="always_active">1</property>
   <property name="internal_added">237</property>
  </transition>
  <transition id="transition17">
   <property name="a_track">0</property>
   <property name="b_track">16</property>
   <property name="version">0.1</property>
   <property name="mlt_service">frei0r.cairoblend</property>
   <property name="always_active">1</property>
   <property name="internal_added">237</property>
  </transition>
  <transition id="transition18">
   <property name="a_track">0</property>
   <property name="b_track">17</property>
   <property name="version">0.1</property>
   <property name="mlt_service">frei0r.cairoblend</property>
   <property name="always_active">1</property>
   <property name="internal_added">237</property>
  </transition>
  <transition id="transition19">
   <property name="a_track">0</property>
   <property name="b_track">18</property>
   <property name="version">0.1</property>
   <property name="mlt_service">frei0r.cairoblend</property>
   <property name="always_active">1</property>
   <property name="internal_added">237</property>
  </transition>
  <transition id="transition20">
   <property name="a_track">0</property>
   <property name="b_track">19</property>
   <property name="version">0.1</property>
   <property name="mlt_service">frei0r.cairoblend</property>
   <property name="always_active">1</property>
   <property name="internal_added">237</property>
  </transition>
  <filter id="filter171">
   <property name="window">75</property>
   <property name="max_gain">20dB</property>
   <property name="mlt_service">volume</property>
   <property name="internal_added">237</property>
   <property name="disable">1</property>
  </filter>
  <filter id="filter172">
   <property name="channel">-1</property>
   <property name="mlt_service">panner</property>
   <property name="internal_added">237</property>
   <property name="start">0.5</property>
   <property name="disable">1</property>
  </filter>
 </tractor>
</mlt>
