<?xml version="1.0" encoding="UTF-8" standalone="no"?>
<svg
   id="Layer_1"
   data-name="Layer 1"
   viewBox="0 0 1000 416.55557"
   version="1.1"
   sodipodi:docname="tremor-logo.svg"
   inkscape:version="1.1.1 (3bf5ae0d25, 2021-09-20, custom)"
   inkscape:export-filename="/home/mario/Downloads/tremor-presentation/tremor-runtime-logo.png"
   inkscape:export-xdpi="119.424"
   inkscape:export-ydpi="119.424"
   xmlns:inkscape="http://www.inkscape.org/namespaces/inkscape"
   xmlns:sodipodi="http://sodipodi.sourceforge.net/DTD/sodipodi-0.dtd"
   xmlns="http://www.w3.org/2000/svg"
   xmlns:svg="http://www.w3.org/2000/svg">
  <sodipodi:namedview
     id="namedview23"
     pagecolor="#ffffff"
     bordercolor="#666666"
     borderopacity="1.0"
     inkscape:pageshadow="2"
     inkscape:pageopacity="0.0"
     inkscape:pagecheckerboard="0"
     showgrid="false"
     inkscape:zoom="0.5112382"
     inkscape:cx="676.78823"
     inkscape:cy="47.922866"
     inkscape:window-width="1920"
     inkscape:window-height="1047"
     inkscape:window-x="0"
     inkscape:window-y="0"
     inkscape:window-maximized="1"
     inkscape:current-layer="Layer_1" />
  <defs
     id="defs4">
    <style
       id="style2">.cls-1{fill:#97d8e8;}.cls-2{fill:#3953a4;}</style>
  </defs>
  <path
     class="cls-1"
     d="m 49.767545,314.20751 -1.768316,-1.9061 -1.732936,-1.9414 -3.32442,-4.02399 -3.289049,-4.09461 -3.395141,-4.02396 -0.813422,-0.95305 -0.742691,-0.98835 -0.636628,-0.98835 -0.601219,-1.02365 -0.459767,-1.02366 -0.424387,-1.05894 -0.318294,-1.05895 -0.212203,-1.05894 -0.141463,-1.05895 -0.03537,-1.09424 0.07074,-1.09424 0.176823,-1.05894 0.282934,-1.09425 0.388996,-1.09424 0.495128,-1.05894 0.601219,-1.09424 0.778061,-1.09425 0.778052,-0.91775 0.813422,-0.77656 0.884153,-0.60007 0.884153,-0.45888 0.919524,-0.31768 0.954884,-0.17648 0.954885,-0.0706 h 0.990254 l 1.025625,0.14119 1.025626,0.21179 1.025625,0.31768 2.121961,0.81186 2.192703,0.98835 10.220813,4.65935 10.362284,3.7416 10.397616,2.75326 5.234188,0.98835 5.269558,0.70596 5.304919,0.45887 5.304915,0.1412 5.34029,-0.1059 5.37565,-0.42358 5.41103,-0.74125 5.41102,-1.02365 5.44639,-1.34133 5.48175,-1.65901 5.19882,-1.9414 4.95126,-2.25908 4.70369,-2.61207 4.45614,-3.00034 4.24394,-3.38861 3.961,-3.77691 3.71345,-4.20048 3.46587,-4.69465 1.30855,-1.8355 1.30855,-1.58843 1.30855,-1.34132 1.30855,-1.05895 1.27318,-0.84715 1.27317,-0.60007 0.63663,-0.1765 0.63663,-0.14119 0.63663,-0.0706 0.63663,-0.0353 0.60123,0.0353 0.63663,0.1059 0.63662,0.17649 0.60123,0.24709 1.27318,0.6354 1.23782,0.91775 1.23781,1.12954 1.20245,1.37663 1.23782,1.62371 1.23781,1.9061 4.70369,7.27142 4.95127,6.84784 5.19882,6.42426 5.44639,5.96539 5.65858,5.57711 5.90612,5.11826 6.11834,4.72995 6.36591,4.27108 6.57809,3.84746 6.82568,3.4592 7.03785,3.03565 7.25006,2.57677 7.49762,2.18848 7.70983,1.80015 7.92201,1.34134 8.13421,0.95305 6.5781,0.35297 6.54275,-0.17649 6.50737,-0.6354 6.472,-1.02366 6.43664,-1.44722 6.40128,-1.76491 6.29517,-2.0473 6.29517,-2.32968 8.02811,-3.38862 2.29881,-0.84715 1.13171,-0.31769 1.13172,-0.28239 1.09635,-0.17648 1.06098,-0.1059 h 1.06084 l 1.02563,0.1059 0.99025,0.21179 0.99025,0.35298 0.91952,0.49417 0.91952,0.60007 0.84879,0.77656 0.81342,0.95305 0.77805,1.12954 0.70733,1.27074 0.60122,1.34132 0.4244,1.23544 0.24756,1.20014 0.1061,1.16483 -0.0354,1.09425 -0.17683,1.05894 -0.3183,0.98835 -0.38899,0.98835 -0.49513,0.91775 -0.60122,0.88245 -0.67196,0.84716 -0.74269,0.81185 -1.62684,1.55313 -1.73294,1.48251 -14.53549,10.73064 -14.92451,9.5658 -15.34891,8.33031 -15.80866,7.09493 -16.19772,5.82432 -16.69282,4.51818 -17.11722,3.17684 -17.61233,1.8355 -4.52687,0.35297 -4.4915,0.45889 -9.05373,0.98834 -23.65995,-1.65901 -22.81116,-3.8122 -11.10497,-2.68266 -10.89277,-3.24743 -10.68058,-3.77688 -10.46838,-4.34167 -10.25618,-4.87111 -10.04398,-5.40067 -19.486752,-12.42493 -18.673319,-14.57818 z"
     id="path6"
     style="stroke-width:0.973991" />
  <path
     class="cls-2"
     d="m 356.60419,175.83878 -8.52324,-13.76628 -4.03174,-6.14187 -4.06711,-5.78889 -4.2793,-5.57711 -4.7037,-5.43592 -5.26955,-5.40062 -6.01225,-5.50651 -5.58784,-4.37698 -6.22444,-4.16517 -13.40377,-8.15387 -6.6842,-4.20048 -6.3659,-4.41227 -5.80005,-4.694642 -2.58172,-2.470877 -2.36959,-2.612058 -1.90977,-2.470876 -1.73294,-2.50616 -1.48538,-2.541472 -1.23781,-2.576765 -0.99026,-2.612057 -0.77805,-2.64736 -0.53049,-2.612067 -0.28293,-2.682711 -0.0707,-2.64736 0.21219,-2.682652 0.4244,-2.64737 0.67196,-2.682652 0.91951,-2.682711 1.16709,-2.64736 1.45001,-2.647359 1.6622,-2.64736 1.09636,-1.517819 1.13172,-1.482526 2.40489,-2.823853 2.58173,-2.647359 2.68782,-2.50617 12.02453,-10.095137 -19.20382,-1.341336 -18.95624,0.105898 -18.67333,1.588413 -18.42575,2.965043 -18.1782,4.376974 -17.93064,5.682997 -17.6477,7.024333 -17.47087,8.294997 -16.65746,9.671693 -17.47087,12.107297 -17.435514,13.801579 -16.657449,14.754625 -15.101345,14.96641 -12.802541,14.43694 -5.304929,6.81255 -4.420766,6.35366 -3.465872,5.89477 -2.404896,5.29471 14.959883,-4.94174 14.853772,-4.34167 14.818421,-3.7769 14.712309,-3.17683 14.676947,-2.61207 14.57086,-2.01199 14.50012,-1.4119 14.42938,-0.88247 6.86103,10.34237 7.17933,8.68334 7.42689,7.16552 7.53298,5.7889 7.56838,4.55346 7.42689,3.45921 7.25006,2.50617 6.93174,1.65901 6.50738,0.95305 6.01224,0.38825 5.37566,-0.0353 4.59759,-0.31768 3.78418,-0.49417 2.86465,-0.52948 2.36954,-0.56477 -12.94406,-37.87486 18.21356,4.05928 18.10747,5.11827 18.00137,6.17717 17.89526,7.27142 17.75381,8.33032 17.6477,9.42461 17.5416,10.51885 17.43551,11.61308 -2.26343,-8.40095 -2.90002,-8.61275 -1.62685,-4.16519 -1.73293,-3.98868 -1.80368,-3.671 z"
     id="path8"
     style="stroke-width:0.973991" />
  <path
     class="cls-2"
     d="M 473.89921,205.78764 V 124.2109 h -27.74169 v -20.02118 h 79.9436 v 20.02118 h -27.74168 v 81.57674 z"
     id="path10"
     style="stroke-width:0.973991" />
  <path
     class="cls-2"
     d="m 536.46695,126.29504 h 23.78957 v 12.57964 h 1.11837 a 19.733134,19.695194 0 0 1 9.17252,-11.38795 18.910158,18.8738 0 0 1 9.69516,-2.30726 q 2.5337,0 4.25061,0.14833 a 13.96412,13.937271 0 0 1 2.90805,0.52103 v 20.17076 a 17.239734,17.206588 0 0 0 -3.65364,-0.70677 46.825919,46.735888 0 0 0 -5.07113,-0.26052 20.555068,20.515547 0 0 0 -10.06796,2.19508 13.472395,13.446492 0 0 0 -5.81673,6.17762 21.717232,21.675476 0 0 0 -1.86398,9.26768 v 43.09496 h -24.46084 z"
     id="path12"
     style="stroke-width:0.973991" />
  <path
     class="cls-2"
     d="m 615.18039,203.07029 a 30.348637,30.290287 0 0 1 -13.2745,-12.57836 q -4.73675,-8.3727 -4.73523,-20.72918 v -7.59115 q 0,-12.43003 4.95937,-20.72918 a 31.60609,31.545322 0 0 1 13.31141,-12.43003 41.06094,40.981994 0 0 1 18.49426,-4.13088 39.097365,39.022194 0 0 1 19.01629,4.46495 31.802324,31.741179 0 0 1 12.82677,12.84012 q 4.62341,8.37269 4.62403,19.98502 v 8.78279 h -50.11442 v 3.64723 q 0,6.84887 4.13884,10.97787 a 14.202022,14.174716 0 0 0 10.47822,4.13088 18.173053,18.138112 0 0 0 6.45054,-1.07947 11.914186,11.891279 0 0 0 4.66087,-3.01401 7.7421047,7.7272192 0 0 0 2.08815,-4.3914 h 21.77573 a 24.253411,24.20678 0 0 1 -2.27487,8.55967 27.504516,27.451634 0 0 1 -6.22699,8.52227 31.63217,31.571351 0 0 1 -10.70115,6.47553 49.459455,49.36436 0 0 1 -35.49732,-1.71268 z m 32.47687,-45.43969 v -0.52103 a 17.947757,17.913249 0 0 0 -1.67785,-7.96385 12.932587,12.907722 0 0 0 -4.73518,-5.35867 13.085709,13.060549 0 0 0 -7.15929,-1.9358 12.989952,12.964976 0 0 0 -12.04372,7.29447 17.3025,17.269233 0 0 0 -1.75281,7.96385 v 0.52103 z"
     id="path14"
     style="stroke-width:0.973991" />
  <path
     class="cls-2"
     d="m 688.00217,126.29504 h 23.04397 v 13.4721 h 1.1927 a 21.884471,21.842394 0 0 1 3.31894,-6.43815 19.86125,19.823063 0 0 1 6.93511,-5.80615 q 4.51099,-2.41759 11.5966,-2.4182 a 25.768343,25.718799 0 0 1 10.44014,1.93455 19.273221,19.236165 0 0 1 11.18634,13.02586 h 0.96913 a 20.246064,20.207137 0 0 1 4.25124,-6.99657 23.887628,23.8417 0 0 1 8.01665,-5.69398 28.166142,28.111988 0 0 1 11.82017,-2.26986 q 12.00527,0 18.60603,6.95917 6.59978,6.96104 6.59978,18.57025 v 55.15358 h -23.71462 v -47.63598 a 17.680217,17.646224 0 0 0 -1.56612,-8.07602 9.8629648,9.8440016 0 0 0 -4.25061,-4.3914 12.866915,12.842177 0 0 0 -5.96597,-1.37612 11.747336,11.72475 0 0 0 -6.11521,1.63668 11.612133,11.589807 0 0 0 -4.39985,4.83888 17.778022,17.743841 0 0 0 -1.64043,8.11218 v 46.89178 h -22.67055 v -47.41285 a 17.609876,17.576018 0 0 0 -1.64105,-8.26176 10.182352,10.162774 0 0 0 -4.36239,-4.4288 12.774746,12.750184 0 0 0 -5.85418,-1.37612 12.193698,12.170253 0 0 0 -6.07771,1.52575 10.736569,10.715926 0 0 0 -4.32555,4.72545 18.327687,18.292449 0 0 0 -1.60295,8.18826 v 47.04007 h -23.78961 z"
     id="path16"
     style="stroke-width:0.973991" />
  <path
     class="cls-2"
     d="m 881.18739,129.45864 a 31.99069,31.929182 0 0 1 13.0878,13.02585 40.674303,40.5961 0 0 1 4.6234,19.76065 v 6.99662 q 0,12.13275 -4.6234,20.6544 a 30.939151,30.879666 0 0 1 -13.0878,12.95106 q -8.46468,4.42754 -20.02351,4.42879 -11.63346,0 -20.13531,-4.42879 A 30.716107,30.65705 0 0 1 827.94083,189.9335 q -4.58595,-8.48488 -4.58594,-20.617 v -6.92177 a 40.334999,40.257448 0 0 1 4.6234,-19.61233 32.895229,32.831982 0 0 1 13.12526,-13.17543 q 8.50123,-4.72484 20.06037,-4.72546 11.55847,0 20.02347,4.57713 z m -27.96583,15.92768 a 16.425913,16.394331 0 0 0 -4.4367,7.29449 32.037623,31.976025 0 0 0 -1.41687,9.63907 v 7.36927 a 33.553803,33.48929 0 0 0 1.34194,9.52696 16.390503,16.35899 0 0 0 4.36301,7.40541 11.25412,11.232482 0 0 0 8.09094,2.86569 11.125166,11.103776 0 0 0 8.05412,-2.86569 16.290924,16.259602 0 0 0 4.28808,-7.36797 34.36277,34.296702 0 0 0 1.30508,-9.56435 v -7.36927 a 33.127711,33.064017 0 0 0 -1.38002,-9.71267 16.058052,16.027178 0 0 0 -4.36238,-7.25704 12.688699,12.664302 0 0 0 -15.84723,0.0361 z"
     id="path18"
     style="stroke-width:0.973991" />
  <path
     class="cls-2"
     d="m 917.09499,126.29504 h 23.78956 v 12.57964 h 1.11839 a 19.733056,19.695116 0 0 1 9.1725,-11.38795 18.910197,18.873839 0 0 1 9.69517,-2.30726 q 2.5337,0 4.25061,0.14833 a 13.964013,13.937164 0 0 1 2.90805,0.52103 v 20.17076 a 17.239666,17.20652 0 0 0 -3.65364,-0.70677 46.825977,46.735946 0 0 0 -5.07114,-0.26052 20.555068,20.515547 0 0 0 -10.06796,2.19508 13.472541,13.446638 0 0 0 -5.81673,6.17762 21.717378,21.675622 0 0 0 -1.86397,9.26768 v 43.09496 h -24.46084 z"
     id="path20"
     style="stroke-width:0.973991" />
  <text
     xml:space="preserve"
     style="font-weight:bold;font-size:125.499px;line-height:1.25;font-family:Inconsolata;-inkscape-font-specification:'Inconsolata Bold';letter-spacing:0px;word-spacing:0px;stroke-width:3.13746"
     x="434.6225"
     y="330.39447"
     id="text1793"
     transform="scale(1.0009627,0.99903822)"><tspan
       sodipodi:role="line"
       id="tspan1791"
       x="434.6225"
       y="330.39447"
       style="font-style:normal;font-variant:normal;font-weight:bold;font-stretch:normal;font-family:'Open Sans';-inkscape-font-specification:'Open Sans Bold';fill:#97d8e8;fill-opacity:1;stroke-width:3.13746">Runtime</tspan></text>
</svg>
